%TF.GenerationSoftware,KiCad,Pcbnew,(5.1.6)-1*%
%TF.CreationDate,2020-09-14T15:10:25-05:00*%
%TF.ProjectId,Follower_Line_PCB_IM,466f6c6c-6f77-4657-925f-4c696e655f50,Iron Makers*%
%TF.SameCoordinates,Original*%
%TF.FileFunction,Legend,Top*%
%TF.FilePolarity,Positive*%
%FSLAX46Y46*%
G04 Gerber Fmt 4.6, Leading zero omitted, Abs format (unit mm)*
G04 Created by KiCad (PCBNEW (5.1.6)-1) date 2020-09-14 15:10:25*
%MOMM*%
%LPD*%
G01*
G04 APERTURE LIST*
%ADD10C,0.120000*%
%ADD11C,0.300000*%
%ADD12C,0.200000*%
%ADD13C,0.152400*%
%ADD14C,0.127000*%
%ADD15C,0.050000*%
%ADD16C,0.150000*%
%ADD17C,0.599999*%
G04 APERTURE END LIST*
D10*
X148280000Y-80470000D02*
X148240000Y-85060000D01*
X162740000Y-85060000D02*
X162740000Y-64600000D01*
X148280000Y-65060000D02*
X148280000Y-64660000D01*
X162740000Y-64600000D02*
X148280000Y-64650000D01*
X148280000Y-65060000D02*
X148280000Y-80460000D01*
X148240000Y-85060000D02*
X162740000Y-85060000D01*
X109810000Y-65280000D02*
X109810000Y-64880000D01*
X124270000Y-64820000D02*
X109810000Y-64870000D01*
X124270000Y-85280000D02*
X124270000Y-64820000D01*
X109770000Y-85280000D02*
X124270000Y-85280000D01*
X109810000Y-80690000D02*
X109770000Y-85280000D01*
X109810000Y-65280000D02*
X109810000Y-80680000D01*
D11*
X191167142Y-97647142D02*
X191238571Y-97432857D01*
X191238571Y-97075714D01*
X191167142Y-96932857D01*
X191095714Y-96861428D01*
X190952857Y-96790000D01*
X190810000Y-96790000D01*
X190667142Y-96861428D01*
X190595714Y-96932857D01*
X190524285Y-97075714D01*
X190452857Y-97361428D01*
X190381428Y-97504285D01*
X190310000Y-97575714D01*
X190167142Y-97647142D01*
X190024285Y-97647142D01*
X189881428Y-97575714D01*
X189810000Y-97504285D01*
X189738571Y-97361428D01*
X189738571Y-97004285D01*
X189810000Y-96790000D01*
X191381428Y-96504285D02*
X191381428Y-95361428D01*
X191238571Y-95004285D02*
X189738571Y-95004285D01*
X191238571Y-93432857D02*
X190524285Y-93932857D01*
X191238571Y-94290000D02*
X189738571Y-94290000D01*
X189738571Y-93718571D01*
X189810000Y-93575714D01*
X189881428Y-93504285D01*
X190024285Y-93432857D01*
X190238571Y-93432857D01*
X190381428Y-93504285D01*
X190452857Y-93575714D01*
X190524285Y-93718571D01*
X190524285Y-94290000D01*
X192288571Y-97754285D02*
X192288571Y-96825714D01*
X192860000Y-97325714D01*
X192860000Y-97111428D01*
X192931428Y-96968571D01*
X193002857Y-96897142D01*
X193145714Y-96825714D01*
X193502857Y-96825714D01*
X193645714Y-96897142D01*
X193717142Y-96968571D01*
X193788571Y-97111428D01*
X193788571Y-97540000D01*
X193717142Y-97682857D01*
X193645714Y-97754285D01*
X193645714Y-96182857D02*
X193717142Y-96111428D01*
X193788571Y-96182857D01*
X193717142Y-96254285D01*
X193645714Y-96182857D01*
X193788571Y-96182857D01*
X192288571Y-95611428D02*
X192288571Y-94682857D01*
X192860000Y-95182857D01*
X192860000Y-94968571D01*
X192931428Y-94825714D01*
X193002857Y-94754285D01*
X193145714Y-94682857D01*
X193502857Y-94682857D01*
X193645714Y-94754285D01*
X193717142Y-94825714D01*
X193788571Y-94968571D01*
X193788571Y-95397142D01*
X193717142Y-95540000D01*
X193645714Y-95611428D01*
X192288571Y-94254285D02*
X193788571Y-93754285D01*
X192288571Y-93254285D01*
X194910000Y-96512857D02*
X194838571Y-96655714D01*
X194838571Y-96870000D01*
X194910000Y-97084285D01*
X195052857Y-97227142D01*
X195195714Y-97298571D01*
X195481428Y-97370000D01*
X195695714Y-97370000D01*
X195981428Y-97298571D01*
X196124285Y-97227142D01*
X196267142Y-97084285D01*
X196338571Y-96870000D01*
X196338571Y-96727142D01*
X196267142Y-96512857D01*
X196195714Y-96441428D01*
X195695714Y-96441428D01*
X195695714Y-96727142D01*
X196338571Y-95798571D02*
X194838571Y-95798571D01*
X196338571Y-94941428D01*
X194838571Y-94941428D01*
X196338571Y-94227142D02*
X194838571Y-94227142D01*
X194838571Y-93870000D01*
X194910000Y-93655714D01*
X195052857Y-93512857D01*
X195195714Y-93441428D01*
X195481428Y-93370000D01*
X195695714Y-93370000D01*
X195981428Y-93441428D01*
X196124285Y-93512857D01*
X196267142Y-93655714D01*
X196338571Y-93870000D01*
X196338571Y-94227142D01*
X179331428Y-68828571D02*
X180260000Y-68828571D01*
X179760000Y-69400000D01*
X179974285Y-69400000D01*
X180117142Y-69471428D01*
X180188571Y-69542857D01*
X180260000Y-69685714D01*
X180260000Y-70042857D01*
X180188571Y-70185714D01*
X180117142Y-70257142D01*
X179974285Y-70328571D01*
X179545714Y-70328571D01*
X179402857Y-70257142D01*
X179331428Y-70185714D01*
X180902857Y-70185714D02*
X180974285Y-70257142D01*
X180902857Y-70328571D01*
X180831428Y-70257142D01*
X180902857Y-70185714D01*
X180902857Y-70328571D01*
X181474285Y-68828571D02*
X182402857Y-68828571D01*
X181902857Y-69400000D01*
X182117142Y-69400000D01*
X182260000Y-69471428D01*
X182331428Y-69542857D01*
X182402857Y-69685714D01*
X182402857Y-70042857D01*
X182331428Y-70185714D01*
X182260000Y-70257142D01*
X182117142Y-70328571D01*
X181688571Y-70328571D01*
X181545714Y-70257142D01*
X181474285Y-70185714D01*
X182831428Y-68828571D02*
X183331428Y-70328571D01*
X183831428Y-68828571D01*
X183974285Y-70471428D02*
X185117142Y-70471428D01*
X185474285Y-70328571D02*
X185474285Y-68828571D01*
X186188571Y-70328571D02*
X186188571Y-68828571D01*
X187045714Y-70328571D01*
X187045714Y-68828571D01*
X180127142Y-66320000D02*
X179984285Y-66248571D01*
X179770000Y-66248571D01*
X179555714Y-66320000D01*
X179412857Y-66462857D01*
X179341428Y-66605714D01*
X179270000Y-66891428D01*
X179270000Y-67105714D01*
X179341428Y-67391428D01*
X179412857Y-67534285D01*
X179555714Y-67677142D01*
X179770000Y-67748571D01*
X179912857Y-67748571D01*
X180127142Y-67677142D01*
X180198571Y-67605714D01*
X180198571Y-67105714D01*
X179912857Y-67105714D01*
X180841428Y-67748571D02*
X180841428Y-66248571D01*
X181698571Y-67748571D01*
X181698571Y-66248571D01*
X182412857Y-67748571D02*
X182412857Y-66248571D01*
X182770000Y-66248571D01*
X182984285Y-66320000D01*
X183127142Y-66462857D01*
X183198571Y-66605714D01*
X183270000Y-66891428D01*
X183270000Y-67105714D01*
X183198571Y-67391428D01*
X183127142Y-67534285D01*
X182984285Y-67677142D01*
X182770000Y-67748571D01*
X182412857Y-67748571D01*
X179281428Y-65137142D02*
X179495714Y-65208571D01*
X179852857Y-65208571D01*
X179995714Y-65137142D01*
X180067142Y-65065714D01*
X180138571Y-64922857D01*
X180138571Y-64780000D01*
X180067142Y-64637142D01*
X179995714Y-64565714D01*
X179852857Y-64494285D01*
X179567142Y-64422857D01*
X179424285Y-64351428D01*
X179352857Y-64280000D01*
X179281428Y-64137142D01*
X179281428Y-63994285D01*
X179352857Y-63851428D01*
X179424285Y-63780000D01*
X179567142Y-63708571D01*
X179924285Y-63708571D01*
X180138571Y-63780000D01*
X180638571Y-63708571D02*
X180995714Y-65208571D01*
X181281428Y-64137142D01*
X181567142Y-65208571D01*
X181924285Y-63708571D01*
X182495714Y-65208571D02*
X182495714Y-63708571D01*
X182852857Y-63708571D01*
X183067142Y-63780000D01*
X183210000Y-63922857D01*
X183281428Y-64065714D01*
X183352857Y-64351428D01*
X183352857Y-64565714D01*
X183281428Y-64851428D01*
X183210000Y-64994285D01*
X183067142Y-65137142D01*
X182852857Y-65208571D01*
X182495714Y-65208571D01*
X183995714Y-65208571D02*
X183995714Y-63708571D01*
X184995714Y-63708571D02*
X185281428Y-63708571D01*
X185424285Y-63780000D01*
X185567142Y-63922857D01*
X185638571Y-64208571D01*
X185638571Y-64708571D01*
X185567142Y-64994285D01*
X185424285Y-65137142D01*
X185281428Y-65208571D01*
X184995714Y-65208571D01*
X184852857Y-65137142D01*
X184710000Y-64994285D01*
X184638571Y-64708571D01*
X184638571Y-64208571D01*
X184710000Y-63922857D01*
X184852857Y-63780000D01*
X184995714Y-63708571D01*
X179247142Y-62677142D02*
X179461428Y-62748571D01*
X179818571Y-62748571D01*
X179961428Y-62677142D01*
X180032857Y-62605714D01*
X180104285Y-62462857D01*
X180104285Y-62320000D01*
X180032857Y-62177142D01*
X179961428Y-62105714D01*
X179818571Y-62034285D01*
X179532857Y-61962857D01*
X179390000Y-61891428D01*
X179318571Y-61820000D01*
X179247142Y-61677142D01*
X179247142Y-61534285D01*
X179318571Y-61391428D01*
X179390000Y-61320000D01*
X179532857Y-61248571D01*
X179890000Y-61248571D01*
X180104285Y-61320000D01*
X180604285Y-61248571D02*
X180961428Y-62748571D01*
X181247142Y-61677142D01*
X181532857Y-62748571D01*
X181890000Y-61248571D01*
X183318571Y-62605714D02*
X183247142Y-62677142D01*
X183032857Y-62748571D01*
X182890000Y-62748571D01*
X182675714Y-62677142D01*
X182532857Y-62534285D01*
X182461428Y-62391428D01*
X182390000Y-62105714D01*
X182390000Y-61891428D01*
X182461428Y-61605714D01*
X182532857Y-61462857D01*
X182675714Y-61320000D01*
X182890000Y-61248571D01*
X183032857Y-61248571D01*
X183247142Y-61320000D01*
X183318571Y-61391428D01*
X184675714Y-62748571D02*
X183961428Y-62748571D01*
X183961428Y-61248571D01*
X185175714Y-62748571D02*
X185175714Y-61248571D01*
X186032857Y-62748571D02*
X185390000Y-61891428D01*
X186032857Y-61248571D02*
X185175714Y-62105714D01*
D12*
X84622857Y-98321428D02*
X84622857Y-97578571D01*
X85080000Y-97978571D01*
X85080000Y-97807142D01*
X85137142Y-97692857D01*
X85194285Y-97635714D01*
X85308571Y-97578571D01*
X85594285Y-97578571D01*
X85708571Y-97635714D01*
X85765714Y-97692857D01*
X85822857Y-97807142D01*
X85822857Y-98150000D01*
X85765714Y-98264285D01*
X85708571Y-98321428D01*
X85708571Y-97064285D02*
X85765714Y-97007142D01*
X85822857Y-97064285D01*
X85765714Y-97121428D01*
X85708571Y-97064285D01*
X85822857Y-97064285D01*
X84622857Y-96607142D02*
X84622857Y-95864285D01*
X85080000Y-96264285D01*
X85080000Y-96092857D01*
X85137142Y-95978571D01*
X85194285Y-95921428D01*
X85308571Y-95864285D01*
X85594285Y-95864285D01*
X85708571Y-95921428D01*
X85765714Y-95978571D01*
X85822857Y-96092857D01*
X85822857Y-96435714D01*
X85765714Y-96550000D01*
X85708571Y-96607142D01*
X84622857Y-95521428D02*
X85822857Y-95121428D01*
X84622857Y-94721428D01*
X82070000Y-97184285D02*
X82012857Y-97298571D01*
X82012857Y-97470000D01*
X82070000Y-97641428D01*
X82184285Y-97755714D01*
X82298571Y-97812857D01*
X82527142Y-97870000D01*
X82698571Y-97870000D01*
X82927142Y-97812857D01*
X83041428Y-97755714D01*
X83155714Y-97641428D01*
X83212857Y-97470000D01*
X83212857Y-97355714D01*
X83155714Y-97184285D01*
X83098571Y-97127142D01*
X82698571Y-97127142D01*
X82698571Y-97355714D01*
X83212857Y-96612857D02*
X82012857Y-96612857D01*
X83212857Y-95927142D01*
X82012857Y-95927142D01*
X83212857Y-95355714D02*
X82012857Y-95355714D01*
X82012857Y-95070000D01*
X82070000Y-94898571D01*
X82184285Y-94784285D01*
X82298571Y-94727142D01*
X82527142Y-94670000D01*
X82698571Y-94670000D01*
X82927142Y-94727142D01*
X83041428Y-94784285D01*
X83155714Y-94898571D01*
X83212857Y-95070000D01*
X83212857Y-95355714D01*
X79510000Y-95964285D02*
X79452857Y-96078571D01*
X79452857Y-96250000D01*
X79510000Y-96421428D01*
X79624285Y-96535714D01*
X79738571Y-96592857D01*
X79967142Y-96650000D01*
X80138571Y-96650000D01*
X80367142Y-96592857D01*
X80481428Y-96535714D01*
X80595714Y-96421428D01*
X80652857Y-96250000D01*
X80652857Y-96135714D01*
X80595714Y-95964285D01*
X80538571Y-95907142D01*
X80138571Y-95907142D01*
X80138571Y-96135714D01*
X79452857Y-95164285D02*
X79452857Y-94935714D01*
X79510000Y-94821428D01*
X79624285Y-94707142D01*
X79852857Y-94650000D01*
X80252857Y-94650000D01*
X80481428Y-94707142D01*
X80595714Y-94821428D01*
X80652857Y-94935714D01*
X80652857Y-95164285D01*
X80595714Y-95278571D01*
X80481428Y-95392857D01*
X80252857Y-95450000D01*
X79852857Y-95450000D01*
X79624285Y-95392857D01*
X79510000Y-95278571D01*
X79452857Y-95164285D01*
X78132857Y-96962857D02*
X77561428Y-97362857D01*
X78132857Y-97648571D02*
X76932857Y-97648571D01*
X76932857Y-97191428D01*
X76990000Y-97077142D01*
X77047142Y-97020000D01*
X77161428Y-96962857D01*
X77332857Y-96962857D01*
X77447142Y-97020000D01*
X77504285Y-97077142D01*
X77561428Y-97191428D01*
X77561428Y-97648571D01*
X78132857Y-96448571D02*
X76932857Y-96448571D01*
X76932857Y-96162857D01*
X76990000Y-95991428D01*
X77104285Y-95877142D01*
X77218571Y-95820000D01*
X77447142Y-95762857D01*
X77618571Y-95762857D01*
X77847142Y-95820000D01*
X77961428Y-95877142D01*
X78075714Y-95991428D01*
X78132857Y-96162857D01*
X78132857Y-96448571D01*
X77561428Y-95020000D02*
X78132857Y-95020000D01*
X76932857Y-95420000D02*
X77561428Y-95020000D01*
X76932857Y-94620000D01*
D11*
X82358571Y-88738571D02*
X82358571Y-87238571D01*
X82930000Y-87238571D01*
X83072857Y-87310000D01*
X83144285Y-87381428D01*
X83215714Y-87524285D01*
X83215714Y-87738571D01*
X83144285Y-87881428D01*
X83072857Y-87952857D01*
X82930000Y-88024285D01*
X82358571Y-88024285D01*
X83715714Y-87238571D02*
X84072857Y-88738571D01*
X84358571Y-87667142D01*
X84644285Y-88738571D01*
X85001428Y-87238571D01*
X85572857Y-88738571D02*
X85572857Y-87238571D01*
X86072857Y-88310000D01*
X86572857Y-87238571D01*
X86572857Y-88738571D01*
X86930000Y-88881428D02*
X88072857Y-88881428D01*
X88430000Y-87952857D02*
X88930000Y-87952857D01*
X89144285Y-88738571D02*
X88430000Y-88738571D01*
X88430000Y-87238571D01*
X89144285Y-87238571D01*
X89715714Y-88667142D02*
X89930000Y-88738571D01*
X90287142Y-88738571D01*
X90430000Y-88667142D01*
X90501428Y-88595714D01*
X90572857Y-88452857D01*
X90572857Y-88310000D01*
X90501428Y-88167142D01*
X90430000Y-88095714D01*
X90287142Y-88024285D01*
X90001428Y-87952857D01*
X89858571Y-87881428D01*
X89787142Y-87810000D01*
X89715714Y-87667142D01*
X89715714Y-87524285D01*
X89787142Y-87381428D01*
X89858571Y-87310000D01*
X90001428Y-87238571D01*
X90358571Y-87238571D01*
X90572857Y-87310000D01*
X92072857Y-88595714D02*
X92001428Y-88667142D01*
X91787142Y-88738571D01*
X91644285Y-88738571D01*
X91430000Y-88667142D01*
X91287142Y-88524285D01*
X91215714Y-88381428D01*
X91144285Y-88095714D01*
X91144285Y-87881428D01*
X91215714Y-87595714D01*
X91287142Y-87452857D01*
X91430000Y-87310000D01*
X91644285Y-87238571D01*
X91787142Y-87238571D01*
X92001428Y-87310000D01*
X92072857Y-87381428D01*
X83947142Y-86278571D02*
X83090000Y-86278571D01*
X83518571Y-86278571D02*
X83518571Y-84778571D01*
X83375714Y-84992857D01*
X83232857Y-85135714D01*
X83090000Y-85207142D01*
X84518571Y-84921428D02*
X84590000Y-84850000D01*
X84732857Y-84778571D01*
X85090000Y-84778571D01*
X85232857Y-84850000D01*
X85304285Y-84921428D01*
X85375714Y-85064285D01*
X85375714Y-85207142D01*
X85304285Y-85421428D01*
X84447142Y-86278571D01*
X85375714Y-86278571D01*
X85804285Y-84778571D02*
X86304285Y-86278571D01*
X86804285Y-84778571D01*
X86947142Y-86421428D02*
X88090000Y-86421428D01*
X88732857Y-84778571D02*
X89018571Y-84778571D01*
X89161428Y-84850000D01*
X89304285Y-84992857D01*
X89375714Y-85278571D01*
X89375714Y-85778571D01*
X89304285Y-86064285D01*
X89161428Y-86207142D01*
X89018571Y-86278571D01*
X88732857Y-86278571D01*
X88590000Y-86207142D01*
X88447142Y-86064285D01*
X88375714Y-85778571D01*
X88375714Y-85278571D01*
X88447142Y-84992857D01*
X88590000Y-84850000D01*
X88732857Y-84778571D01*
X90018571Y-84778571D02*
X90018571Y-85992857D01*
X90090000Y-86135714D01*
X90161428Y-86207142D01*
X90304285Y-86278571D01*
X90590000Y-86278571D01*
X90732857Y-86207142D01*
X90804285Y-86135714D01*
X90875714Y-85992857D01*
X90875714Y-84778571D01*
X91375714Y-84778571D02*
X92232857Y-84778571D01*
X91804285Y-86278571D02*
X91804285Y-84778571D01*
X89077142Y-82210000D02*
X88934285Y-82138571D01*
X88720000Y-82138571D01*
X88505714Y-82210000D01*
X88362857Y-82352857D01*
X88291428Y-82495714D01*
X88220000Y-82781428D01*
X88220000Y-82995714D01*
X88291428Y-83281428D01*
X88362857Y-83424285D01*
X88505714Y-83567142D01*
X88720000Y-83638571D01*
X88862857Y-83638571D01*
X89077142Y-83567142D01*
X89148571Y-83495714D01*
X89148571Y-82995714D01*
X88862857Y-82995714D01*
X89791428Y-83638571D02*
X89791428Y-82138571D01*
X90648571Y-83638571D01*
X90648571Y-82138571D01*
X91362857Y-83638571D02*
X91362857Y-82138571D01*
X91720000Y-82138571D01*
X91934285Y-82210000D01*
X92077142Y-82352857D01*
X92148571Y-82495714D01*
X92220000Y-82781428D01*
X92220000Y-82995714D01*
X92148571Y-83281428D01*
X92077142Y-83424285D01*
X91934285Y-83567142D01*
X91720000Y-83638571D01*
X91362857Y-83638571D01*
X89067142Y-74780000D02*
X88924285Y-74708571D01*
X88710000Y-74708571D01*
X88495714Y-74780000D01*
X88352857Y-74922857D01*
X88281428Y-75065714D01*
X88210000Y-75351428D01*
X88210000Y-75565714D01*
X88281428Y-75851428D01*
X88352857Y-75994285D01*
X88495714Y-76137142D01*
X88710000Y-76208571D01*
X88852857Y-76208571D01*
X89067142Y-76137142D01*
X89138571Y-76065714D01*
X89138571Y-75565714D01*
X88852857Y-75565714D01*
X89781428Y-76208571D02*
X89781428Y-74708571D01*
X90638571Y-76208571D01*
X90638571Y-74708571D01*
X91352857Y-76208571D02*
X91352857Y-74708571D01*
X91710000Y-74708571D01*
X91924285Y-74780000D01*
X92067142Y-74922857D01*
X92138571Y-75065714D01*
X92210000Y-75351428D01*
X92210000Y-75565714D01*
X92138571Y-75851428D01*
X92067142Y-75994285D01*
X91924285Y-76137142D01*
X91710000Y-76208571D01*
X91352857Y-76208571D01*
X85937142Y-78788571D02*
X85080000Y-78788571D01*
X85508571Y-78788571D02*
X85508571Y-77288571D01*
X85365714Y-77502857D01*
X85222857Y-77645714D01*
X85080000Y-77717142D01*
X86508571Y-77431428D02*
X86580000Y-77360000D01*
X86722857Y-77288571D01*
X87080000Y-77288571D01*
X87222857Y-77360000D01*
X87294285Y-77431428D01*
X87365714Y-77574285D01*
X87365714Y-77717142D01*
X87294285Y-77931428D01*
X86437142Y-78788571D01*
X87365714Y-78788571D01*
X87794285Y-77288571D02*
X88294285Y-78788571D01*
X88794285Y-77288571D01*
X88937142Y-78931428D02*
X90080000Y-78931428D01*
X90437142Y-78788571D02*
X90437142Y-77288571D01*
X91151428Y-78788571D02*
X91151428Y-77288571D01*
X92008571Y-78788571D01*
X92008571Y-77288571D01*
D12*
X145645714Y-54404285D02*
X145702857Y-54232857D01*
X145702857Y-53947142D01*
X145645714Y-53832857D01*
X145588571Y-53775714D01*
X145474285Y-53718571D01*
X145360000Y-53718571D01*
X145245714Y-53775714D01*
X145188571Y-53832857D01*
X145131428Y-53947142D01*
X145074285Y-54175714D01*
X145017142Y-54290000D01*
X144960000Y-54347142D01*
X144845714Y-54404285D01*
X144731428Y-54404285D01*
X144617142Y-54347142D01*
X144560000Y-54290000D01*
X144502857Y-54175714D01*
X144502857Y-53890000D01*
X144560000Y-53718571D01*
X144617142Y-53261428D02*
X144560000Y-53204285D01*
X144502857Y-53090000D01*
X144502857Y-52804285D01*
X144560000Y-52690000D01*
X144617142Y-52632857D01*
X144731428Y-52575714D01*
X144845714Y-52575714D01*
X145017142Y-52632857D01*
X145702857Y-53318571D01*
X145702857Y-52575714D01*
X143035714Y-54384285D02*
X143092857Y-54212857D01*
X143092857Y-53927142D01*
X143035714Y-53812857D01*
X142978571Y-53755714D01*
X142864285Y-53698571D01*
X142750000Y-53698571D01*
X142635714Y-53755714D01*
X142578571Y-53812857D01*
X142521428Y-53927142D01*
X142464285Y-54155714D01*
X142407142Y-54270000D01*
X142350000Y-54327142D01*
X142235714Y-54384285D01*
X142121428Y-54384285D01*
X142007142Y-54327142D01*
X141950000Y-54270000D01*
X141892857Y-54155714D01*
X141892857Y-53870000D01*
X141950000Y-53698571D01*
X141892857Y-53298571D02*
X141892857Y-52555714D01*
X142350000Y-52955714D01*
X142350000Y-52784285D01*
X142407142Y-52670000D01*
X142464285Y-52612857D01*
X142578571Y-52555714D01*
X142864285Y-52555714D01*
X142978571Y-52612857D01*
X143035714Y-52670000D01*
X143092857Y-52784285D01*
X143092857Y-53127142D01*
X143035714Y-53241428D01*
X142978571Y-53298571D01*
X139412857Y-54401428D02*
X139412857Y-53658571D01*
X139870000Y-54058571D01*
X139870000Y-53887142D01*
X139927142Y-53772857D01*
X139984285Y-53715714D01*
X140098571Y-53658571D01*
X140384285Y-53658571D01*
X140498571Y-53715714D01*
X140555714Y-53772857D01*
X140612857Y-53887142D01*
X140612857Y-54230000D01*
X140555714Y-54344285D01*
X140498571Y-54401428D01*
X140498571Y-53144285D02*
X140555714Y-53087142D01*
X140612857Y-53144285D01*
X140555714Y-53201428D01*
X140498571Y-53144285D01*
X140612857Y-53144285D01*
X139412857Y-52687142D02*
X139412857Y-51944285D01*
X139870000Y-52344285D01*
X139870000Y-52172857D01*
X139927142Y-52058571D01*
X139984285Y-52001428D01*
X140098571Y-51944285D01*
X140384285Y-51944285D01*
X140498571Y-52001428D01*
X140555714Y-52058571D01*
X140612857Y-52172857D01*
X140612857Y-52515714D01*
X140555714Y-52630000D01*
X140498571Y-52687142D01*
X139412857Y-51601428D02*
X140612857Y-51201428D01*
X139412857Y-50801428D01*
X136902857Y-54144285D02*
X136902857Y-53915714D01*
X136960000Y-53801428D01*
X137074285Y-53687142D01*
X137302857Y-53630000D01*
X137702857Y-53630000D01*
X137931428Y-53687142D01*
X138045714Y-53801428D01*
X138102857Y-53915714D01*
X138102857Y-54144285D01*
X138045714Y-54258571D01*
X137931428Y-54372857D01*
X137702857Y-54430000D01*
X137302857Y-54430000D01*
X137074285Y-54372857D01*
X136960000Y-54258571D01*
X136902857Y-54144285D01*
X138102857Y-53115714D02*
X136902857Y-53115714D01*
X136902857Y-52658571D01*
X136960000Y-52544285D01*
X137017142Y-52487142D01*
X137131428Y-52430000D01*
X137302857Y-52430000D01*
X137417142Y-52487142D01*
X137474285Y-52544285D01*
X137531428Y-52658571D01*
X137531428Y-53115714D01*
X134440000Y-53774285D02*
X134382857Y-53888571D01*
X134382857Y-54060000D01*
X134440000Y-54231428D01*
X134554285Y-54345714D01*
X134668571Y-54402857D01*
X134897142Y-54460000D01*
X135068571Y-54460000D01*
X135297142Y-54402857D01*
X135411428Y-54345714D01*
X135525714Y-54231428D01*
X135582857Y-54060000D01*
X135582857Y-53945714D01*
X135525714Y-53774285D01*
X135468571Y-53717142D01*
X135068571Y-53717142D01*
X135068571Y-53945714D01*
X135582857Y-53202857D02*
X134382857Y-53202857D01*
X135582857Y-52517142D01*
X134382857Y-52517142D01*
X135582857Y-51945714D02*
X134382857Y-51945714D01*
X134382857Y-51660000D01*
X134440000Y-51488571D01*
X134554285Y-51374285D01*
X134668571Y-51317142D01*
X134897142Y-51260000D01*
X135068571Y-51260000D01*
X135297142Y-51317142D01*
X135411428Y-51374285D01*
X135525714Y-51488571D01*
X135582857Y-51660000D01*
X135582857Y-51945714D01*
X132915714Y-54394285D02*
X132972857Y-54222857D01*
X132972857Y-53937142D01*
X132915714Y-53822857D01*
X132858571Y-53765714D01*
X132744285Y-53708571D01*
X132630000Y-53708571D01*
X132515714Y-53765714D01*
X132458571Y-53822857D01*
X132401428Y-53937142D01*
X132344285Y-54165714D01*
X132287142Y-54280000D01*
X132230000Y-54337142D01*
X132115714Y-54394285D01*
X132001428Y-54394285D01*
X131887142Y-54337142D01*
X131830000Y-54280000D01*
X131772857Y-54165714D01*
X131772857Y-53880000D01*
X131830000Y-53708571D01*
X132972857Y-52565714D02*
X132972857Y-53251428D01*
X132972857Y-52908571D02*
X131772857Y-52908571D01*
X131944285Y-53022857D01*
X132058571Y-53137142D01*
X132115714Y-53251428D01*
X130425714Y-54474285D02*
X130482857Y-54302857D01*
X130482857Y-54017142D01*
X130425714Y-53902857D01*
X130368571Y-53845714D01*
X130254285Y-53788571D01*
X130140000Y-53788571D01*
X130025714Y-53845714D01*
X129968571Y-53902857D01*
X129911428Y-54017142D01*
X129854285Y-54245714D01*
X129797142Y-54360000D01*
X129740000Y-54417142D01*
X129625714Y-54474285D01*
X129511428Y-54474285D01*
X129397142Y-54417142D01*
X129340000Y-54360000D01*
X129282857Y-54245714D01*
X129282857Y-53960000D01*
X129340000Y-53788571D01*
X129282857Y-53045714D02*
X129282857Y-52931428D01*
X129340000Y-52817142D01*
X129397142Y-52760000D01*
X129511428Y-52702857D01*
X129740000Y-52645714D01*
X130025714Y-52645714D01*
X130254285Y-52702857D01*
X130368571Y-52760000D01*
X130425714Y-52817142D01*
X130482857Y-52931428D01*
X130482857Y-53045714D01*
X130425714Y-53160000D01*
X130368571Y-53217142D01*
X130254285Y-53274285D01*
X130025714Y-53331428D01*
X129740000Y-53331428D01*
X129511428Y-53274285D01*
X129397142Y-53217142D01*
X129340000Y-53160000D01*
X129282857Y-53045714D01*
D11*
X89301428Y-70718571D02*
X88444285Y-70718571D01*
X88872857Y-70718571D02*
X88872857Y-69218571D01*
X88730000Y-69432857D01*
X88587142Y-69575714D01*
X88444285Y-69647142D01*
X89872857Y-69361428D02*
X89944285Y-69290000D01*
X90087142Y-69218571D01*
X90444285Y-69218571D01*
X90587142Y-69290000D01*
X90658571Y-69361428D01*
X90730000Y-69504285D01*
X90730000Y-69647142D01*
X90658571Y-69861428D01*
X89801428Y-70718571D01*
X90730000Y-70718571D01*
X91158571Y-69218571D02*
X91658571Y-70718571D01*
X92158571Y-69218571D01*
X87615714Y-66768571D02*
X88615714Y-66768571D01*
X87972857Y-68268571D01*
X89187142Y-68125714D02*
X89258571Y-68197142D01*
X89187142Y-68268571D01*
X89115714Y-68197142D01*
X89187142Y-68125714D01*
X89187142Y-68268571D01*
X90544285Y-67268571D02*
X90544285Y-68268571D01*
X90187142Y-66697142D02*
X89830000Y-67768571D01*
X90758571Y-67768571D01*
X91115714Y-66768571D02*
X91615714Y-68268571D01*
X92115714Y-66768571D01*
X87575714Y-64168571D02*
X88504285Y-64168571D01*
X88004285Y-64740000D01*
X88218571Y-64740000D01*
X88361428Y-64811428D01*
X88432857Y-64882857D01*
X88504285Y-65025714D01*
X88504285Y-65382857D01*
X88432857Y-65525714D01*
X88361428Y-65597142D01*
X88218571Y-65668571D01*
X87790000Y-65668571D01*
X87647142Y-65597142D01*
X87575714Y-65525714D01*
X89147142Y-65525714D02*
X89218571Y-65597142D01*
X89147142Y-65668571D01*
X89075714Y-65597142D01*
X89147142Y-65525714D01*
X89147142Y-65668571D01*
X89718571Y-64168571D02*
X90718571Y-64168571D01*
X90075714Y-65668571D01*
X91075714Y-64168571D02*
X91575714Y-65668571D01*
X92075714Y-64168571D01*
X89007142Y-61700000D02*
X88864285Y-61628571D01*
X88650000Y-61628571D01*
X88435714Y-61700000D01*
X88292857Y-61842857D01*
X88221428Y-61985714D01*
X88150000Y-62271428D01*
X88150000Y-62485714D01*
X88221428Y-62771428D01*
X88292857Y-62914285D01*
X88435714Y-63057142D01*
X88650000Y-63128571D01*
X88792857Y-63128571D01*
X89007142Y-63057142D01*
X89078571Y-62985714D01*
X89078571Y-62485714D01*
X88792857Y-62485714D01*
X89721428Y-63128571D02*
X89721428Y-61628571D01*
X90578571Y-63128571D01*
X90578571Y-61628571D01*
X91292857Y-63128571D02*
X91292857Y-61628571D01*
X91650000Y-61628571D01*
X91864285Y-61700000D01*
X92007142Y-61842857D01*
X92078571Y-61985714D01*
X92150000Y-62271428D01*
X92150000Y-62485714D01*
X92078571Y-62771428D01*
X92007142Y-62914285D01*
X91864285Y-63057142D01*
X91650000Y-63128571D01*
X91292857Y-63128571D01*
D10*
%TO.C,      *%
X156527812Y-110334000D02*
G75*
G03*
X156527812Y-110334000I-19000000J0D01*
G01*
X154125400Y-110351042D02*
G75*
G03*
X154125400Y-110351042I-16500000J0D01*
G01*
D13*
%TO.C,RESET1*%
X154452400Y-140602100D02*
X160700800Y-140602100D01*
X160700800Y-140602100D02*
X160700800Y-134353700D01*
X160700800Y-134353700D02*
X154452400Y-134353700D01*
X154452400Y-134353700D02*
X154452400Y-140602100D01*
X151721900Y-140678300D02*
X151721900Y-134277500D01*
X151721900Y-134277500D02*
X154325400Y-134277500D01*
X154325400Y-134277500D02*
X154325400Y-134226700D01*
X154325400Y-134226700D02*
X160827800Y-134226700D01*
X160827800Y-134226700D02*
X160827800Y-134277500D01*
X160827800Y-134277500D02*
X163431300Y-134277500D01*
X163431300Y-134277500D02*
X163431300Y-140678300D01*
X163431300Y-140678300D02*
X160827800Y-140678300D01*
X160827800Y-140678300D02*
X160827800Y-140729100D01*
X160827800Y-140729100D02*
X154325400Y-140729100D01*
X154325400Y-140729100D02*
X154325400Y-140678300D01*
X154325400Y-140678300D02*
X151721900Y-140678300D01*
X159329200Y-137477900D02*
G75*
G03*
X159329200Y-137477900I-1752600J0D01*
G01*
%TO.C,BOOT0*%
X119042400Y-140602100D02*
X125290800Y-140602100D01*
X125290800Y-140602100D02*
X125290800Y-134353700D01*
X125290800Y-134353700D02*
X119042400Y-134353700D01*
X119042400Y-134353700D02*
X119042400Y-140602100D01*
X116311900Y-140678300D02*
X116311900Y-134277500D01*
X116311900Y-134277500D02*
X118915400Y-134277500D01*
X118915400Y-134277500D02*
X118915400Y-134226700D01*
X118915400Y-134226700D02*
X125417800Y-134226700D01*
X125417800Y-134226700D02*
X125417800Y-134277500D01*
X125417800Y-134277500D02*
X128021300Y-134277500D01*
X128021300Y-134277500D02*
X128021300Y-140678300D01*
X128021300Y-140678300D02*
X125417800Y-140678300D01*
X125417800Y-140678300D02*
X125417800Y-140729100D01*
X125417800Y-140729100D02*
X118915400Y-140729100D01*
X118915400Y-140729100D02*
X118915400Y-140678300D01*
X118915400Y-140678300D02*
X116311900Y-140678300D01*
X123919200Y-137477900D02*
G75*
G03*
X123919200Y-137477900I-1752600J0D01*
G01*
%TO.C,AM1*%
X136782400Y-140602100D02*
X143030800Y-140602100D01*
X143030800Y-140602100D02*
X143030800Y-134353700D01*
X143030800Y-134353700D02*
X136782400Y-134353700D01*
X136782400Y-134353700D02*
X136782400Y-140602100D01*
X134051900Y-140678300D02*
X134051900Y-134277500D01*
X134051900Y-134277500D02*
X136655400Y-134277500D01*
X136655400Y-134277500D02*
X136655400Y-134226700D01*
X136655400Y-134226700D02*
X143157800Y-134226700D01*
X143157800Y-134226700D02*
X143157800Y-134277500D01*
X143157800Y-134277500D02*
X145761300Y-134277500D01*
X145761300Y-134277500D02*
X145761300Y-140678300D01*
X145761300Y-140678300D02*
X143157800Y-140678300D01*
X143157800Y-140678300D02*
X143157800Y-140729100D01*
X143157800Y-140729100D02*
X136655400Y-140729100D01*
X136655400Y-140729100D02*
X136655400Y-140678300D01*
X136655400Y-140678300D02*
X134051900Y-140678300D01*
X141659200Y-137477900D02*
G75*
G03*
X141659200Y-137477900I-1752600J0D01*
G01*
D14*
%TO.C,DMB1*%
X196940000Y-100310000D02*
X196940000Y-106710000D01*
X189440000Y-106710000D02*
X189440000Y-100310000D01*
D12*
X188360000Y-99740000D02*
G75*
G03*
X188360000Y-99740000I-100000J0D01*
G01*
D15*
X187290000Y-107660000D02*
X187290000Y-99360000D01*
X199090000Y-107660000D02*
X187290000Y-107660000D01*
X199090000Y-99360000D02*
X199090000Y-107660000D01*
X187290000Y-99360000D02*
X199090000Y-99360000D01*
D14*
X189440000Y-106710000D02*
X192040000Y-106710000D01*
X196940000Y-106710000D02*
X194340000Y-106710000D01*
X189440000Y-100310000D02*
X192040000Y-100310000D01*
X196940000Y-100310000D02*
X194340000Y-100310000D01*
%TO.C,DMA1*%
X85420000Y-100220000D02*
X85420000Y-106620000D01*
X77920000Y-106620000D02*
X77920000Y-100220000D01*
D12*
X76840000Y-99650000D02*
G75*
G03*
X76840000Y-99650000I-100000J0D01*
G01*
D15*
X75770000Y-107570000D02*
X75770000Y-99270000D01*
X87570000Y-107570000D02*
X75770000Y-107570000D01*
X87570000Y-99270000D02*
X87570000Y-107570000D01*
X75770000Y-99270000D02*
X87570000Y-99270000D01*
D14*
X77920000Y-106620000D02*
X80520000Y-106620000D01*
X85420000Y-106620000D02*
X82820000Y-106620000D01*
X77920000Y-100220000D02*
X80520000Y-100220000D01*
X85420000Y-100220000D02*
X82820000Y-100220000D01*
D16*
%TO.C,STM32*%
X128817800Y-64928600D02*
X128817800Y-82226000D01*
X146318400Y-64928600D02*
X128817800Y-64928600D01*
X146267600Y-82251400D02*
X146267600Y-64928600D01*
X128817800Y-82226000D02*
X146267600Y-82251400D01*
X144279999Y-66840001D02*
X144279999Y-80339999D01*
X130780001Y-66840001D02*
X130780001Y-80339999D01*
X144279999Y-80339999D02*
X130780001Y-80339999D01*
X144279999Y-66840001D02*
X130780001Y-66840001D01*
D17*
X143579998Y-79339999D02*
G75*
G03*
X143579998Y-79339999I-299999J0D01*
G01*
D10*
%TO.C,     *%
X174290000Y-117420000D02*
X199830000Y-117450000D01*
X174288000Y-127590000D02*
X199810000Y-127610000D01*
X174288000Y-117430000D02*
X174288000Y-127590000D01*
X199830000Y-127610000D02*
X199830000Y-117450000D01*
X74920000Y-117250000D02*
X74920000Y-127410000D01*
X100462000Y-127430000D02*
X100462000Y-117270000D01*
X100462000Y-117270000D02*
X74940000Y-117250000D01*
X100460000Y-127440000D02*
X74920000Y-127410000D01*
%TO.C,ADT1*%
X96360000Y-74190000D02*
X93700000Y-74190000D01*
X96360000Y-76790000D02*
X96360000Y-74190000D01*
X93700000Y-76790000D02*
X93700000Y-74190000D01*
X96360000Y-76790000D02*
X93700000Y-76790000D01*
X96360000Y-78060000D02*
X96360000Y-79390000D01*
X96360000Y-79390000D02*
X95030000Y-79390000D01*
D15*
X96830000Y-79860000D02*
X96830000Y-73710000D01*
X96830000Y-73710000D02*
X93230000Y-73710000D01*
X93230000Y-73710000D02*
X93230000Y-79860000D01*
X93230000Y-79860000D02*
X96830000Y-79860000D01*
D13*
%TO.C,C1*%
X149027550Y-139617000D02*
X149412450Y-139617000D01*
X149412450Y-138563000D02*
X149027550Y-138563000D01*
X147810400Y-139744000D02*
X147810400Y-138436000D01*
X147810400Y-138436000D02*
X150629600Y-138436000D01*
X150629600Y-138436000D02*
X150629600Y-139744000D01*
X150629600Y-139744000D02*
X147810400Y-139744000D01*
%TO.C,C2*%
X114539600Y-139734000D02*
X111720400Y-139734000D01*
X114539600Y-138426000D02*
X114539600Y-139734000D01*
X111720400Y-138426000D02*
X114539600Y-138426000D01*
X111720400Y-139734000D02*
X111720400Y-138426000D01*
X113322450Y-138553000D02*
X112937550Y-138553000D01*
X112937550Y-139607000D02*
X113322450Y-139607000D01*
%TO.C,C3*%
X159881800Y-101574000D02*
X157062600Y-101574000D01*
X159881800Y-100266000D02*
X159881800Y-101574000D01*
X157062600Y-100266000D02*
X159881800Y-100266000D01*
X157062600Y-101574000D02*
X157062600Y-100266000D01*
X158664650Y-100393000D02*
X158279750Y-100393000D01*
X158279750Y-101447000D02*
X158664650Y-101447000D01*
%TO.C,C4*%
X166512450Y-100403000D02*
X166127550Y-100403000D01*
X166127550Y-101457000D02*
X166512450Y-101457000D01*
X167729600Y-100276000D02*
X167729600Y-101584000D01*
X167729600Y-101584000D02*
X164910400Y-101584000D01*
X164910400Y-101584000D02*
X164910400Y-100276000D01*
X164910400Y-100276000D02*
X167729600Y-100276000D01*
%TO.C,C5*%
X169567000Y-82997800D02*
X166747800Y-82997800D01*
X169567000Y-81689800D02*
X169567000Y-82997800D01*
X166747800Y-81689800D02*
X169567000Y-81689800D01*
X166747800Y-82997800D02*
X166747800Y-81689800D01*
X168349850Y-81816800D02*
X167964950Y-81816800D01*
X167964950Y-82870800D02*
X168349850Y-82870800D01*
%TO.C,C6*%
X167978150Y-78637800D02*
X168363050Y-78637800D01*
X168363050Y-77583800D02*
X167978150Y-77583800D01*
X166761000Y-78764800D02*
X166761000Y-77456800D01*
X166761000Y-77456800D02*
X169580200Y-77456800D01*
X169580200Y-77456800D02*
X169580200Y-78764800D01*
X169580200Y-78764800D02*
X166761000Y-78764800D01*
%TO.C,C7*%
X94466700Y-105184750D02*
X94466700Y-106195250D01*
X96473300Y-106195250D02*
X96473300Y-105184750D01*
X94339700Y-103404000D02*
X96600300Y-103404000D01*
X96600300Y-103404000D02*
X96600300Y-107976000D01*
X96600300Y-107976000D02*
X94339700Y-107976000D01*
X94339700Y-107976000D02*
X94339700Y-103404000D01*
%TO.C,C8*%
X109609700Y-108258400D02*
X109609700Y-103686400D01*
X111870300Y-108258400D02*
X109609700Y-108258400D01*
X111870300Y-103686400D02*
X111870300Y-108258400D01*
X109609700Y-103686400D02*
X111870300Y-103686400D01*
X111743300Y-106477650D02*
X111743300Y-105467150D01*
X109736700Y-105467150D02*
X109736700Y-106477650D01*
%TO.C,C9*%
X113247550Y-101087000D02*
X113632450Y-101087000D01*
X113632450Y-100033000D02*
X113247550Y-100033000D01*
X112030400Y-101214000D02*
X112030400Y-99906000D01*
X112030400Y-99906000D02*
X114849600Y-99906000D01*
X114849600Y-99906000D02*
X114849600Y-101214000D01*
X114849600Y-101214000D02*
X112030400Y-101214000D01*
%TO.C,C10*%
X114849600Y-98924000D02*
X112030400Y-98924000D01*
X114849600Y-97616000D02*
X114849600Y-98924000D01*
X112030400Y-97616000D02*
X114849600Y-97616000D01*
X112030400Y-98924000D02*
X112030400Y-97616000D01*
X113632450Y-97743000D02*
X113247550Y-97743000D01*
X113247550Y-98797000D02*
X113632450Y-98797000D01*
%TO.C,C11*%
X113247550Y-96607000D02*
X113632450Y-96607000D01*
X113632450Y-95553000D02*
X113247550Y-95553000D01*
X112030400Y-96734000D02*
X112030400Y-95426000D01*
X112030400Y-95426000D02*
X114849600Y-95426000D01*
X114849600Y-95426000D02*
X114849600Y-96734000D01*
X114849600Y-96734000D02*
X112030400Y-96734000D01*
%TO.C,C12*%
X114849600Y-94514000D02*
X112030400Y-94514000D01*
X114849600Y-93206000D02*
X114849600Y-94514000D01*
X112030400Y-93206000D02*
X114849600Y-93206000D01*
X112030400Y-94514000D02*
X112030400Y-93206000D01*
X113632450Y-93333000D02*
X113247550Y-93333000D01*
X113247550Y-94387000D02*
X113632450Y-94387000D01*
%TO.C,C13*%
X113245350Y-92367000D02*
X113630250Y-92367000D01*
X113630250Y-91313000D02*
X113245350Y-91313000D01*
X112028200Y-92494000D02*
X112028200Y-91186000D01*
X112028200Y-91186000D02*
X114847400Y-91186000D01*
X114847400Y-91186000D02*
X114847400Y-92494000D01*
X114847400Y-92494000D02*
X112028200Y-92494000D01*
%TO.C,C14*%
X175246700Y-101972350D02*
X175246700Y-102982850D01*
X177253300Y-102982850D02*
X177253300Y-101972350D01*
X175119700Y-100191600D02*
X177380300Y-100191600D01*
X177380300Y-100191600D02*
X177380300Y-104763600D01*
X177380300Y-104763600D02*
X175119700Y-104763600D01*
X175119700Y-104763600D02*
X175119700Y-100191600D01*
%TO.C,C15*%
X178296000Y-102929600D02*
X178296000Y-100110400D01*
X179604000Y-102929600D02*
X178296000Y-102929600D01*
X179604000Y-100110400D02*
X179604000Y-102929600D01*
X178296000Y-100110400D02*
X179604000Y-100110400D01*
X179477000Y-101712450D02*
X179477000Y-101327550D01*
X178423000Y-101327550D02*
X178423000Y-101712450D01*
%TO.C,C16*%
X132621800Y-139764000D02*
X129802600Y-139764000D01*
X132621800Y-138456000D02*
X132621800Y-139764000D01*
X129802600Y-138456000D02*
X132621800Y-138456000D01*
X129802600Y-139764000D02*
X129802600Y-138456000D01*
X131404650Y-138583000D02*
X131019750Y-138583000D01*
X131019750Y-139637000D02*
X131404650Y-139637000D01*
D10*
%TO.C,CA1*%
X76220000Y-91220000D02*
X76220000Y-93880000D01*
X83900000Y-91220000D02*
X76220000Y-91220000D01*
X83900000Y-93880000D02*
X76220000Y-93880000D01*
X83900000Y-91220000D02*
X83900000Y-93880000D01*
X85170000Y-91220000D02*
X86500000Y-91220000D01*
X86500000Y-91220000D02*
X86500000Y-92550000D01*
D15*
X86970000Y-90750000D02*
X75770000Y-90750000D01*
X75770000Y-90750000D02*
X75770000Y-94350000D01*
X75770000Y-94350000D02*
X86970000Y-94350000D01*
X86970000Y-94350000D02*
X86970000Y-90750000D01*
%TO.C,DT1*%
X93190000Y-89800000D02*
X96790000Y-89800000D01*
X93190000Y-81150000D02*
X93190000Y-89800000D01*
X96790000Y-81150000D02*
X93190000Y-81150000D01*
X96790000Y-89800000D02*
X96790000Y-81150000D01*
D10*
X96320000Y-89330000D02*
X94990000Y-89330000D01*
X96320000Y-88000000D02*
X96320000Y-89330000D01*
X96320000Y-86730000D02*
X93660000Y-86730000D01*
X93660000Y-86730000D02*
X93660000Y-81590000D01*
X96320000Y-86730000D02*
X96320000Y-81590000D01*
X96320000Y-81590000D02*
X93660000Y-81590000D01*
D15*
%TO.C,IR1*%
X197420000Y-92700000D02*
X197420000Y-89100000D01*
X188770000Y-92700000D02*
X197420000Y-92700000D01*
X188770000Y-89100000D02*
X188770000Y-92700000D01*
X197420000Y-89100000D02*
X188770000Y-89100000D01*
D10*
X196950000Y-89570000D02*
X196950000Y-90900000D01*
X195620000Y-89570000D02*
X196950000Y-89570000D01*
X194350000Y-89570000D02*
X194350000Y-92230000D01*
X194350000Y-92230000D02*
X189210000Y-92230000D01*
X194350000Y-89570000D02*
X189210000Y-89570000D01*
X189210000Y-89570000D02*
X189210000Y-92230000D01*
D14*
%TO.C,LIPO_3S1*%
X93270000Y-72430000D02*
X99020000Y-72430000D01*
X93270000Y-60030000D02*
X93270000Y-72430000D01*
X99020000Y-60030000D02*
X93270000Y-60030000D01*
X99020000Y-72430000D02*
X99020000Y-60030000D01*
D15*
%TO.C,MA1*%
X114730000Y-119550000D02*
X111130000Y-119550000D01*
X114730000Y-125700000D02*
X114730000Y-119550000D01*
X111130000Y-125700000D02*
X114730000Y-125700000D01*
X111130000Y-119550000D02*
X111130000Y-125700000D01*
D10*
X111600000Y-120020000D02*
X112930000Y-120020000D01*
X111600000Y-121350000D02*
X111600000Y-120020000D01*
X111600000Y-122620000D02*
X114260000Y-122620000D01*
X114260000Y-122620000D02*
X114260000Y-125220000D01*
X111600000Y-122620000D02*
X111600000Y-125220000D01*
X111600000Y-125220000D02*
X114260000Y-125220000D01*
%TO.C,MB1*%
X160890000Y-125390000D02*
X163550000Y-125390000D01*
X160890000Y-122790000D02*
X160890000Y-125390000D01*
X163550000Y-122790000D02*
X163550000Y-125390000D01*
X160890000Y-122790000D02*
X163550000Y-122790000D01*
X160890000Y-121520000D02*
X160890000Y-120190000D01*
X160890000Y-120190000D02*
X162220000Y-120190000D01*
D15*
X160420000Y-119720000D02*
X160420000Y-125870000D01*
X160420000Y-125870000D02*
X164020000Y-125870000D01*
X164020000Y-125870000D02*
X164020000Y-119720000D01*
X164020000Y-119720000D02*
X160420000Y-119720000D01*
D13*
%TO.C,R1*%
X148025000Y-135826900D02*
X148025000Y-134633100D01*
X148025000Y-134633100D02*
X150438000Y-134633100D01*
X150438000Y-134633100D02*
X150438000Y-135826900D01*
X150438000Y-135826900D02*
X148025000Y-135826900D01*
%TO.C,R2*%
X111953500Y-135816900D02*
X111953500Y-134623100D01*
X111953500Y-134623100D02*
X114366500Y-134623100D01*
X114366500Y-134623100D02*
X114366500Y-135816900D01*
X114366500Y-135816900D02*
X111953500Y-135816900D01*
%TO.C,R3*%
X167953100Y-68466500D02*
X167953100Y-66053500D01*
X169146900Y-68466500D02*
X167953100Y-68466500D01*
X169146900Y-66053500D02*
X169146900Y-68466500D01*
X167953100Y-66053500D02*
X169146900Y-66053500D01*
%TO.C,R4*%
X167975500Y-64424600D02*
X167975500Y-62011600D01*
X169169300Y-64424600D02*
X167975500Y-64424600D01*
X169169300Y-62011600D02*
X169169300Y-64424600D01*
X167975500Y-62011600D02*
X169169300Y-62011600D01*
%TO.C,R5*%
X132458000Y-135826900D02*
X130045000Y-135826900D01*
X132458000Y-134633100D02*
X132458000Y-135826900D01*
X130045000Y-134633100D02*
X132458000Y-134633100D01*
X130045000Y-135826900D02*
X130045000Y-134633100D01*
%TO.C,RV-3.3V1*%
X99878000Y-103709600D02*
X97693600Y-103709600D01*
X99878000Y-107900600D02*
X99878000Y-103709600D01*
X106482000Y-107900600D02*
X99878000Y-107900600D01*
X106482000Y-103709600D02*
X106482000Y-107900600D01*
X108666400Y-103709600D02*
X106482000Y-103709600D01*
X108666400Y-92330400D02*
X108666400Y-103709600D01*
X97693600Y-92330400D02*
X108666400Y-92330400D01*
X97693600Y-103709600D02*
X97693600Y-92330400D01*
X106202600Y-103788340D02*
X106202600Y-104598600D01*
X103662600Y-103788340D02*
X103662600Y-104598600D01*
X101122600Y-103788340D02*
X101122600Y-104598600D01*
X105237400Y-103788340D02*
X105237400Y-104598600D01*
X102697400Y-103788340D02*
X102697400Y-104598600D01*
X100157400Y-103788340D02*
X100157400Y-104598600D01*
D15*
%TO.C,S1*%
X128130000Y-55130000D02*
X128130000Y-58730000D01*
X146980000Y-55130000D02*
X128130000Y-55130000D01*
X146980000Y-58730000D02*
X146980000Y-55130000D01*
X128130000Y-58730000D02*
X146980000Y-58730000D01*
D10*
X128600000Y-58260000D02*
X128600000Y-56930000D01*
X129930000Y-58260000D02*
X128600000Y-58260000D01*
X131200000Y-58260000D02*
X131200000Y-55600000D01*
X131200000Y-55600000D02*
X146500000Y-55600000D01*
X131200000Y-58260000D02*
X146500000Y-58260000D01*
X146500000Y-58260000D02*
X146500000Y-55600000D01*
%TO.C,ST-LINKV2*%
X175270000Y-70930000D02*
X177930000Y-70930000D01*
X175270000Y-63250000D02*
X175270000Y-70930000D01*
X177930000Y-63250000D02*
X177930000Y-70930000D01*
X175270000Y-63250000D02*
X177930000Y-63250000D01*
X175270000Y-61980000D02*
X175270000Y-60650000D01*
X175270000Y-60650000D02*
X176600000Y-60650000D01*
D15*
X174800000Y-60180000D02*
X174800000Y-71380000D01*
X174800000Y-71380000D02*
X178400000Y-71380000D01*
X178400000Y-71380000D02*
X178400000Y-60180000D01*
X178400000Y-60180000D02*
X174800000Y-60180000D01*
%TO.C,Y1*%
X156440000Y-95080000D02*
X156440000Y-93680000D01*
X154640000Y-95080000D02*
X156440000Y-95080000D01*
X154640000Y-97580000D02*
X154640000Y-95080000D01*
X156440000Y-97580000D02*
X154640000Y-97580000D01*
X156440000Y-98980000D02*
X156440000Y-97580000D01*
X168340000Y-98980000D02*
X156440000Y-98980000D01*
X168340000Y-97580000D02*
X168340000Y-98980000D01*
X170140000Y-97580000D02*
X168340000Y-97580000D01*
X170140000Y-95080000D02*
X170140000Y-97580000D01*
X168340000Y-95080000D02*
X170140000Y-95080000D01*
X168340000Y-93680000D02*
X168340000Y-95080000D01*
X156440000Y-93680000D02*
X168340000Y-93680000D01*
D13*
%TO.C,Z1*%
X170557400Y-103382500D02*
X170557400Y-101477500D01*
X170824100Y-103382500D02*
X170557400Y-103382500D01*
X170824100Y-104289600D02*
X170824100Y-103382500D01*
X173795900Y-104289600D02*
X170824100Y-104289600D01*
X173795900Y-103382500D02*
X173795900Y-104289600D01*
X174062600Y-103382500D02*
X173795900Y-103382500D01*
X174062600Y-101477500D02*
X174062600Y-103382500D01*
X172843400Y-101477500D02*
X174062600Y-101477500D01*
X172843400Y-100570400D02*
X172843400Y-101477500D01*
X171776600Y-100570400D02*
X172843400Y-100570400D01*
X171776600Y-101477500D02*
X171776600Y-100570400D01*
X170557400Y-101477500D02*
X171776600Y-101477500D01*
X171969640Y-103255500D02*
X172650360Y-103255500D01*
%TO.C,      *%
D16*
%TO.C,RESET1*%
D11*
X154967142Y-143338571D02*
X154467142Y-142624285D01*
X154110000Y-143338571D02*
X154110000Y-141838571D01*
X154681428Y-141838571D01*
X154824285Y-141910000D01*
X154895714Y-141981428D01*
X154967142Y-142124285D01*
X154967142Y-142338571D01*
X154895714Y-142481428D01*
X154824285Y-142552857D01*
X154681428Y-142624285D01*
X154110000Y-142624285D01*
X155610000Y-142552857D02*
X156110000Y-142552857D01*
X156324285Y-143338571D02*
X155610000Y-143338571D01*
X155610000Y-141838571D01*
X156324285Y-141838571D01*
X156895714Y-143267142D02*
X157110000Y-143338571D01*
X157467142Y-143338571D01*
X157610000Y-143267142D01*
X157681428Y-143195714D01*
X157752857Y-143052857D01*
X157752857Y-142910000D01*
X157681428Y-142767142D01*
X157610000Y-142695714D01*
X157467142Y-142624285D01*
X157181428Y-142552857D01*
X157038571Y-142481428D01*
X156967142Y-142410000D01*
X156895714Y-142267142D01*
X156895714Y-142124285D01*
X156967142Y-141981428D01*
X157038571Y-141910000D01*
X157181428Y-141838571D01*
X157538571Y-141838571D01*
X157752857Y-141910000D01*
X158395714Y-142552857D02*
X158895714Y-142552857D01*
X159110000Y-143338571D02*
X158395714Y-143338571D01*
X158395714Y-141838571D01*
X159110000Y-141838571D01*
X159538571Y-141838571D02*
X160395714Y-141838571D01*
X159967142Y-143338571D02*
X159967142Y-141838571D01*
X161681428Y-143338571D02*
X160824285Y-143338571D01*
X161252857Y-143338571D02*
X161252857Y-141838571D01*
X161110000Y-142052857D01*
X160967142Y-142195714D01*
X160824285Y-142267142D01*
%TO.C,BOOT0*%
X119460000Y-142512857D02*
X119674285Y-142584285D01*
X119745714Y-142655714D01*
X119817142Y-142798571D01*
X119817142Y-143012857D01*
X119745714Y-143155714D01*
X119674285Y-143227142D01*
X119531428Y-143298571D01*
X118960000Y-143298571D01*
X118960000Y-141798571D01*
X119460000Y-141798571D01*
X119602857Y-141870000D01*
X119674285Y-141941428D01*
X119745714Y-142084285D01*
X119745714Y-142227142D01*
X119674285Y-142370000D01*
X119602857Y-142441428D01*
X119460000Y-142512857D01*
X118960000Y-142512857D01*
X120745714Y-141798571D02*
X121031428Y-141798571D01*
X121174285Y-141870000D01*
X121317142Y-142012857D01*
X121388571Y-142298571D01*
X121388571Y-142798571D01*
X121317142Y-143084285D01*
X121174285Y-143227142D01*
X121031428Y-143298571D01*
X120745714Y-143298571D01*
X120602857Y-143227142D01*
X120460000Y-143084285D01*
X120388571Y-142798571D01*
X120388571Y-142298571D01*
X120460000Y-142012857D01*
X120602857Y-141870000D01*
X120745714Y-141798571D01*
X122317142Y-141798571D02*
X122602857Y-141798571D01*
X122745714Y-141870000D01*
X122888571Y-142012857D01*
X122960000Y-142298571D01*
X122960000Y-142798571D01*
X122888571Y-143084285D01*
X122745714Y-143227142D01*
X122602857Y-143298571D01*
X122317142Y-143298571D01*
X122174285Y-143227142D01*
X122031428Y-143084285D01*
X121960000Y-142798571D01*
X121960000Y-142298571D01*
X122031428Y-142012857D01*
X122174285Y-141870000D01*
X122317142Y-141798571D01*
X123388571Y-141798571D02*
X124245714Y-141798571D01*
X123817142Y-143298571D02*
X123817142Y-141798571D01*
X125031428Y-141798571D02*
X125174285Y-141798571D01*
X125317142Y-141870000D01*
X125388571Y-141941428D01*
X125460000Y-142084285D01*
X125531428Y-142370000D01*
X125531428Y-142727142D01*
X125460000Y-143012857D01*
X125388571Y-143155714D01*
X125317142Y-143227142D01*
X125174285Y-143298571D01*
X125031428Y-143298571D01*
X124888571Y-143227142D01*
X124817142Y-143155714D01*
X124745714Y-143012857D01*
X124674285Y-142727142D01*
X124674285Y-142370000D01*
X124745714Y-142084285D01*
X124817142Y-141941428D01*
X124888571Y-141870000D01*
X125031428Y-141798571D01*
%TO.C,AM1*%
X138181428Y-142880000D02*
X138895714Y-142880000D01*
X138038571Y-143308571D02*
X138538571Y-141808571D01*
X139038571Y-143308571D01*
X139538571Y-143308571D02*
X139538571Y-141808571D01*
X140038571Y-142880000D01*
X140538571Y-141808571D01*
X140538571Y-143308571D01*
X142038571Y-143308571D02*
X141181428Y-143308571D01*
X141610000Y-143308571D02*
X141610000Y-141808571D01*
X141467142Y-142022857D01*
X141324285Y-142165714D01*
X141181428Y-142237142D01*
%TO.C,DMB1*%
X200155714Y-102738571D02*
X200155714Y-101238571D01*
X200512857Y-101238571D01*
X200727142Y-101310000D01*
X200870000Y-101452857D01*
X200941428Y-101595714D01*
X201012857Y-101881428D01*
X201012857Y-102095714D01*
X200941428Y-102381428D01*
X200870000Y-102524285D01*
X200727142Y-102667142D01*
X200512857Y-102738571D01*
X200155714Y-102738571D01*
X201655714Y-102738571D02*
X201655714Y-101238571D01*
X202155714Y-102310000D01*
X202655714Y-101238571D01*
X202655714Y-102738571D01*
X203870000Y-101952857D02*
X204084285Y-102024285D01*
X204155714Y-102095714D01*
X204227142Y-102238571D01*
X204227142Y-102452857D01*
X204155714Y-102595714D01*
X204084285Y-102667142D01*
X203941428Y-102738571D01*
X203370000Y-102738571D01*
X203370000Y-101238571D01*
X203870000Y-101238571D01*
X204012857Y-101310000D01*
X204084285Y-101381428D01*
X204155714Y-101524285D01*
X204155714Y-101667142D01*
X204084285Y-101810000D01*
X204012857Y-101881428D01*
X203870000Y-101952857D01*
X203370000Y-101952857D01*
X205655714Y-102738571D02*
X204798571Y-102738571D01*
X205227142Y-102738571D02*
X205227142Y-101238571D01*
X205084285Y-101452857D01*
X204941428Y-101595714D01*
X204798571Y-101667142D01*
%TO.C,DMA1*%
X69422857Y-102778571D02*
X69422857Y-101278571D01*
X69780000Y-101278571D01*
X69994285Y-101350000D01*
X70137142Y-101492857D01*
X70208571Y-101635714D01*
X70280000Y-101921428D01*
X70280000Y-102135714D01*
X70208571Y-102421428D01*
X70137142Y-102564285D01*
X69994285Y-102707142D01*
X69780000Y-102778571D01*
X69422857Y-102778571D01*
X70922857Y-102778571D02*
X70922857Y-101278571D01*
X71422857Y-102350000D01*
X71922857Y-101278571D01*
X71922857Y-102778571D01*
X72565714Y-102350000D02*
X73280000Y-102350000D01*
X72422857Y-102778571D02*
X72922857Y-101278571D01*
X73422857Y-102778571D01*
X74708571Y-102778571D02*
X73851428Y-102778571D01*
X74280000Y-102778571D02*
X74280000Y-101278571D01*
X74137142Y-101492857D01*
X73994285Y-101635714D01*
X73851428Y-101707142D01*
%TO.C,STM32*%
X133747857Y-84497142D02*
X133962142Y-84568571D01*
X134319285Y-84568571D01*
X134462142Y-84497142D01*
X134533571Y-84425714D01*
X134605000Y-84282857D01*
X134605000Y-84140000D01*
X134533571Y-83997142D01*
X134462142Y-83925714D01*
X134319285Y-83854285D01*
X134033571Y-83782857D01*
X133890714Y-83711428D01*
X133819285Y-83640000D01*
X133747857Y-83497142D01*
X133747857Y-83354285D01*
X133819285Y-83211428D01*
X133890714Y-83140000D01*
X134033571Y-83068571D01*
X134390714Y-83068571D01*
X134605000Y-83140000D01*
X135033571Y-83068571D02*
X135890714Y-83068571D01*
X135462142Y-84568571D02*
X135462142Y-83068571D01*
X136390714Y-84568571D02*
X136390714Y-83068571D01*
X136890714Y-84140000D01*
X137390714Y-83068571D01*
X137390714Y-84568571D01*
X137962142Y-83068571D02*
X138890714Y-83068571D01*
X138390714Y-83640000D01*
X138605000Y-83640000D01*
X138747857Y-83711428D01*
X138819285Y-83782857D01*
X138890714Y-83925714D01*
X138890714Y-84282857D01*
X138819285Y-84425714D01*
X138747857Y-84497142D01*
X138605000Y-84568571D01*
X138176428Y-84568571D01*
X138033571Y-84497142D01*
X137962142Y-84425714D01*
X139462142Y-83211428D02*
X139533571Y-83140000D01*
X139676428Y-83068571D01*
X140033571Y-83068571D01*
X140176428Y-83140000D01*
X140247857Y-83211428D01*
X140319285Y-83354285D01*
X140319285Y-83497142D01*
X140247857Y-83711428D01*
X139390714Y-84568571D01*
X140319285Y-84568571D01*
%TO.C,     *%
D16*
%TO.C,ADT1*%
D11*
X98840000Y-79172857D02*
X98840000Y-78458571D01*
X99268571Y-79315714D02*
X97768571Y-78815714D01*
X99268571Y-78315714D01*
X99268571Y-77815714D02*
X97768571Y-77815714D01*
X97768571Y-77458571D01*
X97840000Y-77244285D01*
X97982857Y-77101428D01*
X98125714Y-77030000D01*
X98411428Y-76958571D01*
X98625714Y-76958571D01*
X98911428Y-77030000D01*
X99054285Y-77101428D01*
X99197142Y-77244285D01*
X99268571Y-77458571D01*
X99268571Y-77815714D01*
X97768571Y-76530000D02*
X97768571Y-75672857D01*
X99268571Y-76101428D02*
X97768571Y-76101428D01*
X99268571Y-74387142D02*
X99268571Y-75244285D01*
X99268571Y-74815714D02*
X97768571Y-74815714D01*
X97982857Y-74958571D01*
X98125714Y-75101428D01*
X98197142Y-75244285D01*
%TO.C,C1*%
X149010000Y-137755714D02*
X148938571Y-137827142D01*
X148724285Y-137898571D01*
X148581428Y-137898571D01*
X148367142Y-137827142D01*
X148224285Y-137684285D01*
X148152857Y-137541428D01*
X148081428Y-137255714D01*
X148081428Y-137041428D01*
X148152857Y-136755714D01*
X148224285Y-136612857D01*
X148367142Y-136470000D01*
X148581428Y-136398571D01*
X148724285Y-136398571D01*
X148938571Y-136470000D01*
X149010000Y-136541428D01*
X150438571Y-137898571D02*
X149581428Y-137898571D01*
X150010000Y-137898571D02*
X150010000Y-136398571D01*
X149867142Y-136612857D01*
X149724285Y-136755714D01*
X149581428Y-136827142D01*
%TO.C,C2*%
X112870000Y-137805714D02*
X112798571Y-137877142D01*
X112584285Y-137948571D01*
X112441428Y-137948571D01*
X112227142Y-137877142D01*
X112084285Y-137734285D01*
X112012857Y-137591428D01*
X111941428Y-137305714D01*
X111941428Y-137091428D01*
X112012857Y-136805714D01*
X112084285Y-136662857D01*
X112227142Y-136520000D01*
X112441428Y-136448571D01*
X112584285Y-136448571D01*
X112798571Y-136520000D01*
X112870000Y-136591428D01*
X113441428Y-136591428D02*
X113512857Y-136520000D01*
X113655714Y-136448571D01*
X114012857Y-136448571D01*
X114155714Y-136520000D01*
X114227142Y-136591428D01*
X114298571Y-136734285D01*
X114298571Y-136877142D01*
X114227142Y-137091428D01*
X113370000Y-137948571D01*
X114298571Y-137948571D01*
%TO.C,C3*%
X158308200Y-103805514D02*
X158236771Y-103876942D01*
X158022485Y-103948371D01*
X157879628Y-103948371D01*
X157665342Y-103876942D01*
X157522485Y-103734085D01*
X157451057Y-103591228D01*
X157379628Y-103305514D01*
X157379628Y-103091228D01*
X157451057Y-102805514D01*
X157522485Y-102662657D01*
X157665342Y-102519800D01*
X157879628Y-102448371D01*
X158022485Y-102448371D01*
X158236771Y-102519800D01*
X158308200Y-102591228D01*
X158808200Y-102448371D02*
X159736771Y-102448371D01*
X159236771Y-103019800D01*
X159451057Y-103019800D01*
X159593914Y-103091228D01*
X159665342Y-103162657D01*
X159736771Y-103305514D01*
X159736771Y-103662657D01*
X159665342Y-103805514D01*
X159593914Y-103876942D01*
X159451057Y-103948371D01*
X159022485Y-103948371D01*
X158879628Y-103876942D01*
X158808200Y-103805514D01*
%TO.C,C4*%
X166029800Y-103805514D02*
X165958371Y-103876942D01*
X165744085Y-103948371D01*
X165601228Y-103948371D01*
X165386942Y-103876942D01*
X165244085Y-103734085D01*
X165172657Y-103591228D01*
X165101228Y-103305514D01*
X165101228Y-103091228D01*
X165172657Y-102805514D01*
X165244085Y-102662657D01*
X165386942Y-102519800D01*
X165601228Y-102448371D01*
X165744085Y-102448371D01*
X165958371Y-102519800D01*
X166029800Y-102591228D01*
X167315514Y-102948371D02*
X167315514Y-103948371D01*
X166958371Y-102376942D02*
X166601228Y-103448371D01*
X167529800Y-103448371D01*
%TO.C,C5*%
X164834000Y-82930314D02*
X164762571Y-83001742D01*
X164548285Y-83073171D01*
X164405428Y-83073171D01*
X164191142Y-83001742D01*
X164048285Y-82858885D01*
X163976857Y-82716028D01*
X163905428Y-82430314D01*
X163905428Y-82216028D01*
X163976857Y-81930314D01*
X164048285Y-81787457D01*
X164191142Y-81644600D01*
X164405428Y-81573171D01*
X164548285Y-81573171D01*
X164762571Y-81644600D01*
X164834000Y-81716028D01*
X166191142Y-81573171D02*
X165476857Y-81573171D01*
X165405428Y-82287457D01*
X165476857Y-82216028D01*
X165619714Y-82144600D01*
X165976857Y-82144600D01*
X166119714Y-82216028D01*
X166191142Y-82287457D01*
X166262571Y-82430314D01*
X166262571Y-82787457D01*
X166191142Y-82930314D01*
X166119714Y-83001742D01*
X165976857Y-83073171D01*
X165619714Y-83073171D01*
X165476857Y-83001742D01*
X165405428Y-82930314D01*
%TO.C,C6*%
X164833200Y-78621114D02*
X164761771Y-78692542D01*
X164547485Y-78763971D01*
X164404628Y-78763971D01*
X164190342Y-78692542D01*
X164047485Y-78549685D01*
X163976057Y-78406828D01*
X163904628Y-78121114D01*
X163904628Y-77906828D01*
X163976057Y-77621114D01*
X164047485Y-77478257D01*
X164190342Y-77335400D01*
X164404628Y-77263971D01*
X164547485Y-77263971D01*
X164761771Y-77335400D01*
X164833200Y-77406828D01*
X166118914Y-77263971D02*
X165833200Y-77263971D01*
X165690342Y-77335400D01*
X165618914Y-77406828D01*
X165476057Y-77621114D01*
X165404628Y-77906828D01*
X165404628Y-78478257D01*
X165476057Y-78621114D01*
X165547485Y-78692542D01*
X165690342Y-78763971D01*
X165976057Y-78763971D01*
X166118914Y-78692542D01*
X166190342Y-78621114D01*
X166261771Y-78478257D01*
X166261771Y-78121114D01*
X166190342Y-77978257D01*
X166118914Y-77906828D01*
X165976057Y-77835400D01*
X165690342Y-77835400D01*
X165547485Y-77906828D01*
X165476057Y-77978257D01*
X165404628Y-78121114D01*
%TO.C,C7*%
X95190000Y-102425714D02*
X95118571Y-102497142D01*
X94904285Y-102568571D01*
X94761428Y-102568571D01*
X94547142Y-102497142D01*
X94404285Y-102354285D01*
X94332857Y-102211428D01*
X94261428Y-101925714D01*
X94261428Y-101711428D01*
X94332857Y-101425714D01*
X94404285Y-101282857D01*
X94547142Y-101140000D01*
X94761428Y-101068571D01*
X94904285Y-101068571D01*
X95118571Y-101140000D01*
X95190000Y-101211428D01*
X95690000Y-101068571D02*
X96690000Y-101068571D01*
X96047142Y-102568571D01*
%TO.C,C8*%
X113520000Y-106405714D02*
X113448571Y-106477142D01*
X113234285Y-106548571D01*
X113091428Y-106548571D01*
X112877142Y-106477142D01*
X112734285Y-106334285D01*
X112662857Y-106191428D01*
X112591428Y-105905714D01*
X112591428Y-105691428D01*
X112662857Y-105405714D01*
X112734285Y-105262857D01*
X112877142Y-105120000D01*
X113091428Y-105048571D01*
X113234285Y-105048571D01*
X113448571Y-105120000D01*
X113520000Y-105191428D01*
X114377142Y-105691428D02*
X114234285Y-105620000D01*
X114162857Y-105548571D01*
X114091428Y-105405714D01*
X114091428Y-105334285D01*
X114162857Y-105191428D01*
X114234285Y-105120000D01*
X114377142Y-105048571D01*
X114662857Y-105048571D01*
X114805714Y-105120000D01*
X114877142Y-105191428D01*
X114948571Y-105334285D01*
X114948571Y-105405714D01*
X114877142Y-105548571D01*
X114805714Y-105620000D01*
X114662857Y-105691428D01*
X114377142Y-105691428D01*
X114234285Y-105762857D01*
X114162857Y-105834285D01*
X114091428Y-105977142D01*
X114091428Y-106262857D01*
X114162857Y-106405714D01*
X114234285Y-106477142D01*
X114377142Y-106548571D01*
X114662857Y-106548571D01*
X114805714Y-106477142D01*
X114877142Y-106405714D01*
X114948571Y-106262857D01*
X114948571Y-105977142D01*
X114877142Y-105834285D01*
X114805714Y-105762857D01*
X114662857Y-105691428D01*
%TO.C,C9*%
X116340000Y-101175714D02*
X116268571Y-101247142D01*
X116054285Y-101318571D01*
X115911428Y-101318571D01*
X115697142Y-101247142D01*
X115554285Y-101104285D01*
X115482857Y-100961428D01*
X115411428Y-100675714D01*
X115411428Y-100461428D01*
X115482857Y-100175714D01*
X115554285Y-100032857D01*
X115697142Y-99890000D01*
X115911428Y-99818571D01*
X116054285Y-99818571D01*
X116268571Y-99890000D01*
X116340000Y-99961428D01*
X117054285Y-101318571D02*
X117340000Y-101318571D01*
X117482857Y-101247142D01*
X117554285Y-101175714D01*
X117697142Y-100961428D01*
X117768571Y-100675714D01*
X117768571Y-100104285D01*
X117697142Y-99961428D01*
X117625714Y-99890000D01*
X117482857Y-99818571D01*
X117197142Y-99818571D01*
X117054285Y-99890000D01*
X116982857Y-99961428D01*
X116911428Y-100104285D01*
X116911428Y-100461428D01*
X116982857Y-100604285D01*
X117054285Y-100675714D01*
X117197142Y-100747142D01*
X117482857Y-100747142D01*
X117625714Y-100675714D01*
X117697142Y-100604285D01*
X117768571Y-100461428D01*
%TO.C,C10*%
X116345714Y-98845714D02*
X116274285Y-98917142D01*
X116060000Y-98988571D01*
X115917142Y-98988571D01*
X115702857Y-98917142D01*
X115560000Y-98774285D01*
X115488571Y-98631428D01*
X115417142Y-98345714D01*
X115417142Y-98131428D01*
X115488571Y-97845714D01*
X115560000Y-97702857D01*
X115702857Y-97560000D01*
X115917142Y-97488571D01*
X116060000Y-97488571D01*
X116274285Y-97560000D01*
X116345714Y-97631428D01*
X117774285Y-98988571D02*
X116917142Y-98988571D01*
X117345714Y-98988571D02*
X117345714Y-97488571D01*
X117202857Y-97702857D01*
X117060000Y-97845714D01*
X116917142Y-97917142D01*
X118702857Y-97488571D02*
X118845714Y-97488571D01*
X118988571Y-97560000D01*
X119060000Y-97631428D01*
X119131428Y-97774285D01*
X119202857Y-98060000D01*
X119202857Y-98417142D01*
X119131428Y-98702857D01*
X119060000Y-98845714D01*
X118988571Y-98917142D01*
X118845714Y-98988571D01*
X118702857Y-98988571D01*
X118560000Y-98917142D01*
X118488571Y-98845714D01*
X118417142Y-98702857D01*
X118345714Y-98417142D01*
X118345714Y-98060000D01*
X118417142Y-97774285D01*
X118488571Y-97631428D01*
X118560000Y-97560000D01*
X118702857Y-97488571D01*
%TO.C,C11*%
X116355714Y-96575714D02*
X116284285Y-96647142D01*
X116070000Y-96718571D01*
X115927142Y-96718571D01*
X115712857Y-96647142D01*
X115570000Y-96504285D01*
X115498571Y-96361428D01*
X115427142Y-96075714D01*
X115427142Y-95861428D01*
X115498571Y-95575714D01*
X115570000Y-95432857D01*
X115712857Y-95290000D01*
X115927142Y-95218571D01*
X116070000Y-95218571D01*
X116284285Y-95290000D01*
X116355714Y-95361428D01*
X117784285Y-96718571D02*
X116927142Y-96718571D01*
X117355714Y-96718571D02*
X117355714Y-95218571D01*
X117212857Y-95432857D01*
X117070000Y-95575714D01*
X116927142Y-95647142D01*
X119212857Y-96718571D02*
X118355714Y-96718571D01*
X118784285Y-96718571D02*
X118784285Y-95218571D01*
X118641428Y-95432857D01*
X118498571Y-95575714D01*
X118355714Y-95647142D01*
%TO.C,C12*%
X116325714Y-94435714D02*
X116254285Y-94507142D01*
X116040000Y-94578571D01*
X115897142Y-94578571D01*
X115682857Y-94507142D01*
X115540000Y-94364285D01*
X115468571Y-94221428D01*
X115397142Y-93935714D01*
X115397142Y-93721428D01*
X115468571Y-93435714D01*
X115540000Y-93292857D01*
X115682857Y-93150000D01*
X115897142Y-93078571D01*
X116040000Y-93078571D01*
X116254285Y-93150000D01*
X116325714Y-93221428D01*
X117754285Y-94578571D02*
X116897142Y-94578571D01*
X117325714Y-94578571D02*
X117325714Y-93078571D01*
X117182857Y-93292857D01*
X117040000Y-93435714D01*
X116897142Y-93507142D01*
X118325714Y-93221428D02*
X118397142Y-93150000D01*
X118540000Y-93078571D01*
X118897142Y-93078571D01*
X119040000Y-93150000D01*
X119111428Y-93221428D01*
X119182857Y-93364285D01*
X119182857Y-93507142D01*
X119111428Y-93721428D01*
X118254285Y-94578571D01*
X119182857Y-94578571D01*
%TO.C,C13*%
X116323514Y-92385714D02*
X116252085Y-92457142D01*
X116037800Y-92528571D01*
X115894942Y-92528571D01*
X115680657Y-92457142D01*
X115537800Y-92314285D01*
X115466371Y-92171428D01*
X115394942Y-91885714D01*
X115394942Y-91671428D01*
X115466371Y-91385714D01*
X115537800Y-91242857D01*
X115680657Y-91100000D01*
X115894942Y-91028571D01*
X116037800Y-91028571D01*
X116252085Y-91100000D01*
X116323514Y-91171428D01*
X117752085Y-92528571D02*
X116894942Y-92528571D01*
X117323514Y-92528571D02*
X117323514Y-91028571D01*
X117180657Y-91242857D01*
X117037800Y-91385714D01*
X116894942Y-91457142D01*
X118252085Y-91028571D02*
X119180657Y-91028571D01*
X118680657Y-91600000D01*
X118894942Y-91600000D01*
X119037800Y-91671428D01*
X119109228Y-91742857D01*
X119180657Y-91885714D01*
X119180657Y-92242857D01*
X119109228Y-92385714D01*
X119037800Y-92457142D01*
X118894942Y-92528571D01*
X118466371Y-92528571D01*
X118323514Y-92457142D01*
X118252085Y-92385714D01*
%TO.C,C14*%
X176684714Y-108533285D02*
X176756142Y-108604714D01*
X176827571Y-108819000D01*
X176827571Y-108961857D01*
X176756142Y-109176142D01*
X176613285Y-109319000D01*
X176470428Y-109390428D01*
X176184714Y-109461857D01*
X175970428Y-109461857D01*
X175684714Y-109390428D01*
X175541857Y-109319000D01*
X175399000Y-109176142D01*
X175327571Y-108961857D01*
X175327571Y-108819000D01*
X175399000Y-108604714D01*
X175470428Y-108533285D01*
X176827571Y-107104714D02*
X176827571Y-107961857D01*
X176827571Y-107533285D02*
X175327571Y-107533285D01*
X175541857Y-107676142D01*
X175684714Y-107819000D01*
X175756142Y-107961857D01*
X175827571Y-105819000D02*
X176827571Y-105819000D01*
X175256142Y-106176142D02*
X176327571Y-106533285D01*
X176327571Y-105604714D01*
%TO.C,C15*%
X179554914Y-106679085D02*
X179626342Y-106750514D01*
X179697771Y-106964800D01*
X179697771Y-107107657D01*
X179626342Y-107321942D01*
X179483485Y-107464800D01*
X179340628Y-107536228D01*
X179054914Y-107607657D01*
X178840628Y-107607657D01*
X178554914Y-107536228D01*
X178412057Y-107464800D01*
X178269200Y-107321942D01*
X178197771Y-107107657D01*
X178197771Y-106964800D01*
X178269200Y-106750514D01*
X178340628Y-106679085D01*
X179697771Y-105250514D02*
X179697771Y-106107657D01*
X179697771Y-105679085D02*
X178197771Y-105679085D01*
X178412057Y-105821942D01*
X178554914Y-105964800D01*
X178626342Y-106107657D01*
X178197771Y-103893371D02*
X178197771Y-104607657D01*
X178912057Y-104679085D01*
X178840628Y-104607657D01*
X178769200Y-104464800D01*
X178769200Y-104107657D01*
X178840628Y-103964800D01*
X178912057Y-103893371D01*
X179054914Y-103821942D01*
X179412057Y-103821942D01*
X179554914Y-103893371D01*
X179626342Y-103964800D01*
X179697771Y-104107657D01*
X179697771Y-104464800D01*
X179626342Y-104607657D01*
X179554914Y-104679085D01*
%TO.C,C16*%
X130165714Y-137755714D02*
X130094285Y-137827142D01*
X129880000Y-137898571D01*
X129737142Y-137898571D01*
X129522857Y-137827142D01*
X129380000Y-137684285D01*
X129308571Y-137541428D01*
X129237142Y-137255714D01*
X129237142Y-137041428D01*
X129308571Y-136755714D01*
X129380000Y-136612857D01*
X129522857Y-136470000D01*
X129737142Y-136398571D01*
X129880000Y-136398571D01*
X130094285Y-136470000D01*
X130165714Y-136541428D01*
X131594285Y-137898571D02*
X130737142Y-137898571D01*
X131165714Y-137898571D02*
X131165714Y-136398571D01*
X131022857Y-136612857D01*
X130880000Y-136755714D01*
X130737142Y-136827142D01*
X132880000Y-136398571D02*
X132594285Y-136398571D01*
X132451428Y-136470000D01*
X132380000Y-136541428D01*
X132237142Y-136755714D01*
X132165714Y-137041428D01*
X132165714Y-137612857D01*
X132237142Y-137755714D01*
X132308571Y-137827142D01*
X132451428Y-137898571D01*
X132737142Y-137898571D01*
X132880000Y-137827142D01*
X132951428Y-137755714D01*
X133022857Y-137612857D01*
X133022857Y-137255714D01*
X132951428Y-137112857D01*
X132880000Y-137041428D01*
X132737142Y-136970000D01*
X132451428Y-136970000D01*
X132308571Y-137041428D01*
X132237142Y-137112857D01*
X132165714Y-137255714D01*
%TO.C,CA1*%
X88767142Y-93305714D02*
X88695714Y-93377142D01*
X88481428Y-93448571D01*
X88338571Y-93448571D01*
X88124285Y-93377142D01*
X87981428Y-93234285D01*
X87910000Y-93091428D01*
X87838571Y-92805714D01*
X87838571Y-92591428D01*
X87910000Y-92305714D01*
X87981428Y-92162857D01*
X88124285Y-92020000D01*
X88338571Y-91948571D01*
X88481428Y-91948571D01*
X88695714Y-92020000D01*
X88767142Y-92091428D01*
X89338571Y-93020000D02*
X90052857Y-93020000D01*
X89195714Y-93448571D02*
X89695714Y-91948571D01*
X90195714Y-93448571D01*
X91481428Y-93448571D02*
X90624285Y-93448571D01*
X91052857Y-93448571D02*
X91052857Y-91948571D01*
X90910000Y-92162857D01*
X90767142Y-92305714D01*
X90624285Y-92377142D01*
%TO.C,DT1*%
X99238571Y-87228571D02*
X97738571Y-87228571D01*
X97738571Y-86871428D01*
X97810000Y-86657142D01*
X97952857Y-86514285D01*
X98095714Y-86442857D01*
X98381428Y-86371428D01*
X98595714Y-86371428D01*
X98881428Y-86442857D01*
X99024285Y-86514285D01*
X99167142Y-86657142D01*
X99238571Y-86871428D01*
X99238571Y-87228571D01*
X97738571Y-85942857D02*
X97738571Y-85085714D01*
X99238571Y-85514285D02*
X97738571Y-85514285D01*
X99238571Y-83800000D02*
X99238571Y-84657142D01*
X99238571Y-84228571D02*
X97738571Y-84228571D01*
X97952857Y-84371428D01*
X98095714Y-84514285D01*
X98167142Y-84657142D01*
%TO.C,IR1*%
X184995714Y-91408571D02*
X184995714Y-89908571D01*
X186567142Y-91408571D02*
X186067142Y-90694285D01*
X185710000Y-91408571D02*
X185710000Y-89908571D01*
X186281428Y-89908571D01*
X186424285Y-89980000D01*
X186495714Y-90051428D01*
X186567142Y-90194285D01*
X186567142Y-90408571D01*
X186495714Y-90551428D01*
X186424285Y-90622857D01*
X186281428Y-90694285D01*
X185710000Y-90694285D01*
X187995714Y-91408571D02*
X187138571Y-91408571D01*
X187567142Y-91408571D02*
X187567142Y-89908571D01*
X187424285Y-90122857D01*
X187281428Y-90265714D01*
X187138571Y-90337142D01*
%TO.C,LIPO_3S1*%
X101518571Y-70252857D02*
X101518571Y-70967142D01*
X100018571Y-70967142D01*
X101518571Y-69752857D02*
X100018571Y-69752857D01*
X101518571Y-69038571D02*
X100018571Y-69038571D01*
X100018571Y-68467142D01*
X100090000Y-68324285D01*
X100161428Y-68252857D01*
X100304285Y-68181428D01*
X100518571Y-68181428D01*
X100661428Y-68252857D01*
X100732857Y-68324285D01*
X100804285Y-68467142D01*
X100804285Y-69038571D01*
X100018571Y-67252857D02*
X100018571Y-66967142D01*
X100090000Y-66824285D01*
X100232857Y-66681428D01*
X100518571Y-66610000D01*
X101018571Y-66610000D01*
X101304285Y-66681428D01*
X101447142Y-66824285D01*
X101518571Y-66967142D01*
X101518571Y-67252857D01*
X101447142Y-67395714D01*
X101304285Y-67538571D01*
X101018571Y-67610000D01*
X100518571Y-67610000D01*
X100232857Y-67538571D01*
X100090000Y-67395714D01*
X100018571Y-67252857D01*
X101661428Y-66324285D02*
X101661428Y-65181428D01*
X100018571Y-64967142D02*
X100018571Y-64038571D01*
X100590000Y-64538571D01*
X100590000Y-64324285D01*
X100661428Y-64181428D01*
X100732857Y-64110000D01*
X100875714Y-64038571D01*
X101232857Y-64038571D01*
X101375714Y-64110000D01*
X101447142Y-64181428D01*
X101518571Y-64324285D01*
X101518571Y-64752857D01*
X101447142Y-64895714D01*
X101375714Y-64967142D01*
X101447142Y-63467142D02*
X101518571Y-63252857D01*
X101518571Y-62895714D01*
X101447142Y-62752857D01*
X101375714Y-62681428D01*
X101232857Y-62610000D01*
X101090000Y-62610000D01*
X100947142Y-62681428D01*
X100875714Y-62752857D01*
X100804285Y-62895714D01*
X100732857Y-63181428D01*
X100661428Y-63324285D01*
X100590000Y-63395714D01*
X100447142Y-63467142D01*
X100304285Y-63467142D01*
X100161428Y-63395714D01*
X100090000Y-63324285D01*
X100018571Y-63181428D01*
X100018571Y-62824285D01*
X100090000Y-62610000D01*
X101518571Y-61181428D02*
X101518571Y-62038571D01*
X101518571Y-61610000D02*
X100018571Y-61610000D01*
X100232857Y-61752857D01*
X100375714Y-61895714D01*
X100447142Y-62038571D01*
%TO.C,MA1*%
X111302857Y-127758571D02*
X111302857Y-126258571D01*
X111802857Y-127330000D01*
X112302857Y-126258571D01*
X112302857Y-127758571D01*
X112945714Y-127330000D02*
X113660000Y-127330000D01*
X112802857Y-127758571D02*
X113302857Y-126258571D01*
X113802857Y-127758571D01*
X115088571Y-127758571D02*
X114231428Y-127758571D01*
X114660000Y-127758571D02*
X114660000Y-126258571D01*
X114517142Y-126472857D01*
X114374285Y-126615714D01*
X114231428Y-126687142D01*
%TO.C,MB1*%
X160395714Y-127968571D02*
X160395714Y-126468571D01*
X160895714Y-127540000D01*
X161395714Y-126468571D01*
X161395714Y-127968571D01*
X162610000Y-127182857D02*
X162824285Y-127254285D01*
X162895714Y-127325714D01*
X162967142Y-127468571D01*
X162967142Y-127682857D01*
X162895714Y-127825714D01*
X162824285Y-127897142D01*
X162681428Y-127968571D01*
X162110000Y-127968571D01*
X162110000Y-126468571D01*
X162610000Y-126468571D01*
X162752857Y-126540000D01*
X162824285Y-126611428D01*
X162895714Y-126754285D01*
X162895714Y-126897142D01*
X162824285Y-127040000D01*
X162752857Y-127111428D01*
X162610000Y-127182857D01*
X162110000Y-127182857D01*
X164395714Y-127968571D02*
X163538571Y-127968571D01*
X163967142Y-127968571D02*
X163967142Y-126468571D01*
X163824285Y-126682857D01*
X163681428Y-126825714D01*
X163538571Y-126897142D01*
%TO.C,R1*%
X149070000Y-134188571D02*
X148570000Y-133474285D01*
X148212857Y-134188571D02*
X148212857Y-132688571D01*
X148784285Y-132688571D01*
X148927142Y-132760000D01*
X148998571Y-132831428D01*
X149070000Y-132974285D01*
X149070000Y-133188571D01*
X148998571Y-133331428D01*
X148927142Y-133402857D01*
X148784285Y-133474285D01*
X148212857Y-133474285D01*
X150498571Y-134188571D02*
X149641428Y-134188571D01*
X150070000Y-134188571D02*
X150070000Y-132688571D01*
X149927142Y-132902857D01*
X149784285Y-133045714D01*
X149641428Y-133117142D01*
%TO.C,R2*%
X112860000Y-134118571D02*
X112360000Y-133404285D01*
X112002857Y-134118571D02*
X112002857Y-132618571D01*
X112574285Y-132618571D01*
X112717142Y-132690000D01*
X112788571Y-132761428D01*
X112860000Y-132904285D01*
X112860000Y-133118571D01*
X112788571Y-133261428D01*
X112717142Y-133332857D01*
X112574285Y-133404285D01*
X112002857Y-133404285D01*
X113431428Y-132761428D02*
X113502857Y-132690000D01*
X113645714Y-132618571D01*
X114002857Y-132618571D01*
X114145714Y-132690000D01*
X114217142Y-132761428D01*
X114288571Y-132904285D01*
X114288571Y-133047142D01*
X114217142Y-133261428D01*
X113360000Y-134118571D01*
X114288571Y-134118571D01*
%TO.C,R3*%
X167399771Y-67370300D02*
X166685485Y-67870300D01*
X167399771Y-68227442D02*
X165899771Y-68227442D01*
X165899771Y-67656014D01*
X165971200Y-67513157D01*
X166042628Y-67441728D01*
X166185485Y-67370300D01*
X166399771Y-67370300D01*
X166542628Y-67441728D01*
X166614057Y-67513157D01*
X166685485Y-67656014D01*
X166685485Y-68227442D01*
X165899771Y-66870300D02*
X165899771Y-65941728D01*
X166471200Y-66441728D01*
X166471200Y-66227442D01*
X166542628Y-66084585D01*
X166614057Y-66013157D01*
X166756914Y-65941728D01*
X167114057Y-65941728D01*
X167256914Y-66013157D01*
X167328342Y-66084585D01*
X167399771Y-66227442D01*
X167399771Y-66656014D01*
X167328342Y-66798871D01*
X167256914Y-66870300D01*
%TO.C,R4*%
X167412771Y-63451000D02*
X166698485Y-63951000D01*
X167412771Y-64308142D02*
X165912771Y-64308142D01*
X165912771Y-63736714D01*
X165984200Y-63593857D01*
X166055628Y-63522428D01*
X166198485Y-63451000D01*
X166412771Y-63451000D01*
X166555628Y-63522428D01*
X166627057Y-63593857D01*
X166698485Y-63736714D01*
X166698485Y-64308142D01*
X166412771Y-62165285D02*
X167412771Y-62165285D01*
X165841342Y-62522428D02*
X166912771Y-62879571D01*
X166912771Y-61951000D01*
%TO.C,R5*%
X131020000Y-134178571D02*
X130520000Y-133464285D01*
X130162857Y-134178571D02*
X130162857Y-132678571D01*
X130734285Y-132678571D01*
X130877142Y-132750000D01*
X130948571Y-132821428D01*
X131020000Y-132964285D01*
X131020000Y-133178571D01*
X130948571Y-133321428D01*
X130877142Y-133392857D01*
X130734285Y-133464285D01*
X130162857Y-133464285D01*
X132377142Y-132678571D02*
X131662857Y-132678571D01*
X131591428Y-133392857D01*
X131662857Y-133321428D01*
X131805714Y-133250000D01*
X132162857Y-133250000D01*
X132305714Y-133321428D01*
X132377142Y-133392857D01*
X132448571Y-133535714D01*
X132448571Y-133892857D01*
X132377142Y-134035714D01*
X132305714Y-134107142D01*
X132162857Y-134178571D01*
X131805714Y-134178571D01*
X131662857Y-134107142D01*
X131591428Y-134035714D01*
%TO.C,RV-3.3V1*%
X99190000Y-91298571D02*
X98690000Y-90584285D01*
X98332857Y-91298571D02*
X98332857Y-89798571D01*
X98904285Y-89798571D01*
X99047142Y-89870000D01*
X99118571Y-89941428D01*
X99190000Y-90084285D01*
X99190000Y-90298571D01*
X99118571Y-90441428D01*
X99047142Y-90512857D01*
X98904285Y-90584285D01*
X98332857Y-90584285D01*
X99618571Y-89798571D02*
X100118571Y-91298571D01*
X100618571Y-89798571D01*
X101118571Y-90727142D02*
X102261428Y-90727142D01*
X102832857Y-89798571D02*
X103761428Y-89798571D01*
X103261428Y-90370000D01*
X103475714Y-90370000D01*
X103618571Y-90441428D01*
X103690000Y-90512857D01*
X103761428Y-90655714D01*
X103761428Y-91012857D01*
X103690000Y-91155714D01*
X103618571Y-91227142D01*
X103475714Y-91298571D01*
X103047142Y-91298571D01*
X102904285Y-91227142D01*
X102832857Y-91155714D01*
X104404285Y-91155714D02*
X104475714Y-91227142D01*
X104404285Y-91298571D01*
X104332857Y-91227142D01*
X104404285Y-91155714D01*
X104404285Y-91298571D01*
X104975714Y-89798571D02*
X105904285Y-89798571D01*
X105404285Y-90370000D01*
X105618571Y-90370000D01*
X105761428Y-90441428D01*
X105832857Y-90512857D01*
X105904285Y-90655714D01*
X105904285Y-91012857D01*
X105832857Y-91155714D01*
X105761428Y-91227142D01*
X105618571Y-91298571D01*
X105190000Y-91298571D01*
X105047142Y-91227142D01*
X104975714Y-91155714D01*
X106332857Y-89798571D02*
X106832857Y-91298571D01*
X107332857Y-89798571D01*
X108618571Y-91298571D02*
X107761428Y-91298571D01*
X108190000Y-91298571D02*
X108190000Y-89798571D01*
X108047142Y-90012857D01*
X107904285Y-90155714D01*
X107761428Y-90227142D01*
%TO.C,S1*%
X136557142Y-61777142D02*
X136771428Y-61848571D01*
X137128571Y-61848571D01*
X137271428Y-61777142D01*
X137342857Y-61705714D01*
X137414285Y-61562857D01*
X137414285Y-61420000D01*
X137342857Y-61277142D01*
X137271428Y-61205714D01*
X137128571Y-61134285D01*
X136842857Y-61062857D01*
X136700000Y-60991428D01*
X136628571Y-60920000D01*
X136557142Y-60777142D01*
X136557142Y-60634285D01*
X136628571Y-60491428D01*
X136700000Y-60420000D01*
X136842857Y-60348571D01*
X137200000Y-60348571D01*
X137414285Y-60420000D01*
X138842857Y-61848571D02*
X137985714Y-61848571D01*
X138414285Y-61848571D02*
X138414285Y-60348571D01*
X138271428Y-60562857D01*
X138128571Y-60705714D01*
X137985714Y-60777142D01*
%TO.C,ST-LINKV2*%
X173707142Y-71425714D02*
X173778571Y-71211428D01*
X173778571Y-70854285D01*
X173707142Y-70711428D01*
X173635714Y-70640000D01*
X173492857Y-70568571D01*
X173350000Y-70568571D01*
X173207142Y-70640000D01*
X173135714Y-70711428D01*
X173064285Y-70854285D01*
X172992857Y-71140000D01*
X172921428Y-71282857D01*
X172850000Y-71354285D01*
X172707142Y-71425714D01*
X172564285Y-71425714D01*
X172421428Y-71354285D01*
X172350000Y-71282857D01*
X172278571Y-71140000D01*
X172278571Y-70782857D01*
X172350000Y-70568571D01*
X172278571Y-70140000D02*
X172278571Y-69282857D01*
X173778571Y-69711428D02*
X172278571Y-69711428D01*
X173207142Y-68782857D02*
X173207142Y-67640000D01*
X173778571Y-66211428D02*
X173778571Y-66925714D01*
X172278571Y-66925714D01*
X173778571Y-65711428D02*
X172278571Y-65711428D01*
X173778571Y-64997142D02*
X172278571Y-64997142D01*
X173778571Y-64140000D01*
X172278571Y-64140000D01*
X173778571Y-63425714D02*
X172278571Y-63425714D01*
X173778571Y-62568571D02*
X172921428Y-63211428D01*
X172278571Y-62568571D02*
X173135714Y-63425714D01*
X172278571Y-62140000D02*
X173778571Y-61640000D01*
X172278571Y-61140000D01*
X172421428Y-60711428D02*
X172350000Y-60640000D01*
X172278571Y-60497142D01*
X172278571Y-60140000D01*
X172350000Y-59997142D01*
X172421428Y-59925714D01*
X172564285Y-59854285D01*
X172707142Y-59854285D01*
X172921428Y-59925714D01*
X173778571Y-60782857D01*
X173778571Y-59854285D01*
%TO.C,Y1*%
X161625714Y-92284285D02*
X161625714Y-92998571D01*
X161125714Y-91498571D02*
X161625714Y-92284285D01*
X162125714Y-91498571D01*
X163411428Y-92998571D02*
X162554285Y-92998571D01*
X162982857Y-92998571D02*
X162982857Y-91498571D01*
X162840000Y-91712857D01*
X162697142Y-91855714D01*
X162554285Y-91927142D01*
%TO.C,Z1*%
X171251714Y-105071171D02*
X172251714Y-105071171D01*
X171251714Y-106571171D01*
X172251714Y-106571171D01*
X173608857Y-106571171D02*
X172751714Y-106571171D01*
X173180285Y-106571171D02*
X173180285Y-105071171D01*
X173037428Y-105285457D01*
X172894571Y-105428314D01*
X172751714Y-105499742D01*
%TD*%
M02*
