%TF.GenerationSoftware,KiCad,Pcbnew,(5.1.6)-1*%
%TF.CreationDate,2020-09-14T15:10:24-05:00*%
%TF.ProjectId,Follower_Line_PCB_IM,466f6c6c-6f77-4657-925f-4c696e655f50,Iron Makers*%
%TF.SameCoordinates,Original*%
%TF.FileFunction,Copper,L1,Top*%
%TF.FilePolarity,Positive*%
%FSLAX46Y46*%
G04 Gerber Fmt 4.6, Leading zero omitted, Abs format (unit mm)*
G04 Created by KiCad (PCBNEW (5.1.6)-1) date 2020-09-14 15:10:24*
%MOMM*%
%LPD*%
G01*
G04 APERTURE LIST*
%TA.AperFunction,EtchedComponent*%
%ADD10C,0.010000*%
%TD*%
%TA.AperFunction,SMDPad,CuDef*%
%ADD11R,2.108200X1.397000*%
%TD*%
%TA.AperFunction,SMDPad,CuDef*%
%ADD12R,1.350000X0.650000*%
%TD*%
%TA.AperFunction,SMDPad,CuDef*%
%ADD13R,1.200000X0.299999*%
%TD*%
%TA.AperFunction,SMDPad,CuDef*%
%ADD14R,0.299999X1.200000*%
%TD*%
%TA.AperFunction,ComponentPad*%
%ADD15C,2.200000*%
%TD*%
%TA.AperFunction,ComponentPad*%
%ADD16R,1.700000X1.700000*%
%TD*%
%TA.AperFunction,ComponentPad*%
%ADD17O,1.700000X1.700000*%
%TD*%
%TA.AperFunction,SMDPad,CuDef*%
%ADD18R,0.655600X0.800000*%
%TD*%
%TA.AperFunction,SMDPad,CuDef*%
%ADD19R,1.752600X1.219200*%
%TD*%
%TA.AperFunction,SMDPad,CuDef*%
%ADD20R,0.800000X0.655600*%
%TD*%
%TA.AperFunction,ComponentPad*%
%ADD21C,1.590000*%
%TD*%
%TA.AperFunction,ComponentPad*%
%ADD22R,1.590000X1.590000*%
%TD*%
%TA.AperFunction,SMDPad,CuDef*%
%ADD23R,0.711200X0.889000*%
%TD*%
%TA.AperFunction,SMDPad,CuDef*%
%ADD24R,0.889000X0.711200*%
%TD*%
%TA.AperFunction,SMDPad,CuDef*%
%ADD25R,10.464800X10.871200*%
%TD*%
%TA.AperFunction,SMDPad,CuDef*%
%ADD26R,1.016000X2.692400*%
%TD*%
%TA.AperFunction,SMDPad,CuDef*%
%ADD27R,5.500000X2.000000*%
%TD*%
%TA.AperFunction,SMDPad,CuDef*%
%ADD28R,0.558800X1.320800*%
%TD*%
%TA.AperFunction,ViaPad*%
%ADD29C,3.000000*%
%TD*%
%TA.AperFunction,ViaPad*%
%ADD30C,0.800000*%
%TD*%
%TA.AperFunction,Conductor*%
%ADD31C,0.800000*%
%TD*%
%TA.AperFunction,Conductor*%
%ADD32C,0.250000*%
%TD*%
%TA.AperFunction,Conductor*%
%ADD33C,0.600000*%
%TD*%
%TA.AperFunction,Conductor*%
%ADD34C,1.500000*%
%TD*%
G04 APERTURE END LIST*
D10*
%TO.C,DMB1*%
G36*
X190883900Y-101236700D02*
G01*
X195390600Y-101235850D01*
X195409000Y-105784150D01*
X190902300Y-105785000D01*
X190883900Y-101236700D01*
G37*
X190883900Y-101236700D02*
X195390600Y-101235850D01*
X195409000Y-105784150D01*
X190902300Y-105785000D01*
X190883900Y-101236700D01*
G36*
X192735300Y-99547600D02*
G01*
X193685300Y-99547600D01*
X193690400Y-107457200D01*
X192740400Y-107457200D01*
X192735300Y-99547600D01*
G37*
X192735300Y-99547600D02*
X193685300Y-99547600D01*
X193690400Y-107457200D01*
X192740400Y-107457200D01*
X192735300Y-99547600D01*
%TO.C,DMA1*%
G36*
X79363900Y-101146700D02*
G01*
X83870600Y-101145850D01*
X83889000Y-105694150D01*
X79382300Y-105695000D01*
X79363900Y-101146700D01*
G37*
X79363900Y-101146700D02*
X83870600Y-101145850D01*
X83889000Y-105694150D01*
X79382300Y-105695000D01*
X79363900Y-101146700D01*
G36*
X81215300Y-99457600D02*
G01*
X82165300Y-99457600D01*
X82170400Y-107367200D01*
X81220400Y-107367200D01*
X81215300Y-99457600D01*
G37*
X81215300Y-99457600D02*
X82165300Y-99457600D01*
X82170400Y-107367200D01*
X81220400Y-107367200D01*
X81215300Y-99457600D01*
%TD*%
D11*
%TO.P,RESET1,2*%
%TO.N,NRST*%
X162123200Y-135230000D03*
%TO.P,RESET1,4*%
%TO.N,GND*%
X162123200Y-139725800D03*
%TO.P,RESET1,3*%
X153030000Y-139725800D03*
%TO.P,RESET1,1*%
%TO.N,NRST*%
X153030000Y-135230000D03*
%TD*%
%TO.P,BOOT0,2*%
%TO.N,BOOT0*%
X126713200Y-135230000D03*
%TO.P,BOOT0,4*%
%TO.N,VBAT(6)*%
X126713200Y-139725800D03*
%TO.P,BOOT0,3*%
X117620000Y-139725800D03*
%TO.P,BOOT0,1*%
%TO.N,BOOT0*%
X117620000Y-135230000D03*
%TD*%
%TO.P,AM1,2*%
%TO.N,AM*%
X144453200Y-135230000D03*
%TO.P,AM1,4*%
%TO.N,VBAT(6)*%
X144453200Y-139725800D03*
%TO.P,AM1,3*%
X135360000Y-139725800D03*
%TO.P,AM1,1*%
%TO.N,AM*%
X135360000Y-135230000D03*
%TD*%
D12*
%TO.P,DMB1,12*%
%TO.N,PWM_B*%
X198165000Y-101010000D03*
%TO.P,DMB1,11*%
%TO.N,DIS_B*%
X198165000Y-102010000D03*
%TO.P,DMB1,10*%
%TO.N,Net-(DMB1-Pad10)*%
X198165000Y-103010000D03*
%TO.P,DMB1,9*%
%TO.N,Net-(DMB1-Pad9)*%
X198165000Y-104010000D03*
%TO.P,DMB1,8*%
%TO.N,Net-(DMB1-Pad8)*%
X198165000Y-105010000D03*
%TO.P,DMB1,7*%
%TO.N,Net-(DMB1-Pad7)*%
X198165000Y-106010000D03*
%TO.P,DMB1,6*%
%TO.N,GND*%
X188215000Y-106010000D03*
%TO.P,DMB1,5*%
%TO.N,Net-(DMB1-Pad5)*%
X188215000Y-105010000D03*
%TO.P,DMB1,4*%
%TO.N,VIN-12V*%
X188215000Y-104010000D03*
%TO.P,DMB1,3*%
%TO.N,Net-(DMB1-Pad3)*%
X188215000Y-103010000D03*
%TO.P,DMB1,2*%
%TO.N,VBAT(6)*%
X188215000Y-102010000D03*
%TO.P,DMB1,1*%
%TO.N,DIR_B*%
X188215000Y-101010000D03*
%TD*%
%TO.P,DMA1,12*%
%TO.N,PWM_A*%
X86645000Y-100920000D03*
%TO.P,DMA1,11*%
%TO.N,DIS_A*%
X86645000Y-101920000D03*
%TO.P,DMA1,10*%
%TO.N,Net-(DMA1-Pad10)*%
X86645000Y-102920000D03*
%TO.P,DMA1,9*%
%TO.N,Net-(DMA1-Pad9)*%
X86645000Y-103920000D03*
%TO.P,DMA1,8*%
%TO.N,Net-(DMA1-Pad8)*%
X86645000Y-104920000D03*
%TO.P,DMA1,7*%
%TO.N,Net-(DMA1-Pad7)*%
X86645000Y-105920000D03*
%TO.P,DMA1,6*%
%TO.N,GND*%
X76695000Y-105920000D03*
%TO.P,DMA1,5*%
%TO.N,Net-(DMA1-Pad5)*%
X76695000Y-104920000D03*
%TO.P,DMA1,4*%
%TO.N,VIN-12V*%
X76695000Y-103920000D03*
%TO.P,DMA1,3*%
%TO.N,Net-(DMA1-Pad3)*%
X76695000Y-102920000D03*
%TO.P,DMA1,2*%
%TO.N,VBAT(6)*%
X76695000Y-101920000D03*
%TO.P,DMA1,1*%
%TO.N,DIR_A*%
X76695000Y-100920000D03*
%TD*%
D13*
%TO.P,STM32,1*%
%TO.N,Net-(STM32-Pad1)*%
X145280000Y-79590001D03*
%TO.P,STM32,2*%
%TO.N,Net-(STM32-Pad2)*%
X145280000Y-79089999D03*
%TO.P,STM32,3*%
%TO.N,Net-(STM32-Pad3)*%
X145280000Y-78590000D03*
%TO.P,STM32,4*%
%TO.N,Net-(STM32-Pad4)*%
X145280000Y-78089999D03*
%TO.P,STM32,5*%
%TO.N,Net-(STM32-Pad5)*%
X145280000Y-77590000D03*
%TO.P,STM32,6*%
%TO.N,VBAT(6)*%
X145280000Y-77090001D03*
%TO.P,STM32,7*%
%TO.N,Net-(STM32-Pad7)*%
X145280000Y-76589999D03*
%TO.P,STM32,8*%
%TO.N,Net-(STM32-Pad8)*%
X145280000Y-76090000D03*
%TO.P,STM32,9*%
%TO.N,Net-(STM32-Pad9)*%
X145280000Y-75589999D03*
%TO.P,STM32,10*%
%TO.N,GND*%
X145280000Y-75090000D03*
%TO.P,STM32,11*%
%TO.N,VBAT(6)*%
X145280000Y-74590001D03*
%TO.P,STM32,12*%
%TO.N,PH0*%
X145280000Y-74089999D03*
%TO.P,STM32,13*%
%TO.N,PH1*%
X145280000Y-73590001D03*
%TO.P,STM32,14*%
%TO.N,NRST*%
X145280000Y-73090001D03*
%TO.P,STM32,15*%
%TO.N,Net-(STM32-Pad15)*%
X145280000Y-72589999D03*
%TO.P,STM32,16*%
%TO.N,Net-(STM32-Pad16)*%
X145280000Y-72090000D03*
%TO.P,STM32,17*%
%TO.N,Net-(STM32-Pad17)*%
X145280000Y-71589999D03*
%TO.P,STM32,18*%
%TO.N,Net-(STM32-Pad18)*%
X145280000Y-71090000D03*
%TO.P,STM32,19*%
%TO.N,VBAT(6)*%
X145280000Y-70590001D03*
%TO.P,STM32,20*%
%TO.N,GND*%
X145280000Y-70089999D03*
%TO.P,STM32,21*%
%TO.N,VBAT(6)*%
X145280000Y-69590000D03*
%TO.P,STM32,22*%
X145280000Y-69089999D03*
%TO.P,STM32,23*%
%TO.N,IR*%
X145280000Y-68590000D03*
%TO.P,STM32,24*%
%TO.N,OP*%
X145280000Y-68090001D03*
%TO.P,STM32,25*%
%TO.N,Net-(STM32-Pad25)*%
X145280000Y-67589999D03*
D14*
%TO.P,STM32,26*%
%TO.N,Net-(STM32-Pad26)*%
X143530001Y-65840000D03*
%TO.P,STM32,27*%
%TO.N,GND*%
X143029999Y-65840000D03*
%TO.P,STM32,28*%
%TO.N,VBAT(6)*%
X142530000Y-65840000D03*
%TO.P,STM32,29*%
%TO.N,Net-(STM32-Pad29)*%
X142029999Y-65840000D03*
%TO.P,STM32,30*%
%TO.N,Net-(STM32-Pad30)*%
X141530000Y-65840000D03*
%TO.P,STM32,31*%
%TO.N,PWM_A*%
X141030001Y-65840000D03*
%TO.P,STM32,32*%
%TO.N,PWM_B*%
X140529999Y-65840000D03*
%TO.P,STM32,33*%
%TO.N,DIS_A*%
X140030000Y-65840000D03*
%TO.P,STM32,34*%
%TO.N,DIR_A*%
X139529999Y-65840000D03*
%TO.P,STM32,35*%
%TO.N,DIS_B*%
X139030000Y-65840000D03*
%TO.P,STM32,36*%
%TO.N,DIR_B*%
X138530001Y-65840000D03*
%TO.P,STM32,37*%
%TO.N,Net-(STM32-Pad37)*%
X138029999Y-65840000D03*
%TO.P,STM32,38*%
%TO.N,S0*%
X137529999Y-65840000D03*
%TO.P,STM32,39*%
%TO.N,S1*%
X137030001Y-65840000D03*
%TO.P,STM32,40*%
%TO.N,S3*%
X136529999Y-65840000D03*
%TO.P,STM32,41*%
%TO.N,S2*%
X136030000Y-65840000D03*
%TO.P,STM32,42*%
%TO.N,Net-(STM32-Pad42)*%
X135529999Y-65840000D03*
%TO.P,STM32,43*%
%TO.N,AM*%
X135030000Y-65840000D03*
%TO.P,STM32,44*%
%TO.N,Net-(STM32-Pad44)*%
X134530001Y-65840000D03*
%TO.P,STM32,45*%
%TO.N,RDY*%
X134029999Y-65840000D03*
%TO.P,STM32,46*%
%TO.N,GO*%
X133530000Y-65840000D03*
%TO.P,STM32,47*%
%TO.N,Net-(STM32-Pad47)*%
X133029999Y-65840000D03*
%TO.P,STM32,48*%
%TO.N,Net-(STM32-Pad48)*%
X132530000Y-65840000D03*
%TO.P,STM32,49*%
%TO.N,VCAP_1*%
X132030001Y-65840000D03*
%TO.P,STM32,50*%
%TO.N,VBAT(6)*%
X131529999Y-65840000D03*
D13*
%TO.P,STM32,51*%
%TO.N,Net-(STM32-Pad51)*%
X129780000Y-67589999D03*
%TO.P,STM32,52*%
%TO.N,Net-(STM32-Pad52)*%
X129780000Y-68090001D03*
%TO.P,STM32,53*%
%TO.N,Net-(STM32-Pad53)*%
X129780000Y-68590000D03*
%TO.P,STM32,54*%
%TO.N,Net-(STM32-Pad54)*%
X129780000Y-69089999D03*
%TO.P,STM32,55*%
%TO.N,Net-(STM32-Pad55)*%
X129780000Y-69590000D03*
%TO.P,STM32,56*%
%TO.N,Net-(STM32-Pad56)*%
X129780000Y-70089999D03*
%TO.P,STM32,57*%
%TO.N,Net-(STM32-Pad57)*%
X129780000Y-70590001D03*
%TO.P,STM32,58*%
%TO.N,Net-(STM32-Pad58)*%
X129780000Y-71090000D03*
%TO.P,STM32,59*%
%TO.N,PWM_ESC*%
X129780000Y-71589999D03*
%TO.P,STM32,60*%
%TO.N,Net-(STM32-Pad60)*%
X129780000Y-72090000D03*
%TO.P,STM32,61*%
%TO.N,Net-(STM32-Pad61)*%
X129780000Y-72589999D03*
%TO.P,STM32,62*%
%TO.N,Net-(STM32-Pad62)*%
X129780000Y-73090001D03*
%TO.P,STM32,63*%
%TO.N,Net-(STM32-Pad63)*%
X129780000Y-73590001D03*
%TO.P,STM32,64*%
%TO.N,Net-(STM32-Pad64)*%
X129780000Y-74089999D03*
%TO.P,STM32,65*%
%TO.N,Net-(STM32-Pad65)*%
X129780000Y-74590001D03*
%TO.P,STM32,66*%
%TO.N,Net-(STM32-Pad66)*%
X129780000Y-75090000D03*
%TO.P,STM32,67*%
%TO.N,Net-(STM32-Pad67)*%
X129780000Y-75589999D03*
%TO.P,STM32,68*%
%TO.N,Net-(STM32-Pad68)*%
X129780000Y-76090000D03*
%TO.P,STM32,69*%
%TO.N,Net-(STM32-Pad69)*%
X129780000Y-76589999D03*
%TO.P,STM32,70*%
%TO.N,Net-(STM32-Pad70)*%
X129780000Y-77090001D03*
%TO.P,STM32,71*%
%TO.N,Net-(STM32-Pad71)*%
X129780000Y-77590000D03*
%TO.P,STM32,72*%
%TO.N,SWDIO*%
X129780000Y-78089999D03*
%TO.P,STM32,73*%
%TO.N,VCAP_2*%
X129780000Y-78590000D03*
%TO.P,STM32,74*%
%TO.N,GND*%
X129780000Y-79089999D03*
%TO.P,STM32,75*%
%TO.N,VBAT(6)*%
X129780000Y-79590001D03*
D14*
%TO.P,STM32,76*%
%TO.N,SWCLK*%
X131529999Y-81340000D03*
%TO.P,STM32,77*%
%TO.N,Net-(STM32-Pad77)*%
X132030001Y-81340000D03*
%TO.P,STM32,78*%
%TO.N,Net-(STM32-Pad78)*%
X132530000Y-81340000D03*
%TO.P,STM32,79*%
%TO.N,Net-(STM32-Pad79)*%
X133029999Y-81340000D03*
%TO.P,STM32,80*%
%TO.N,Net-(STM32-Pad80)*%
X133530000Y-81340000D03*
%TO.P,STM32,81*%
%TO.N,Net-(STM32-Pad81)*%
X134029999Y-81340000D03*
%TO.P,STM32,82*%
%TO.N,Net-(STM32-Pad82)*%
X134530001Y-81340000D03*
%TO.P,STM32,83*%
%TO.N,Net-(STM32-Pad83)*%
X135030000Y-81340000D03*
%TO.P,STM32,84*%
%TO.N,Net-(STM32-Pad84)*%
X135529999Y-81340000D03*
%TO.P,STM32,85*%
%TO.N,Net-(STM32-Pad85)*%
X136030000Y-81340000D03*
%TO.P,STM32,86*%
%TO.N,Net-(STM32-Pad86)*%
X136529999Y-81340000D03*
%TO.P,STM32,87*%
%TO.N,Net-(STM32-Pad87)*%
X137030001Y-81340000D03*
%TO.P,STM32,88*%
%TO.N,Net-(STM32-Pad88)*%
X137529999Y-81340000D03*
%TO.P,STM32,89*%
%TO.N,Net-(STM32-Pad89)*%
X138029999Y-81340000D03*
%TO.P,STM32,90*%
%TO.N,Net-(STM32-Pad90)*%
X138530001Y-81340000D03*
%TO.P,STM32,91*%
%TO.N,Net-(STM32-Pad91)*%
X139030000Y-81340000D03*
%TO.P,STM32,92*%
%TO.N,Net-(STM32-Pad92)*%
X139529999Y-81340000D03*
%TO.P,STM32,93*%
%TO.N,Net-(STM32-Pad93)*%
X140030000Y-81340000D03*
%TO.P,STM32,94*%
%TO.N,BOOT0*%
X140529999Y-81340000D03*
%TO.P,STM32,95*%
%TO.N,Net-(STM32-Pad95)*%
X141030001Y-81340000D03*
%TO.P,STM32,96*%
%TO.N,Net-(STM32-Pad96)*%
X141530000Y-81340000D03*
%TO.P,STM32,97*%
%TO.N,Net-(STM32-Pad97)*%
X142029999Y-81340000D03*
%TO.P,STM32,98*%
%TO.N,Net-(STM32-Pad98)*%
X142530000Y-81340000D03*
%TO.P,STM32,99*%
%TO.N,GND*%
X143029999Y-81340000D03*
%TO.P,STM32,100*%
%TO.N,VBAT(6)*%
X143530001Y-81340000D03*
%TD*%
D15*
%TO.P,     ,1*%
%TO.N,N/C*%
X195657000Y-131499600D03*
%TO.P,     ,2*%
X195657000Y-113440200D03*
%TD*%
%TO.P,     ,2*%
%TO.N,N/C*%
X79093000Y-131419800D03*
%TO.P,     ,1*%
X79093000Y-113360400D03*
%TD*%
D16*
%TO.P,ADT1,1*%
%TO.N,VT-12V*%
X95030000Y-78060000D03*
D17*
%TO.P,ADT1,2*%
%TO.N,GND*%
X95030000Y-75520000D03*
%TD*%
D18*
%TO.P,C1,1*%
%TO.N,NRST*%
X148392200Y-139090000D03*
%TO.P,C1,2*%
%TO.N,GND*%
X150047800Y-139090000D03*
%TD*%
%TO.P,C2,2*%
%TO.N,GND*%
X113957800Y-139080000D03*
%TO.P,C2,1*%
%TO.N,VBAT(6)*%
X112302200Y-139080000D03*
%TD*%
%TO.P,C3,2*%
%TO.N,GND*%
X159300000Y-100920000D03*
%TO.P,C3,1*%
%TO.N,PH1*%
X157644400Y-100920000D03*
%TD*%
%TO.P,C4,1*%
%TO.N,PH0*%
X167147800Y-100930000D03*
%TO.P,C4,2*%
%TO.N,GND*%
X165492200Y-100930000D03*
%TD*%
%TO.P,C5,2*%
%TO.N,GND*%
X168985200Y-82343800D03*
%TO.P,C5,1*%
%TO.N,VCAP_1*%
X167329600Y-82343800D03*
%TD*%
%TO.P,C6,1*%
%TO.N,VCAP_2*%
X167342800Y-78110800D03*
%TO.P,C6,2*%
%TO.N,GND*%
X168998400Y-78110800D03*
%TD*%
D19*
%TO.P,C7,2*%
%TO.N,GND*%
X95470000Y-107112400D03*
%TO.P,C7,1*%
%TO.N,VIN-7.4V*%
X95470000Y-104267600D03*
%TD*%
%TO.P,C8,1*%
%TO.N,VBAT(6)*%
X110740000Y-104550000D03*
%TO.P,C8,2*%
%TO.N,GND*%
X110740000Y-107394800D03*
%TD*%
D18*
%TO.P,C9,1*%
%TO.N,VBAT(6)*%
X112612200Y-100560000D03*
%TO.P,C9,2*%
%TO.N,GND*%
X114267800Y-100560000D03*
%TD*%
%TO.P,C10,2*%
%TO.N,GND*%
X114267800Y-98270000D03*
%TO.P,C10,1*%
%TO.N,VBAT(6)*%
X112612200Y-98270000D03*
%TD*%
%TO.P,C11,1*%
%TO.N,VBAT(6)*%
X112612200Y-96080000D03*
%TO.P,C11,2*%
%TO.N,GND*%
X114267800Y-96080000D03*
%TD*%
%TO.P,C12,2*%
%TO.N,GND*%
X114267800Y-93860000D03*
%TO.P,C12,1*%
%TO.N,VBAT(6)*%
X112612200Y-93860000D03*
%TD*%
%TO.P,C13,1*%
%TO.N,VBAT(6)*%
X112610000Y-91840000D03*
%TO.P,C13,2*%
%TO.N,GND*%
X114265600Y-91840000D03*
%TD*%
D19*
%TO.P,C14,2*%
%TO.N,GND*%
X176250000Y-103900000D03*
%TO.P,C14,1*%
%TO.N,VIN-12V*%
X176250000Y-101055200D03*
%TD*%
D20*
%TO.P,C15,2*%
%TO.N,GND*%
X178950000Y-102347800D03*
%TO.P,C15,1*%
%TO.N,VIN-12V*%
X178950000Y-100692200D03*
%TD*%
D18*
%TO.P,C16,2*%
%TO.N,GND*%
X132040000Y-139110000D03*
%TO.P,C16,1*%
%TO.N,VBAT(6)*%
X130384400Y-139110000D03*
%TD*%
D16*
%TO.P,CA1,1*%
%TO.N,VBAT(6)*%
X85170000Y-92550000D03*
D17*
%TO.P,CA1,2*%
%TO.N,GND*%
X82630000Y-92550000D03*
%TO.P,CA1,3*%
%TO.N,GO*%
X80090000Y-92550000D03*
%TO.P,CA1,4*%
%TO.N,RDY*%
X77550000Y-92550000D03*
%TD*%
%TO.P,DT1,3*%
%TO.N,GND*%
X94990000Y-82920000D03*
%TO.P,DT1,2*%
%TO.N,VT-12V*%
X94990000Y-85460000D03*
D16*
%TO.P,DT1,1*%
%TO.N,PWM_ESC*%
X94990000Y-88000000D03*
%TD*%
D17*
%TO.P,IR1,3*%
%TO.N,IR*%
X190540000Y-90900000D03*
%TO.P,IR1,2*%
%TO.N,VBAT(6)*%
X193080000Y-90900000D03*
D16*
%TO.P,IR1,1*%
%TO.N,GND*%
X195620000Y-90900000D03*
%TD*%
D21*
%TO.P,LIPO_3S1,4*%
%TO.N,GND*%
X95620000Y-62480000D03*
%TO.P,LIPO_3S1,3*%
%TO.N,VIN-3.7V*%
X95620000Y-64980000D03*
%TO.P,LIPO_3S1,2*%
%TO.N,VIN-7.4V*%
X95620000Y-67480000D03*
D22*
%TO.P,LIPO_3S1,1*%
%TO.N,VIN-12V*%
X95620000Y-69980000D03*
%TD*%
D17*
%TO.P,MA1,2*%
%TO.N,Net-(DMA1-Pad7)*%
X112930000Y-123890000D03*
D16*
%TO.P,MA1,1*%
%TO.N,Net-(DMA1-Pad5)*%
X112930000Y-121350000D03*
%TD*%
%TO.P,MB1,1*%
%TO.N,Net-(DMB1-Pad5)*%
X162220000Y-121520000D03*
D17*
%TO.P,MB1,2*%
%TO.N,Net-(DMB1-Pad7)*%
X162220000Y-124060000D03*
%TD*%
D23*
%TO.P,R1,1*%
%TO.N,VBAT(6)*%
X148533000Y-135230000D03*
%TO.P,R1,2*%
%TO.N,NRST*%
X149930000Y-135230000D03*
%TD*%
%TO.P,R2,1*%
%TO.N,BOOT0*%
X112461500Y-135220000D03*
%TO.P,R2,2*%
%TO.N,GND*%
X113858500Y-135220000D03*
%TD*%
D24*
%TO.P,R3,2*%
%TO.N,GND*%
X168550000Y-67958500D03*
%TO.P,R3,1*%
%TO.N,SWDIO*%
X168550000Y-66561500D03*
%TD*%
%TO.P,R4,2*%
%TO.N,GND*%
X168572400Y-63916600D03*
%TO.P,R4,1*%
%TO.N,SWCLK*%
X168572400Y-62519600D03*
%TD*%
D23*
%TO.P,R5,2*%
%TO.N,GND*%
X131950000Y-135230000D03*
%TO.P,R5,1*%
%TO.N,AM*%
X130553000Y-135230000D03*
%TD*%
D25*
%TO.P,RV-3.3V1,4*%
%TO.N,N/C*%
X103180000Y-98020000D03*
D26*
%TO.P,RV-3.3V1,3*%
%TO.N,VIN-7.4V*%
X105720000Y-106300400D03*
%TO.P,RV-3.3V1,2*%
%TO.N,VBAT(6)*%
X103180000Y-106300400D03*
%TO.P,RV-3.3V1,1*%
%TO.N,GND*%
X100640000Y-106300400D03*
%TD*%
D17*
%TO.P,S1,7*%
%TO.N,S2*%
X145170000Y-56930000D03*
%TO.P,S1,6*%
%TO.N,S3*%
X142630000Y-56930000D03*
%TO.P,S1,5*%
%TO.N,VBAT(6)*%
X140090000Y-56930000D03*
%TO.P,S1,4*%
%TO.N,OP*%
X137550000Y-56930000D03*
%TO.P,S1,3*%
%TO.N,GND*%
X135010000Y-56930000D03*
%TO.P,S1,2*%
%TO.N,S1*%
X132470000Y-56930000D03*
D16*
%TO.P,S1,1*%
%TO.N,S0*%
X129930000Y-56930000D03*
%TD*%
%TO.P,ST-LINKV2,1*%
%TO.N,SWCLK*%
X176600000Y-61980000D03*
D17*
%TO.P,ST-LINKV2,2*%
%TO.N,SWDIO*%
X176600000Y-64520000D03*
%TO.P,ST-LINKV2,3*%
%TO.N,GND*%
X176600000Y-67060000D03*
%TO.P,ST-LINKV2,4*%
%TO.N,VBAT(6)*%
X176600000Y-69600000D03*
%TD*%
D27*
%TO.P,Y1,2*%
%TO.N,PH0*%
X167140000Y-96330000D03*
%TO.P,Y1,1*%
%TO.N,PH1*%
X157640000Y-96330000D03*
%TD*%
D28*
%TO.P,Z1,3*%
%TO.N,VIN-12V*%
X172310000Y-101582750D03*
%TO.P,Z1,2*%
%TO.N,Net-(Z1-Pad2)*%
X173262500Y-103375200D03*
%TO.P,Z1,1*%
%TO.N,GND*%
X171357500Y-103375200D03*
%TD*%
D29*
%TO.N,*%
X95350000Y-132810000D03*
X103600000Y-132860000D03*
X86830000Y-132800000D03*
X86640000Y-112030000D03*
X95470000Y-112070000D03*
X103620000Y-112030000D03*
X180420000Y-133040000D03*
X188620000Y-133110000D03*
X171700000Y-112140000D03*
X171890000Y-132910000D03*
X188680000Y-112140000D03*
X180530000Y-112180000D03*
X80190000Y-143880000D03*
X104700000Y-143790000D03*
X170170000Y-143830000D03*
X194680000Y-143740000D03*
X121990000Y-54690000D03*
X83230000Y-54720000D03*
X192440000Y-54930000D03*
X153680000Y-54960000D03*
X202700000Y-55140000D03*
X202710000Y-66060000D03*
X202710000Y-77300000D03*
X202720000Y-89150000D03*
X71500000Y-66090000D03*
X71490000Y-55170000D03*
X71510000Y-89180000D03*
X71500000Y-77330000D03*
D30*
%TO.N,VT-12V*%
X99060000Y-84328000D03*
X99060000Y-79502000D03*
%TO.N,GND*%
X165354000Y-114046000D03*
X167386000Y-132080000D03*
X77978000Y-110744000D03*
X98044000Y-59182000D03*
X102108000Y-72644000D03*
X92710000Y-109474000D03*
X110998000Y-111506000D03*
X132842000Y-140716000D03*
X149606000Y-141732000D03*
X117094000Y-137922000D03*
X126130000Y-84960000D03*
X126400000Y-81680000D03*
X157660000Y-88530000D03*
X163830000Y-86720000D03*
X181160000Y-82090000D03*
X181300000Y-77260000D03*
X181340000Y-109040000D03*
X187160000Y-108810000D03*
X190070000Y-106020000D03*
X166250000Y-65350000D03*
X164630000Y-62510000D03*
X168740000Y-70690000D03*
X170120000Y-68770000D03*
X142830000Y-63070000D03*
X136780000Y-59250000D03*
%TO.N,AM*%
X75692000Y-109982000D03*
X117348000Y-60198000D03*
X123444000Y-60960000D03*
X133604000Y-62992000D03*
X78830000Y-59780000D03*
X97540000Y-55640000D03*
%TO.N,VBAT(6)*%
X99822000Y-112268000D03*
X106934000Y-135890000D03*
X125730000Y-143510000D03*
X141732000Y-139700000D03*
X193080000Y-87870000D03*
X147790000Y-54580000D03*
X149910000Y-55710000D03*
X143550000Y-76200000D03*
X143390000Y-73860000D03*
X143690000Y-79820000D03*
X141810000Y-79820000D03*
X145850000Y-81500000D03*
X176680000Y-73490000D03*
%TO.N,NRST*%
X155990000Y-77110000D03*
X156120000Y-80370000D03*
X161680000Y-88100000D03*
X153200000Y-130400000D03*
%TO.N,PH1*%
X148890000Y-79900000D03*
X147020000Y-76940000D03*
%TO.N,PH0*%
X150610000Y-79490000D03*
X147530000Y-75220000D03*
%TO.N,VCAP_1*%
X167330000Y-80870000D03*
X149780000Y-77080000D03*
X151440000Y-77080000D03*
X141130000Y-73150000D03*
%TO.N,VCAP_2*%
X141600000Y-77880000D03*
X146920000Y-78480000D03*
%TO.N,VIN-7.4V*%
X91948000Y-66040000D03*
X95504000Y-94234000D03*
X98552000Y-105410000D03*
X106934000Y-109982000D03*
%TO.N,VIN-12V*%
X90932000Y-92456000D03*
X90932000Y-72898000D03*
X89662000Y-104902000D03*
X78740000Y-103632000D03*
X191560000Y-86900000D03*
X183450000Y-98240000D03*
X192530000Y-77180000D03*
X123370000Y-51600000D03*
%TO.N,GO*%
X132830000Y-67590000D03*
%TO.N,RDY*%
X94760000Y-52200000D03*
X134050000Y-67570000D03*
X90430000Y-52250000D03*
%TO.N,DIR_A*%
X78530000Y-100650000D03*
X137960000Y-68480000D03*
%TO.N,DIS_A*%
X89180000Y-101830000D03*
X131710000Y-74520000D03*
X134950000Y-74070000D03*
X138770000Y-69460000D03*
%TO.N,PWM_A*%
X89150000Y-100330000D03*
X141290000Y-67470000D03*
%TO.N,PWM_B*%
X206110000Y-94880000D03*
X189480000Y-78400000D03*
X142200000Y-68550000D03*
X149290000Y-70950000D03*
X143750000Y-68520000D03*
%TO.N,DIS_B*%
X141040000Y-70780000D03*
X177080000Y-79590000D03*
X189510000Y-79520000D03*
X203760000Y-99350000D03*
%TO.N,DIR_B*%
X141090000Y-71910000D03*
X193260000Y-98620000D03*
X177080000Y-80910000D03*
X189510000Y-80900000D03*
%TO.N,SWDIO*%
X180360000Y-64660000D03*
X183910000Y-81970000D03*
X182950000Y-86800000D03*
X175530000Y-88120000D03*
X163290000Y-83610000D03*
X138670000Y-76770000D03*
%TO.N,SWCLK*%
X180780000Y-61890000D03*
X138390000Y-87020000D03*
X163300000Y-85360000D03*
X175580000Y-90000000D03*
X185080000Y-86750000D03*
X186520000Y-82100000D03*
%TO.N,OP*%
X138740000Y-54590000D03*
X147070000Y-66500000D03*
%TD*%
D31*
%TO.N,VT-12V*%
X97928000Y-85460000D02*
X99060000Y-84328000D01*
X94990000Y-85460000D02*
X97928000Y-85460000D01*
X97618000Y-78060000D02*
X99060000Y-79502000D01*
X95030000Y-78060000D02*
X97618000Y-78060000D01*
D32*
%TO.N,GND*%
X144170000Y-75090000D02*
X144000000Y-75090000D01*
X136780000Y-59250000D02*
X135870000Y-59250000D01*
X135010000Y-58390000D02*
X135010000Y-56930000D01*
X135870000Y-59250000D02*
X135010000Y-58390000D01*
X145280000Y-70089999D02*
X166700011Y-70089999D01*
X169308500Y-67958500D02*
X170120000Y-68770000D01*
X168550000Y-67958500D02*
X169308500Y-67958500D01*
X167300012Y-70690000D02*
X166700011Y-70089999D01*
X168740000Y-70690000D02*
X167300012Y-70690000D01*
X142830000Y-63070000D02*
X143030000Y-63270000D01*
X143029999Y-64990000D02*
X143029999Y-65840000D01*
X143030000Y-63270000D02*
X143029999Y-64990000D01*
X142530000Y-78809998D02*
X142530000Y-75970000D01*
X142530000Y-75970000D02*
X143410000Y-75090000D01*
X145280000Y-75090000D02*
X144590000Y-75090000D01*
X144590000Y-75090000D02*
X144170000Y-75090000D01*
X143410000Y-75090000D02*
X143700000Y-75090000D01*
X143630000Y-75090000D02*
X143700000Y-75090000D01*
X145280000Y-70089999D02*
X143753001Y-70089999D01*
X143753001Y-70089999D02*
X143218001Y-69554999D01*
X142925001Y-69261999D02*
X143218001Y-69554999D01*
X142925001Y-68201999D02*
X142925001Y-69261999D01*
X143029999Y-68097001D02*
X142925001Y-68201999D01*
X143029999Y-65840000D02*
X143029999Y-68097001D01*
X143546998Y-75090000D02*
X144140000Y-75090000D01*
X142250000Y-73793002D02*
X143546998Y-75090000D01*
X142250000Y-71660000D02*
X142250000Y-73793002D01*
X141780000Y-71190000D02*
X142250000Y-71660000D01*
X144140000Y-75090000D02*
X144590000Y-75090000D01*
X143218001Y-69554999D02*
X142315001Y-69554999D01*
X143700000Y-75090000D02*
X144140000Y-75090000D01*
X142315001Y-69554999D02*
X141780000Y-70090000D01*
X141780000Y-70090000D02*
X141780000Y-71190000D01*
X129780000Y-79089999D02*
X142249999Y-79089999D01*
X142530000Y-78809998D02*
X142339999Y-78999999D01*
X142339999Y-78999999D02*
X142249999Y-79089999D01*
X142810000Y-80284998D02*
X142810000Y-79089998D01*
X143029999Y-81340000D02*
X143029999Y-80504997D01*
X142810000Y-79089998D02*
X142530000Y-78809998D01*
X143029999Y-80504997D02*
X142810000Y-80284998D01*
D31*
X176600000Y-67060000D02*
X172600000Y-67060000D01*
X170890000Y-68770000D02*
X170120000Y-68770000D01*
X172600000Y-67060000D02*
X170890000Y-68770000D01*
X164630000Y-62510000D02*
X164630000Y-61010000D01*
X167139000Y-65350000D02*
X168572400Y-63916600D01*
X166250000Y-65350000D02*
X167139000Y-65350000D01*
X168998400Y-82330600D02*
X168985200Y-82343800D01*
X168998400Y-78110800D02*
X168998400Y-82330600D01*
X190060000Y-106010000D02*
X190070000Y-106020000D01*
X188215000Y-106010000D02*
X190060000Y-106010000D01*
X176250000Y-103900000D02*
X178020000Y-103900000D01*
X181340000Y-107220000D02*
X181340000Y-109040000D01*
X178020000Y-103900000D02*
X181340000Y-107220000D01*
X178950000Y-102970000D02*
X178020000Y-103900000D01*
X178950000Y-102347800D02*
X178950000Y-102970000D01*
X176250000Y-103900000D02*
X175030000Y-105120000D01*
X175030000Y-105120000D02*
X171920000Y-105120000D01*
X171357500Y-104557500D02*
X171357500Y-103375200D01*
X171920000Y-105120000D02*
X171357500Y-104557500D01*
X165482200Y-100920000D02*
X165492200Y-100930000D01*
X165492200Y-100930000D02*
X165492200Y-102372200D01*
X165492200Y-102372200D02*
X171200000Y-108080000D01*
X171200000Y-108080000D02*
X174010000Y-108080000D01*
X180500000Y-109880000D02*
X181340000Y-109040000D01*
X175810000Y-109880000D02*
X180500000Y-109880000D01*
X159300000Y-100920000D02*
X159300000Y-99800000D01*
X159300000Y-99800000D02*
X160150000Y-98950000D01*
X160150000Y-98950000D02*
X164720000Y-98950000D01*
X165492200Y-99722200D02*
X165492200Y-100930000D01*
X164720000Y-98950000D02*
X165492200Y-99722200D01*
X168985200Y-82343800D02*
X168985200Y-82855200D01*
X168985200Y-82855200D02*
X171120000Y-84990000D01*
X178260000Y-84990000D02*
X181160000Y-82090000D01*
X171120000Y-84990000D02*
X178260000Y-84990000D01*
X161560000Y-98950000D02*
X160150000Y-98950000D01*
X163110000Y-97400000D02*
X161560000Y-98950000D01*
X163110000Y-94650000D02*
X163110000Y-97400000D01*
X156460000Y-89730000D02*
X156460000Y-91770000D01*
X156460000Y-91770000D02*
X158360000Y-93670000D01*
X162130000Y-93670000D02*
X163110000Y-94650000D01*
X157660000Y-88530000D02*
X156460000Y-89730000D01*
X158360000Y-93670000D02*
X162130000Y-93670000D01*
X168410000Y-57230000D02*
X166225000Y-59415000D01*
X168410000Y-54870000D02*
X168410000Y-57230000D01*
X169680000Y-53600000D02*
X168410000Y-54870000D01*
X181300000Y-69750000D02*
X182050000Y-69000000D01*
X182050000Y-69000000D02*
X182050000Y-65450000D01*
X181300000Y-77260000D02*
X181300000Y-69750000D01*
X166225000Y-59415000D02*
X166540000Y-59100000D01*
X164630000Y-61010000D02*
X166225000Y-59415000D01*
X182050000Y-65450000D02*
X185770000Y-61730000D01*
X185770000Y-61730000D02*
X185770000Y-53750000D01*
X185770000Y-53750000D02*
X184980000Y-52960000D01*
X184980000Y-52960000D02*
X170330000Y-52960000D01*
X170330000Y-52960000D02*
X169690000Y-53600000D01*
X169690000Y-53600000D02*
X169680000Y-53600000D01*
X178750000Y-67060000D02*
X176600000Y-67060000D01*
X182050000Y-69000000D02*
X181760000Y-69000000D01*
X181760000Y-69000000D02*
X179820000Y-67060000D01*
X178750000Y-67060000D02*
X178880000Y-67060000D01*
X179820000Y-67060000D02*
X178880000Y-67060000D01*
X164760000Y-87650000D02*
X165300000Y-88190000D01*
X163830000Y-86720000D02*
X164760000Y-87650000D01*
X179150000Y-85880000D02*
X178260000Y-84990000D01*
X164840000Y-87650000D02*
X169910000Y-92720000D01*
X164760000Y-87650000D02*
X164840000Y-87650000D01*
X179150000Y-88200000D02*
X179150000Y-85880000D01*
X169910000Y-92720000D02*
X174630000Y-92720000D01*
X174630000Y-92720000D02*
X179150000Y-88200000D01*
D32*
X114265600Y-91840000D02*
X114265600Y-90364400D01*
X114265600Y-90364400D02*
X117470000Y-87160000D01*
X117470000Y-87160000D02*
X121430000Y-87160000D01*
X121430000Y-87160000D02*
X123490000Y-85100000D01*
X125990000Y-85100000D02*
X126130000Y-84960000D01*
X123490000Y-85100000D02*
X125990000Y-85100000D01*
X126400000Y-81680000D02*
X125880000Y-81160000D01*
X125880000Y-81160000D02*
X125880000Y-80380000D01*
X127170001Y-79089999D02*
X129780000Y-79089999D01*
X125880000Y-80380000D02*
X127170001Y-79089999D01*
D31*
X162123200Y-139725800D02*
X162123200Y-140390800D01*
X162123200Y-140390800D02*
X160528000Y-141986000D01*
X160528000Y-141986000D02*
X153670000Y-141986000D01*
X153030000Y-141346000D02*
X153030000Y-139725800D01*
X153670000Y-141986000D02*
X153030000Y-141346000D01*
X152394200Y-139090000D02*
X153030000Y-139725800D01*
X150047800Y-139090000D02*
X152394200Y-139090000D01*
X114808000Y-136652000D02*
X113858500Y-135702500D01*
X113858500Y-135220000D02*
X113858500Y-135702500D01*
X114808000Y-136652000D02*
X114808000Y-138229800D01*
X114808000Y-138229800D02*
X113957800Y-139080000D01*
X114808000Y-138229800D02*
X115770200Y-138229800D01*
X116078000Y-137922000D02*
X117094000Y-137922000D01*
X115770200Y-138229800D02*
X116078000Y-137922000D01*
X151023800Y-141732000D02*
X153030000Y-139725800D01*
X149606000Y-141732000D02*
X151023800Y-141732000D01*
D32*
X132690000Y-135230000D02*
X131950000Y-135230000D01*
X133350000Y-135890000D02*
X132690000Y-135230000D01*
X133459501Y-135999501D02*
X133350000Y-135890000D01*
X133858000Y-135999501D02*
X133459501Y-135999501D01*
X133604000Y-139954000D02*
X133604000Y-139192000D01*
X134112000Y-138684000D02*
X134112000Y-136253501D01*
X132842000Y-140716000D02*
X133604000Y-139954000D01*
X133604000Y-139192000D02*
X134112000Y-138684000D01*
X134112000Y-136253501D02*
X133858000Y-135999501D01*
X132040000Y-139110000D02*
X132040000Y-138216000D01*
X132040000Y-138216000D02*
X132588000Y-137668000D01*
X132588000Y-137668000D02*
X133096000Y-137668000D01*
X133096000Y-137668000D02*
X134112000Y-138684000D01*
D31*
X187160000Y-108810000D02*
X188878000Y-108810000D01*
X190070000Y-107618000D02*
X190070000Y-106020000D01*
X188878000Y-108810000D02*
X190070000Y-107618000D01*
X114265600Y-93857800D02*
X114267800Y-93860000D01*
X114265600Y-91840000D02*
X114265600Y-93857800D01*
X114267800Y-93860000D02*
X114267800Y-96080000D01*
X114267800Y-96080000D02*
X114267800Y-98270000D01*
X114267800Y-98270000D02*
X114267800Y-100560000D01*
X110740000Y-107394800D02*
X113331200Y-107394800D01*
X114267800Y-106458200D02*
X114267800Y-100560000D01*
X113331200Y-107394800D02*
X114267800Y-106458200D01*
X110740000Y-107394800D02*
X109013200Y-107394800D01*
X109013200Y-107394800D02*
X108204000Y-108204000D01*
X108204000Y-108204000D02*
X108204000Y-110236000D01*
X109474000Y-111506000D02*
X110998000Y-111506000D01*
X108204000Y-110236000D02*
X109474000Y-111506000D01*
X100640000Y-106300400D02*
X100640000Y-106624000D01*
X100151600Y-107112400D02*
X95470000Y-107112400D01*
X100640000Y-106624000D02*
X100151600Y-107112400D01*
X95470000Y-107112400D02*
X93801600Y-107112400D01*
X92710000Y-108204000D02*
X92710000Y-109474000D01*
X93801600Y-107112400D02*
X92710000Y-108204000D01*
X82630000Y-92550000D02*
X82630000Y-87804000D01*
X87514000Y-82920000D02*
X94990000Y-82920000D01*
X82630000Y-87804000D02*
X87514000Y-82920000D01*
X94990000Y-82920000D02*
X96912000Y-82920000D01*
X96912000Y-82920000D02*
X97028000Y-82804000D01*
X97028000Y-82804000D02*
X99568000Y-82804000D01*
X99568000Y-82804000D02*
X102362000Y-80010000D01*
X102362000Y-80010000D02*
X102362000Y-77216000D01*
X100666000Y-75520000D02*
X95030000Y-75520000D01*
X102362000Y-77216000D02*
X100666000Y-75520000D01*
X95620000Y-61606000D02*
X98044000Y-59182000D01*
X95620000Y-62480000D02*
X95620000Y-61606000D01*
X102108000Y-72644000D02*
X101092000Y-73660000D01*
X101092000Y-75094000D02*
X100666000Y-75520000D01*
X101092000Y-73660000D02*
X101092000Y-75094000D01*
X162123200Y-139725800D02*
X162123200Y-138358800D01*
X162123200Y-138358800D02*
X163322000Y-137160000D01*
X163322000Y-137160000D02*
X164846000Y-137160000D01*
X167386000Y-134620000D02*
X167386000Y-132080000D01*
X164846000Y-137160000D02*
X167386000Y-134620000D01*
X174010000Y-108080000D02*
X175810000Y-109880000D01*
X162306000Y-104648000D02*
X164581800Y-102372200D01*
X162306000Y-106934000D02*
X162306000Y-104648000D01*
X165354000Y-114046000D02*
X165354000Y-109982000D01*
X164581800Y-102372200D02*
X165492200Y-102372200D01*
X165354000Y-109982000D02*
X162306000Y-106934000D01*
X82630000Y-92550000D02*
X82630000Y-94916000D01*
X82630000Y-94916000D02*
X81788000Y-95758000D01*
X81788000Y-95758000D02*
X74168000Y-95758000D01*
X74168000Y-95758000D02*
X69850000Y-100076000D01*
X69850000Y-102108000D02*
X71628000Y-103886000D01*
X69850000Y-100076000D02*
X69850000Y-102108000D01*
X71628000Y-103886000D02*
X73406000Y-103886000D01*
X75440000Y-105920000D02*
X76695000Y-105920000D01*
X73406000Y-103886000D02*
X75440000Y-105920000D01*
X77978000Y-109982000D02*
X77978000Y-110744000D01*
X76454000Y-108458000D02*
X77978000Y-109982000D01*
X75440000Y-105920000D02*
X76454000Y-106934000D01*
X76454000Y-106934000D02*
X76454000Y-108458000D01*
D32*
%TO.N,AM*%
X78830000Y-59780000D02*
X88180000Y-59780000D01*
X92320000Y-55640000D02*
X97540000Y-55640000D01*
X88180000Y-59780000D02*
X92320000Y-55640000D01*
X122682000Y-60198000D02*
X123444000Y-60960000D01*
X117348000Y-60198000D02*
X122682000Y-60198000D01*
X135030000Y-64418000D02*
X135030000Y-65840000D01*
X133604000Y-62992000D02*
X135030000Y-64418000D01*
D31*
X135360000Y-135230000D02*
X135360000Y-134134000D01*
X135360000Y-134134000D02*
X136398000Y-133096000D01*
X136398000Y-133096000D02*
X143764000Y-133096000D01*
X144453200Y-133785200D02*
X144453200Y-135230000D01*
X143764000Y-133096000D02*
X144453200Y-133785200D01*
X130553000Y-135230000D02*
X130553000Y-134115000D01*
X130553000Y-134115000D02*
X131064000Y-133604000D01*
X131064000Y-133604000D02*
X132588000Y-133604000D01*
X134214000Y-135230000D02*
X135360000Y-135230000D01*
X132588000Y-133604000D02*
X134214000Y-135230000D01*
D32*
X135360000Y-137490000D02*
X135360000Y-135230000D01*
X137010000Y-138190000D02*
X136060000Y-138190000D01*
X135050000Y-143690000D02*
X137980000Y-140760000D01*
X137980000Y-139160000D02*
X137010000Y-138190000D01*
X75692000Y-122682000D02*
X82230000Y-129220000D01*
X82230000Y-136940000D02*
X84070000Y-138780000D01*
X84070000Y-138780000D02*
X105170000Y-138780000D01*
X137980000Y-140760000D02*
X137980000Y-139160000D01*
X105170000Y-138780000D02*
X112040000Y-145650000D01*
X112040000Y-145650000D02*
X129350000Y-145650000D01*
X136060000Y-138190000D02*
X135360000Y-137490000D01*
X82230000Y-129220000D02*
X82230000Y-136940000D01*
X129350000Y-145650000D02*
X131310000Y-143690000D01*
X131310000Y-143690000D02*
X135050000Y-143690000D01*
X75692000Y-109982000D02*
X75692000Y-112268000D01*
X75692000Y-111956998D02*
X75692000Y-112268000D01*
X75692000Y-112268000D02*
X75692000Y-122682000D01*
%TO.N,VBAT(6)*%
X143690000Y-79820000D02*
X144190000Y-80320000D01*
X144190000Y-80320000D02*
X144190000Y-81130000D01*
X143980000Y-81340000D02*
X143530001Y-81340000D01*
X144190000Y-81130000D02*
X143980000Y-81340000D01*
X143700000Y-78210009D02*
X143700000Y-77620000D01*
X144229999Y-77090001D02*
X145280000Y-77090001D01*
X143690000Y-79820000D02*
X143690000Y-78220009D01*
X143690000Y-78220009D02*
X143700000Y-78210009D01*
X142530000Y-65300000D02*
X142530000Y-65840000D01*
X142505000Y-65275000D02*
X142530000Y-65300000D01*
X145280000Y-69590000D02*
X145280000Y-69089999D01*
X140100000Y-61870000D02*
X140090000Y-61870000D01*
X141090000Y-62860000D02*
X140100000Y-61870000D01*
X142530000Y-65004999D02*
X142235001Y-64710000D01*
X142530000Y-65840000D02*
X142530000Y-65004999D01*
X142235001Y-64710000D02*
X141380000Y-64710000D01*
X141380000Y-64710000D02*
X141090000Y-64420000D01*
X141090000Y-64420000D02*
X141090000Y-62860000D01*
X140090000Y-56930000D02*
X140090000Y-59370000D01*
X176590000Y-69590000D02*
X176600000Y-69600000D01*
X145280000Y-69590000D02*
X176590000Y-69590000D01*
X143700000Y-77620000D02*
X144229999Y-77090001D01*
X145280000Y-77090001D02*
X143640001Y-77090001D01*
X143640001Y-77090001D02*
X143220000Y-76670000D01*
X143220000Y-76530000D02*
X143550000Y-76200000D01*
X143220000Y-76670000D02*
X143220000Y-76530000D01*
X143390000Y-73860000D02*
X143960000Y-73860000D01*
X143960000Y-73860000D02*
X144260000Y-74160000D01*
X144520001Y-74590001D02*
X145280000Y-74590001D01*
X144260000Y-74330000D02*
X144520001Y-74590001D01*
X144260000Y-74160000D02*
X144260000Y-74330000D01*
X131529999Y-65840000D02*
X131530000Y-64989999D01*
X125619990Y-60386400D02*
X125619990Y-53910010D01*
X129023600Y-63790010D02*
X125619990Y-60386400D01*
X130330008Y-63790009D02*
X129023600Y-63790010D01*
X131529999Y-65840000D02*
X131529999Y-64990000D01*
X131529999Y-64990000D02*
X130330008Y-63790009D01*
X128130010Y-51399990D02*
X143999990Y-51399990D01*
X125619990Y-53910010D02*
X128130010Y-51399990D01*
X146710000Y-55520000D02*
X146700000Y-55530000D01*
X146710000Y-54110000D02*
X146710000Y-55520000D01*
X146700000Y-55530000D02*
X146700000Y-57830000D01*
X140100000Y-60220000D02*
X140090000Y-60210000D01*
X140090000Y-59370000D02*
X140090000Y-60210000D01*
X140100000Y-61870000D02*
X140100000Y-60220000D01*
X140090000Y-60210000D02*
X140090000Y-60500000D01*
X143989999Y-70590001D02*
X145280000Y-70590001D01*
X143120000Y-71460000D02*
X143989999Y-70590001D01*
X143120000Y-72990000D02*
X143120000Y-71460000D01*
X143390000Y-73860000D02*
X143390000Y-73260000D01*
X143390000Y-73260000D02*
X143120000Y-72990000D01*
X145280000Y-69089999D02*
X146570001Y-69089999D01*
X147180000Y-54580000D02*
X146620000Y-54020000D01*
X147790000Y-54580000D02*
X147180000Y-54580000D01*
X143999990Y-51399990D02*
X146620000Y-54020000D01*
X146620000Y-54020000D02*
X146710000Y-54110000D01*
X149910000Y-55710000D02*
X150700000Y-56500000D01*
X150700000Y-56500000D02*
X150700000Y-64960000D01*
X146570001Y-69089999D02*
X150185000Y-65475000D01*
X150700000Y-64960000D02*
X150185000Y-65475000D01*
X150185000Y-65475000D02*
X150300000Y-65360000D01*
X141370000Y-60650000D02*
X143880000Y-60650000D01*
X140090000Y-59370000D02*
X141370000Y-60650000D01*
X143880000Y-60650000D02*
X145355000Y-59175000D01*
X146700000Y-57830000D02*
X145355000Y-59175000D01*
X145355000Y-59175000D02*
X145210000Y-59320000D01*
X176600000Y-73410000D02*
X176680000Y-73490000D01*
X176600000Y-69600000D02*
X176600000Y-73410000D01*
X143690001Y-81500000D02*
X143530001Y-81340000D01*
X145850000Y-81500000D02*
X143690001Y-81500000D01*
D31*
X193080000Y-90900000D02*
X193080000Y-87870000D01*
X188215000Y-102010000D02*
X186820000Y-102010000D01*
X186820000Y-102010000D02*
X185950000Y-101140000D01*
X185950000Y-101140000D02*
X185950000Y-98280000D01*
X185950000Y-98280000D02*
X187970000Y-96260000D01*
X187970000Y-96260000D02*
X190510000Y-96260000D01*
X193080000Y-93690000D02*
X193080000Y-90900000D01*
X190510000Y-96260000D02*
X193080000Y-93690000D01*
D32*
X112610000Y-91840000D02*
X112610000Y-90380000D01*
X112610000Y-90380000D02*
X116690000Y-86300000D01*
X116690000Y-86300000D02*
X120620000Y-86300000D01*
X120620000Y-86300000D02*
X123620000Y-83300000D01*
X123620000Y-83300000D02*
X128640000Y-83300000D01*
X128640000Y-83300000D02*
X129780000Y-82160000D01*
X129780000Y-82160000D02*
X130160000Y-82160000D01*
X130160000Y-82160000D02*
X130900000Y-81420000D01*
X129780000Y-82160000D02*
X129780000Y-82140000D01*
X129780000Y-82140000D02*
X129390000Y-81750000D01*
X129390000Y-81750000D02*
X129390000Y-80980000D01*
X129780000Y-80590000D02*
X129780000Y-79590001D01*
X129390000Y-80980000D02*
X129780000Y-80590000D01*
X130900000Y-81420000D02*
X130900000Y-80300000D01*
X130900000Y-80300000D02*
X131460000Y-79740000D01*
X141730000Y-79740000D02*
X141810000Y-79820000D01*
X131460000Y-79740000D02*
X141730000Y-79740000D01*
D31*
X144453200Y-139725800D02*
X145516200Y-139725800D01*
X145516200Y-139725800D02*
X147066000Y-138176000D01*
X147066000Y-136697000D02*
X148533000Y-135230000D01*
X147066000Y-138176000D02*
X147066000Y-136697000D01*
X130384400Y-139110000D02*
X130384400Y-141306400D01*
X130384400Y-141306400D02*
X131064000Y-141986000D01*
X131064000Y-141986000D02*
X134874000Y-141986000D01*
X135360000Y-141500000D02*
X135360000Y-139725800D01*
X134874000Y-141986000D02*
X135360000Y-141500000D01*
X117620000Y-139725800D02*
X117620000Y-140480000D01*
X117620000Y-140480000D02*
X118618000Y-141478000D01*
X124961000Y-141478000D02*
X126713200Y-139725800D01*
X118618000Y-141478000D02*
X124961000Y-141478000D01*
X126713200Y-139725800D02*
X126713200Y-138970800D01*
X126713200Y-138970800D02*
X127508000Y-138176000D01*
X129450400Y-138176000D02*
X130384400Y-139110000D01*
X127508000Y-138176000D02*
X129450400Y-138176000D01*
X112302200Y-139080000D02*
X112302200Y-140242200D01*
X112302200Y-140242200D02*
X112522000Y-140462000D01*
X112522000Y-140462000D02*
X114808000Y-140462000D01*
X115544200Y-139725800D02*
X117620000Y-139725800D01*
X114808000Y-140462000D02*
X115544200Y-139725800D01*
X125730000Y-143510000D02*
X125730000Y-143256000D01*
X125730000Y-143256000D02*
X125476000Y-143002000D01*
X125476000Y-141993000D02*
X124961000Y-141478000D01*
X125476000Y-143002000D02*
X125476000Y-141993000D01*
X144427400Y-139700000D02*
X144453200Y-139725800D01*
X141732000Y-139700000D02*
X144427400Y-139700000D01*
X112610000Y-93857800D02*
X112612200Y-93860000D01*
X112610000Y-91840000D02*
X112610000Y-93857800D01*
X112612200Y-93860000D02*
X112612200Y-96080000D01*
X112612200Y-96080000D02*
X112612200Y-98207800D01*
X110740000Y-104550000D02*
X111096000Y-104550000D01*
X112612200Y-103033800D02*
X112612200Y-99985800D01*
X111096000Y-104550000D02*
X112612200Y-103033800D01*
X112612200Y-98207800D02*
X112612200Y-99985800D01*
X112612200Y-99985800D02*
X112612200Y-100560000D01*
D33*
X103180000Y-106300400D02*
X103180000Y-104846000D01*
X103180000Y-104846000D02*
X103886000Y-104140000D01*
X103886000Y-104140000D02*
X106680000Y-104140000D01*
X107090000Y-104550000D02*
X110740000Y-104550000D01*
X106680000Y-104140000D02*
X107090000Y-104550000D01*
D31*
X106934000Y-135890000D02*
X109474000Y-138430000D01*
X111652200Y-138430000D02*
X112302200Y-139080000D01*
X109474000Y-138430000D02*
X111652200Y-138430000D01*
X103180000Y-107640000D02*
X103180000Y-106300400D01*
X99822000Y-112268000D02*
X99822000Y-110998000D01*
X99822000Y-110998000D02*
X103180000Y-107640000D01*
D32*
X116690000Y-86300000D02*
X116690000Y-84940000D01*
X116690000Y-84940000D02*
X115062000Y-83312000D01*
X115062000Y-83312000D02*
X111760000Y-83312000D01*
X111760000Y-83312000D02*
X104394000Y-90678000D01*
X87042000Y-90678000D02*
X85170000Y-92550000D01*
X104394000Y-90678000D02*
X87042000Y-90678000D01*
D31*
X85170000Y-95678000D02*
X85170000Y-92550000D01*
X83566000Y-97282000D02*
X85170000Y-95678000D01*
X74742000Y-101920000D02*
X73660000Y-100838000D01*
X73660000Y-98552000D02*
X74930000Y-97282000D01*
X76695000Y-101920000D02*
X74742000Y-101920000D01*
X73660000Y-100838000D02*
X73660000Y-98552000D01*
X74930000Y-97282000D02*
X83566000Y-97282000D01*
D32*
%TO.N,BOOT0*%
X140529999Y-81340000D02*
X140529999Y-89359999D01*
X140529999Y-89359999D02*
X143100000Y-91930000D01*
X143100000Y-91930000D02*
X145380000Y-91930000D01*
X145380000Y-91930000D02*
X150570000Y-97120000D01*
X152330000Y-97120000D02*
X151110000Y-97120000D01*
X154270000Y-99060000D02*
X152330000Y-97120000D01*
X154270000Y-100730000D02*
X154270000Y-99060000D01*
X156700000Y-103160000D02*
X154270000Y-100730000D01*
X156700000Y-119460000D02*
X156700000Y-103160000D01*
X146180000Y-129980000D02*
X156700000Y-119460000D01*
X151110000Y-97120000D02*
X151590000Y-97120000D01*
X150570000Y-97120000D02*
X151110000Y-97120000D01*
X128400000Y-129980000D02*
X146180000Y-129980000D01*
X126713200Y-135230000D02*
X126713200Y-131666800D01*
X126713200Y-131666800D02*
X128400000Y-129980000D01*
D31*
X126713200Y-135230000D02*
X126713200Y-135922800D01*
X126713200Y-135922800D02*
X125984000Y-136652000D01*
X119042000Y-136652000D02*
X117620000Y-135230000D01*
X125984000Y-136652000D02*
X119042000Y-136652000D01*
X112461500Y-135220000D02*
X112461500Y-133918500D01*
X112461500Y-133918500D02*
X112776000Y-133604000D01*
X112776000Y-133604000D02*
X114300000Y-133604000D01*
X114300000Y-133604000D02*
X115062000Y-134366000D01*
X115062000Y-134366000D02*
X115062000Y-134874000D01*
X115418000Y-135230000D02*
X117620000Y-135230000D01*
X115062000Y-134874000D02*
X115418000Y-135230000D01*
D32*
%TO.N,NRST*%
X147109413Y-73090001D02*
X145280000Y-73090001D01*
X148749422Y-74730010D02*
X147109413Y-73090001D01*
X154600010Y-74730010D02*
X148749422Y-74730010D01*
X155990000Y-77110000D02*
X155990000Y-76120000D01*
X155990000Y-76120000D02*
X154600010Y-74730010D01*
X156120000Y-80370000D02*
X157870000Y-82120000D01*
X157870000Y-82120000D02*
X159570000Y-82120000D01*
X161680000Y-84230000D02*
X161680000Y-88100000D01*
X159570000Y-82120000D02*
X161680000Y-84230000D01*
X153200000Y-135060000D02*
X153030000Y-135230000D01*
X153200000Y-130400000D02*
X153200000Y-135060000D01*
D31*
X153030000Y-135230000D02*
X153030000Y-135250000D01*
X153030000Y-135250000D02*
X154686000Y-136906000D01*
X160447200Y-136906000D02*
X162123200Y-135230000D01*
X154686000Y-136906000D02*
X160447200Y-136906000D01*
X153030000Y-135230000D02*
X149930000Y-135230000D01*
X148392200Y-139090000D02*
X148392200Y-138119800D01*
X148392200Y-138119800D02*
X148844000Y-137668000D01*
X153924000Y-137668000D02*
X154686000Y-136906000D01*
X148844000Y-137668000D02*
X153924000Y-137668000D01*
D32*
%TO.N,PH1*%
X146170001Y-73590001D02*
X145280000Y-73590001D01*
X146770001Y-73590001D02*
X146170001Y-73590001D01*
X146920001Y-73590001D02*
X146770001Y-73590001D01*
X146770001Y-73590001D02*
X146973003Y-73590001D01*
X146973003Y-73590001D02*
X148270000Y-74886998D01*
X147020000Y-76940000D02*
X147020000Y-76450000D01*
X147524999Y-75945001D02*
X148024999Y-75945001D01*
X147020000Y-76450000D02*
X147524999Y-75945001D01*
X148270000Y-75700000D02*
X148270000Y-74886998D01*
X148024999Y-75945001D02*
X148270000Y-75700000D01*
D31*
X157640000Y-100915600D02*
X157644400Y-100920000D01*
X157644400Y-100920000D02*
X157644400Y-99755600D01*
X157644400Y-99755600D02*
X158840000Y-98560000D01*
X158840000Y-97530000D02*
X157640000Y-96330000D01*
X158840000Y-98560000D02*
X158840000Y-97530000D01*
D32*
X148890000Y-79900000D02*
X154000000Y-85010000D01*
X154000000Y-85010000D02*
X154000000Y-89680000D01*
X154000000Y-89680000D02*
X155720000Y-91400000D01*
X157640000Y-96330000D02*
X157640000Y-96290000D01*
X155720000Y-94370000D02*
X155720000Y-93090000D01*
X157640000Y-96290000D02*
X155720000Y-94370000D01*
X155720000Y-91400000D02*
X155720000Y-93090000D01*
X155720000Y-93090000D02*
X155720000Y-93200000D01*
%TO.N,PH0*%
X146399999Y-74089999D02*
X145280000Y-74089999D01*
X147530000Y-75220000D02*
X146399999Y-74089999D01*
X167140000Y-96020000D02*
X150610000Y-79490000D01*
X167140000Y-96330000D02*
X167140000Y-96020000D01*
D31*
X167147800Y-96337800D02*
X167140000Y-96330000D01*
X167147800Y-100930000D02*
X168170000Y-100930000D01*
X168170000Y-100930000D02*
X169570000Y-99530000D01*
X169570000Y-99530000D02*
X170580000Y-99530000D01*
X170580000Y-99530000D02*
X171920000Y-98190000D01*
X171920000Y-98190000D02*
X171920000Y-96950000D01*
X171300000Y-96330000D02*
X167140000Y-96330000D01*
X171920000Y-96950000D02*
X171300000Y-96330000D01*
D32*
%TO.N,VCAP_1*%
X132030001Y-65840000D02*
X132030001Y-69860001D01*
X135320000Y-73150000D02*
X141130000Y-73150000D01*
X132030001Y-69860001D02*
X135320000Y-73150000D01*
X149780000Y-77080000D02*
X151440000Y-77080000D01*
X167330000Y-80870000D02*
X167330000Y-82630000D01*
%TO.N,VCAP_2*%
X166973600Y-78480000D02*
X167342800Y-78110800D01*
X146920000Y-78480000D02*
X166973600Y-78480000D01*
X129780000Y-78590000D02*
X133560000Y-78590000D01*
X134270000Y-77880000D02*
X141600000Y-77880000D01*
X133560000Y-78590000D02*
X134270000Y-77880000D01*
D31*
%TO.N,VIN-7.4V*%
X105720000Y-106300400D02*
X105720000Y-108514000D01*
X105720000Y-108768000D02*
X105720000Y-108514000D01*
X106934000Y-109982000D02*
X105720000Y-108768000D01*
X97409600Y-104267600D02*
X98552000Y-105410000D01*
X95470000Y-104267600D02*
X97409600Y-104267600D01*
X95470000Y-104267600D02*
X94361600Y-104267600D01*
X94361600Y-104267600D02*
X92202000Y-102108000D01*
X92202000Y-102108000D02*
X92202000Y-96266000D01*
X94234000Y-94234000D02*
X92202000Y-96266000D01*
X95504000Y-94234000D02*
X94234000Y-94234000D01*
X93388000Y-67480000D02*
X91948000Y-66040000D01*
X95620000Y-67480000D02*
X93388000Y-67480000D01*
%TO.N,VIN-12V*%
X188215000Y-104010000D02*
X185730000Y-104010000D01*
X185730000Y-104010000D02*
X183280000Y-101560000D01*
X183280000Y-101560000D02*
X183280000Y-101550000D01*
X182422200Y-100692200D02*
X178950000Y-100692200D01*
X183280000Y-101550000D02*
X182422200Y-100692200D01*
X175722450Y-101582750D02*
X176250000Y-101055200D01*
X172310000Y-101582750D02*
X175722450Y-101582750D01*
X176613000Y-100692200D02*
X176250000Y-101055200D01*
X178950000Y-100692200D02*
X176613000Y-100692200D01*
X95620000Y-69980000D02*
X97660000Y-69980000D01*
X97660000Y-69980000D02*
X99820000Y-67820000D01*
X99820000Y-67820000D02*
X99820000Y-57160000D01*
X99820000Y-57160000D02*
X105370000Y-51610000D01*
X192530000Y-77180000D02*
X192530000Y-81280000D01*
X191560000Y-86900000D02*
X192260000Y-86900000D01*
X192260000Y-86900000D02*
X193690000Y-85470000D01*
X193690000Y-85470000D02*
X193690000Y-83420000D01*
X192530000Y-82260000D02*
X192530000Y-81280000D01*
X193690000Y-83420000D02*
X192530000Y-82260000D01*
X183450000Y-99664400D02*
X182422200Y-100692200D01*
X183450000Y-98240000D02*
X183450000Y-99664400D01*
X119490000Y-51600000D02*
X119480000Y-51610000D01*
X123370000Y-51600000D02*
X119490000Y-51600000D01*
X105370000Y-51610000D02*
X119480000Y-51610000D01*
X119480000Y-51610000D02*
X120540000Y-51610000D01*
X78452000Y-103920000D02*
X78740000Y-103632000D01*
X76695000Y-103920000D02*
X78452000Y-103920000D01*
X90932000Y-93726000D02*
X90932000Y-92456000D01*
X89662000Y-104902000D02*
X90932000Y-103632000D01*
X90932000Y-103632000D02*
X90932000Y-93726000D01*
X93850000Y-69980000D02*
X90932000Y-72898000D01*
X95620000Y-69980000D02*
X93850000Y-69980000D01*
D32*
%TO.N,GO*%
X133530000Y-66890000D02*
X133530000Y-65840000D01*
X132830000Y-67590000D02*
X133530000Y-66890000D01*
%TO.N,RDY*%
X94710000Y-52250000D02*
X94760000Y-52200000D01*
X90430000Y-52250000D02*
X94710000Y-52250000D01*
X134050000Y-65860001D02*
X134029999Y-65840000D01*
X134050000Y-67570000D02*
X134050000Y-65860001D01*
%TO.N,DIR_A*%
X139529999Y-66942821D02*
X139529999Y-65840000D01*
X137992820Y-68480000D02*
X138736410Y-67736410D01*
X138580000Y-67892820D02*
X138736410Y-67736410D01*
X137960000Y-68480000D02*
X137992820Y-68480000D01*
X138736410Y-67736410D02*
X139529999Y-66942821D01*
X78260000Y-100920000D02*
X78530000Y-100650000D01*
X76695000Y-100920000D02*
X78260000Y-100920000D01*
D31*
%TO.N,Net-(DMA1-Pad5)*%
X76695000Y-104920000D02*
X77742000Y-104920000D01*
X77742000Y-104920000D02*
X78486000Y-105664000D01*
X78486000Y-105664000D02*
X78486000Y-106680000D01*
D34*
X78486000Y-106680000D02*
X78486000Y-107188000D01*
X78486000Y-107188000D02*
X83820000Y-112522000D01*
X83820000Y-112522000D02*
X83820000Y-115824000D01*
X89346000Y-121350000D02*
X112930000Y-121350000D01*
X83820000Y-115824000D02*
X89346000Y-121350000D01*
D31*
%TO.N,Net-(DMA1-Pad7)*%
X86645000Y-105920000D02*
X88140000Y-105920000D01*
X88140000Y-105920000D02*
X88646000Y-106426000D01*
D34*
X113500000Y-124460000D02*
X112930000Y-123890000D01*
X116332000Y-124460000D02*
X113500000Y-124460000D01*
X117602000Y-123190000D02*
X116332000Y-124460000D01*
X117602000Y-121158000D02*
X117602000Y-123190000D01*
X114808000Y-118364000D02*
X117602000Y-121158000D01*
X112776000Y-118364000D02*
X114808000Y-118364000D01*
X91186000Y-108966000D02*
X91186000Y-113030000D01*
X109728000Y-115316000D02*
X112776000Y-118364000D01*
X88646000Y-106426000D02*
X91186000Y-108966000D01*
X91186000Y-113030000D02*
X93472000Y-115316000D01*
X93472000Y-115316000D02*
X109728000Y-115316000D01*
D32*
%TO.N,DIS_A*%
X140030000Y-67100000D02*
X140030000Y-65840000D01*
X138770000Y-68360000D02*
X139800000Y-67330000D01*
X138770000Y-69460000D02*
X138770000Y-68360000D01*
X139500000Y-67630000D02*
X139800000Y-67330000D01*
X139800000Y-67330000D02*
X140030000Y-67100000D01*
X89090000Y-101920000D02*
X89180000Y-101830000D01*
X86645000Y-101920000D02*
X89090000Y-101920000D01*
X134500000Y-74520000D02*
X134950000Y-74070000D01*
X131710000Y-74520000D02*
X134500000Y-74520000D01*
%TO.N,PWM_A*%
X88560000Y-100920000D02*
X89150000Y-100330000D01*
X86645000Y-100920000D02*
X88560000Y-100920000D01*
X141030001Y-67210001D02*
X141290000Y-67470000D01*
X141030001Y-65840000D02*
X141030001Y-67210001D01*
%TO.N,PWM_B*%
X149290000Y-70950000D02*
X149290000Y-71780000D01*
X149290000Y-71780000D02*
X151790000Y-74280000D01*
X151790000Y-74280000D02*
X171670000Y-74280000D01*
X171670000Y-74280000D02*
X175800000Y-78410000D01*
X189480000Y-78400000D02*
X185010000Y-78400000D01*
X185010000Y-78400000D02*
X185000000Y-78410000D01*
X175800000Y-78410000D02*
X185000000Y-78410000D01*
X185000000Y-78410000D02*
X185090000Y-78410000D01*
X140529999Y-65840000D02*
X140529999Y-67780001D01*
X141299998Y-68550000D02*
X142200000Y-68550000D01*
X140529999Y-67780001D02*
X141299998Y-68550000D01*
X198165000Y-101010000D02*
X199060000Y-101010000D01*
X199060000Y-101010000D02*
X199350000Y-101010000D01*
X199543590Y-101010000D02*
X199060000Y-101010000D01*
X200173590Y-100380000D02*
X199543590Y-101010000D01*
X204480000Y-97670000D02*
X204480000Y-98210000D01*
X204480000Y-98210000D02*
X204065001Y-98624999D01*
X204065001Y-98624999D02*
X203325001Y-98624999D01*
X203325001Y-98624999D02*
X202440000Y-99510000D01*
X202440000Y-99510000D02*
X202440000Y-100020000D01*
X202440000Y-100020000D02*
X202080000Y-100380000D01*
X202080000Y-100380000D02*
X200173590Y-100380000D01*
X206110000Y-96040000D02*
X205895000Y-96255000D01*
X206110000Y-94880000D02*
X206110000Y-96040000D01*
X206090000Y-96060000D02*
X205895000Y-96255000D01*
X205895000Y-96255000D02*
X204480000Y-97670000D01*
%TO.N,DIS_B*%
X139030000Y-66806410D02*
X138316410Y-67520000D01*
X139030000Y-65840000D02*
X139030000Y-66806410D01*
X138316410Y-67520000D02*
X137730000Y-67520000D01*
X137730000Y-67520000D02*
X137180000Y-68070000D01*
X137180000Y-68070000D02*
X137180000Y-69130000D01*
X137180000Y-69130000D02*
X138850000Y-70800000D01*
X198165000Y-102010000D02*
X199180000Y-102010000D01*
X199180000Y-102010000D02*
X200300000Y-100890000D01*
X202220000Y-100890000D02*
X203760000Y-99350000D01*
X200300000Y-100890000D02*
X202220000Y-100890000D01*
X189440000Y-79590000D02*
X189510000Y-79520000D01*
X177080000Y-79590000D02*
X189440000Y-79590000D01*
X141020000Y-70800000D02*
X141040000Y-70780000D01*
X138850000Y-70800000D02*
X141020000Y-70800000D01*
D31*
%TO.N,Net-(DMB1-Pad7)*%
X198165000Y-106010000D02*
X198165000Y-107825000D01*
D34*
X162220000Y-124060000D02*
X186060000Y-124060000D01*
X186060000Y-124060000D02*
X192420000Y-117700000D01*
X192420000Y-117700000D02*
X192420000Y-112130000D01*
X192420000Y-112130000D02*
X194490000Y-110060000D01*
X195930000Y-110060000D02*
X198165000Y-107825000D01*
X194490000Y-110060000D02*
X195930000Y-110060000D01*
%TO.N,Net-(DMB1-Pad5)*%
X162220000Y-121520000D02*
X179780000Y-121520000D01*
X179780000Y-121520000D02*
X184710000Y-116590000D01*
X184710000Y-116590000D02*
X184710000Y-106070000D01*
D31*
X185770000Y-105010000D02*
X184710000Y-106070000D01*
X188215000Y-105010000D02*
X185770000Y-105010000D01*
D32*
%TO.N,DIR_B*%
X138130000Y-67070000D02*
X138530001Y-66669999D01*
X138530001Y-66669999D02*
X138530001Y-65840000D01*
X137916410Y-67070000D02*
X137916401Y-67069991D01*
X138130000Y-67070000D02*
X137916410Y-67070000D01*
X137916401Y-67069991D02*
X137543599Y-67069991D01*
X137543599Y-67069991D02*
X136729990Y-67883600D01*
X139323590Y-71910000D02*
X141090000Y-71910000D01*
X136729991Y-69316401D02*
X139323590Y-71910000D01*
X136729990Y-67883600D02*
X136729991Y-69316401D01*
X188215000Y-101010000D02*
X189900000Y-101010000D01*
X189900000Y-101010000D02*
X190800000Y-100110000D01*
X190800000Y-100110000D02*
X190800000Y-99170000D01*
X191350000Y-98620000D02*
X193260000Y-98620000D01*
X190800000Y-99170000D02*
X191350000Y-98620000D01*
X189500000Y-80910000D02*
X189510000Y-80900000D01*
X177080000Y-80910000D02*
X189500000Y-80910000D01*
%TO.N,PWM_ESC*%
X129780000Y-71589999D02*
X116660001Y-71589999D01*
X100250000Y-88000000D02*
X94990000Y-88000000D01*
X116660001Y-71589999D02*
X100250000Y-88000000D01*
%TO.N,IR*%
X190540000Y-57050000D02*
X190540000Y-90900000D01*
X185470000Y-51980000D02*
X190540000Y-57050000D01*
X146266411Y-68590000D02*
X148640000Y-66216411D01*
X145280000Y-68590000D02*
X146266411Y-68590000D01*
X148640000Y-66216411D02*
X148640000Y-55190000D01*
X148640000Y-55190000D02*
X151850000Y-51980000D01*
X151850000Y-51980000D02*
X185470000Y-51980000D01*
D31*
%TO.N,SWDIO*%
X168550000Y-66561500D02*
X170828500Y-66561500D01*
X172870000Y-64520000D02*
X176600000Y-64520000D01*
X170828500Y-66561500D02*
X172870000Y-64520000D01*
D32*
X134240000Y-76750000D02*
X138650000Y-76750000D01*
X129780000Y-78089999D02*
X132900001Y-78089999D01*
X138650000Y-76750000D02*
X138670000Y-76770000D01*
X132900001Y-78089999D02*
X134240000Y-76750000D01*
X163290000Y-83610000D02*
X164690000Y-83610000D01*
X164690000Y-83610000D02*
X169250000Y-88170000D01*
X175480000Y-88170000D02*
X175530000Y-88120000D01*
X169250000Y-88170000D02*
X175480000Y-88170000D01*
X182950000Y-82930000D02*
X183910000Y-81970000D01*
X182950000Y-86800000D02*
X182950000Y-82930000D01*
X176740000Y-64660000D02*
X176600000Y-64520000D01*
X180360000Y-64660000D02*
X176740000Y-64660000D01*
D31*
%TO.N,SWCLK*%
X176060400Y-62519600D02*
X176600000Y-61980000D01*
X168572400Y-62519600D02*
X176060400Y-62519600D01*
D32*
X134680000Y-87020000D02*
X138390000Y-87020000D01*
X131529999Y-81340000D02*
X131530000Y-83870000D01*
X131530000Y-83870000D02*
X134680000Y-87020000D01*
X180690000Y-61980000D02*
X180780000Y-61890000D01*
X176600000Y-61980000D02*
X180690000Y-61980000D01*
X163300000Y-85360000D02*
X164190000Y-85360000D01*
X168830000Y-90000000D02*
X175580000Y-90000000D01*
X164190000Y-85360000D02*
X168830000Y-90000000D01*
X185080000Y-83540000D02*
X186520000Y-82100000D01*
X185080000Y-86750000D02*
X185080000Y-83540000D01*
%TO.N,S2*%
X145170000Y-53640000D02*
X145170000Y-56930000D01*
X126070000Y-54140000D02*
X128360000Y-51850000D01*
X136020000Y-65220000D02*
X136020000Y-62306410D01*
X136020000Y-62306410D02*
X135183620Y-61470030D01*
X135183620Y-61470030D02*
X132823579Y-61470029D01*
X136030000Y-65840000D02*
X136030000Y-65230000D01*
X128360000Y-51850000D02*
X143380000Y-51850000D01*
X132823579Y-61470029D02*
X131923600Y-60570050D01*
X131923600Y-60570050D02*
X128340050Y-60570050D01*
X143380000Y-51850000D02*
X145170000Y-53640000D01*
X128340050Y-60570050D02*
X126130000Y-58360000D01*
X136030000Y-65230000D02*
X136020000Y-65220000D01*
X126130000Y-58326410D02*
X126070000Y-58266410D01*
X126130000Y-58360000D02*
X126130000Y-58326410D01*
X126070000Y-58266410D02*
X126070000Y-54140000D01*
%TO.N,S3*%
X136529999Y-65330001D02*
X136555001Y-65304999D01*
X136529999Y-65840000D02*
X136529999Y-65330001D01*
X126520010Y-54326400D02*
X128546400Y-52300010D01*
X140500010Y-52300010D02*
X142630000Y-54430000D01*
X128546400Y-52300010D02*
X140500010Y-52300010D01*
X142630000Y-54430000D02*
X142630000Y-56930000D01*
X136529999Y-65840000D02*
X136529999Y-62179999D01*
X136529999Y-62179999D02*
X135370020Y-61020020D01*
X135370020Y-61020020D02*
X133009980Y-61020020D01*
X133009980Y-61020020D02*
X132110000Y-60120040D01*
X132110000Y-60120040D02*
X128560040Y-60120040D01*
X126520010Y-58080010D02*
X126520010Y-54326400D01*
X128560040Y-60120040D02*
X126520010Y-58080010D01*
%TO.N,OP*%
X147070000Y-67150001D02*
X147070000Y-66500000D01*
X146130000Y-68090001D02*
X147070000Y-67150001D01*
X145280000Y-68090001D02*
X146130000Y-68090001D01*
X137400000Y-56780000D02*
X137550000Y-56930000D01*
X137550000Y-55780000D02*
X137550000Y-56930000D01*
X138740000Y-54590000D02*
X137550000Y-55780000D01*
%TO.N,S1*%
X128732800Y-52750020D02*
X126970020Y-54512800D01*
X130840020Y-52750020D02*
X128732800Y-52750020D01*
X132470000Y-56930000D02*
X132470000Y-54380000D01*
X132470000Y-54380000D02*
X130840020Y-52750020D01*
X137030001Y-65840000D02*
X137030001Y-61559999D01*
X137030001Y-61559999D02*
X136040012Y-60570010D01*
X136040012Y-60570010D02*
X133410010Y-60570010D01*
X132480000Y-59640000D02*
X132480000Y-59606410D01*
X133410010Y-60570010D02*
X132480000Y-59640000D01*
X132480000Y-59606410D02*
X128716410Y-59606410D01*
X126970020Y-57860020D02*
X126970020Y-54512800D01*
X128716410Y-59606410D02*
X126970020Y-57860020D01*
%TO.N,S0*%
X129930000Y-54460000D02*
X129930000Y-56930000D01*
X129490000Y-54020000D02*
X129930000Y-54460000D01*
X128350000Y-54020000D02*
X129490000Y-54020000D01*
X127470000Y-54900000D02*
X128350000Y-54020000D01*
X127470000Y-57600000D02*
X127470000Y-54900000D01*
X128800000Y-58930000D02*
X127470000Y-57600000D01*
X137529999Y-61130001D02*
X136519998Y-60120000D01*
X136519998Y-60120000D02*
X133630000Y-60120000D01*
X137529999Y-65840000D02*
X137529999Y-61130001D01*
X133630000Y-60120000D02*
X132440000Y-58930000D01*
X132440000Y-58930000D02*
X128800000Y-58930000D01*
%TD*%
M02*
