%TF.GenerationSoftware,KiCad,Pcbnew,(5.1.6)-1*%
%TF.CreationDate,2020-09-14T15:10:24-05:00*%
%TF.ProjectId,Follower_Line_PCB_IM,466f6c6c-6f77-4657-925f-4c696e655f50,Iron Makers*%
%TF.SameCoordinates,Original*%
%TF.FileFunction,Copper,L2,Bot*%
%TF.FilePolarity,Positive*%
%FSLAX46Y46*%
G04 Gerber Fmt 4.6, Leading zero omitted, Abs format (unit mm)*
G04 Created by KiCad (PCBNEW (5.1.6)-1) date 2020-09-14 15:10:24*
%MOMM*%
%LPD*%
G01*
G04 APERTURE LIST*
%TA.AperFunction,ComponentPad*%
%ADD10C,2.200000*%
%TD*%
%TA.AperFunction,ComponentPad*%
%ADD11R,1.700000X1.700000*%
%TD*%
%TA.AperFunction,ComponentPad*%
%ADD12O,1.700000X1.700000*%
%TD*%
%TA.AperFunction,ComponentPad*%
%ADD13C,1.590000*%
%TD*%
%TA.AperFunction,ComponentPad*%
%ADD14R,1.590000X1.590000*%
%TD*%
%TA.AperFunction,ViaPad*%
%ADD15C,3.000000*%
%TD*%
%TA.AperFunction,ViaPad*%
%ADD16C,0.800000*%
%TD*%
%TA.AperFunction,Conductor*%
%ADD17C,0.800000*%
%TD*%
%TA.AperFunction,Conductor*%
%ADD18C,0.250000*%
%TD*%
G04 APERTURE END LIST*
D10*
%TO.P,     ,1*%
%TO.N,N/C*%
X195657000Y-131499600D03*
%TO.P,     ,2*%
X195657000Y-113440200D03*
%TD*%
%TO.P,     ,2*%
%TO.N,N/C*%
X79093000Y-131419800D03*
%TO.P,     ,1*%
X79093000Y-113360400D03*
%TD*%
D11*
%TO.P,ADT1,1*%
%TO.N,VT-12V*%
X95030000Y-78060000D03*
D12*
%TO.P,ADT1,2*%
%TO.N,GND*%
X95030000Y-75520000D03*
%TD*%
D11*
%TO.P,CA1,1*%
%TO.N,VBAT(6)*%
X85170000Y-92550000D03*
D12*
%TO.P,CA1,2*%
%TO.N,GND*%
X82630000Y-92550000D03*
%TO.P,CA1,3*%
%TO.N,GO*%
X80090000Y-92550000D03*
%TO.P,CA1,4*%
%TO.N,RDY*%
X77550000Y-92550000D03*
%TD*%
%TO.P,DT1,3*%
%TO.N,GND*%
X94990000Y-82920000D03*
%TO.P,DT1,2*%
%TO.N,VT-12V*%
X94990000Y-85460000D03*
D11*
%TO.P,DT1,1*%
%TO.N,PWM_ESC*%
X94990000Y-88000000D03*
%TD*%
D12*
%TO.P,IR1,3*%
%TO.N,IR*%
X190540000Y-90900000D03*
%TO.P,IR1,2*%
%TO.N,VBAT(6)*%
X193080000Y-90900000D03*
D11*
%TO.P,IR1,1*%
%TO.N,GND*%
X195620000Y-90900000D03*
%TD*%
D13*
%TO.P,LIPO_3S1,4*%
%TO.N,GND*%
X95620000Y-62480000D03*
%TO.P,LIPO_3S1,3*%
%TO.N,VIN-3.7V*%
X95620000Y-64980000D03*
%TO.P,LIPO_3S1,2*%
%TO.N,VIN-7.4V*%
X95620000Y-67480000D03*
D14*
%TO.P,LIPO_3S1,1*%
%TO.N,VIN-12V*%
X95620000Y-69980000D03*
%TD*%
D12*
%TO.P,MA1,2*%
%TO.N,Net-(DMA1-Pad7)*%
X112930000Y-123890000D03*
D11*
%TO.P,MA1,1*%
%TO.N,Net-(DMA1-Pad5)*%
X112930000Y-121350000D03*
%TD*%
%TO.P,MB1,1*%
%TO.N,Net-(DMB1-Pad5)*%
X162220000Y-121520000D03*
D12*
%TO.P,MB1,2*%
%TO.N,Net-(DMB1-Pad7)*%
X162220000Y-124060000D03*
%TD*%
%TO.P,S1,7*%
%TO.N,S2*%
X145170000Y-56930000D03*
%TO.P,S1,6*%
%TO.N,S3*%
X142630000Y-56930000D03*
%TO.P,S1,5*%
%TO.N,VBAT(6)*%
X140090000Y-56930000D03*
%TO.P,S1,4*%
%TO.N,OP*%
X137550000Y-56930000D03*
%TO.P,S1,3*%
%TO.N,GND*%
X135010000Y-56930000D03*
%TO.P,S1,2*%
%TO.N,S1*%
X132470000Y-56930000D03*
D11*
%TO.P,S1,1*%
%TO.N,S0*%
X129930000Y-56930000D03*
%TD*%
%TO.P,ST-LINKV2,1*%
%TO.N,SWCLK*%
X176600000Y-61980000D03*
D12*
%TO.P,ST-LINKV2,2*%
%TO.N,SWDIO*%
X176600000Y-64520000D03*
%TO.P,ST-LINKV2,3*%
%TO.N,GND*%
X176600000Y-67060000D03*
%TO.P,ST-LINKV2,4*%
%TO.N,VBAT(6)*%
X176600000Y-69600000D03*
%TD*%
D15*
%TO.N,*%
X95350000Y-132810000D03*
X103600000Y-132860000D03*
X86830000Y-132800000D03*
X86640000Y-112030000D03*
X95470000Y-112070000D03*
X103620000Y-112030000D03*
X180420000Y-133040000D03*
X188620000Y-133110000D03*
X171700000Y-112140000D03*
X171890000Y-132910000D03*
X188680000Y-112140000D03*
X180530000Y-112180000D03*
X80190000Y-143880000D03*
X104700000Y-143790000D03*
X170170000Y-143830000D03*
X194680000Y-143740000D03*
X121990000Y-54690000D03*
X83230000Y-54720000D03*
X192440000Y-54930000D03*
X153680000Y-54960000D03*
X202700000Y-55140000D03*
X202710000Y-66060000D03*
X202710000Y-77300000D03*
X202720000Y-89150000D03*
X71500000Y-66090000D03*
X71490000Y-55170000D03*
X71510000Y-89180000D03*
X71500000Y-77330000D03*
D16*
%TO.N,VT-12V*%
X99060000Y-84328000D03*
X99060000Y-79502000D03*
%TO.N,GND*%
X165354000Y-114046000D03*
X167386000Y-132080000D03*
X77978000Y-110744000D03*
X98044000Y-59182000D03*
X102108000Y-72644000D03*
X92710000Y-109474000D03*
X110998000Y-111506000D03*
X132842000Y-140716000D03*
X149606000Y-141732000D03*
X117094000Y-137922000D03*
X126130000Y-84960000D03*
X126400000Y-81680000D03*
X157660000Y-88530000D03*
X163830000Y-86720000D03*
X181160000Y-82090000D03*
X181300000Y-77260000D03*
X181340000Y-109040000D03*
X187160000Y-108810000D03*
X190070000Y-106020000D03*
X166250000Y-65350000D03*
X164630000Y-62510000D03*
X168740000Y-70690000D03*
X170120000Y-68770000D03*
X142830000Y-63070000D03*
X136780000Y-59250000D03*
%TO.N,AM*%
X75692000Y-109982000D03*
X117348000Y-60198000D03*
X123444000Y-60960000D03*
X133604000Y-62992000D03*
X78830000Y-59780000D03*
X97540000Y-55640000D03*
%TO.N,VBAT(6)*%
X99822000Y-112268000D03*
X106934000Y-135890000D03*
X125730000Y-143510000D03*
X141732000Y-139700000D03*
X193080000Y-87870000D03*
X147790000Y-54580000D03*
X149910000Y-55710000D03*
X143550000Y-76200000D03*
X143390000Y-73860000D03*
X143690000Y-79820000D03*
X141810000Y-79820000D03*
X145850000Y-81500000D03*
X176680000Y-73490000D03*
%TO.N,NRST*%
X155990000Y-77110000D03*
X156120000Y-80370000D03*
X161680000Y-88100000D03*
X153200000Y-130400000D03*
%TO.N,PH1*%
X148890000Y-79900000D03*
X147020000Y-76940000D03*
%TO.N,PH0*%
X150610000Y-79490000D03*
X147530000Y-75220000D03*
%TO.N,VCAP_1*%
X167330000Y-80870000D03*
X149780000Y-77080000D03*
X151440000Y-77080000D03*
X141130000Y-73150000D03*
%TO.N,VCAP_2*%
X141600000Y-77880000D03*
X146920000Y-78480000D03*
%TO.N,VIN-7.4V*%
X91948000Y-66040000D03*
X95504000Y-94234000D03*
X98552000Y-105410000D03*
X106934000Y-109982000D03*
%TO.N,VIN-12V*%
X90932000Y-92456000D03*
X90932000Y-72898000D03*
X89662000Y-104902000D03*
X78740000Y-103632000D03*
X191560000Y-86900000D03*
X183450000Y-98240000D03*
X192530000Y-77180000D03*
X123370000Y-51600000D03*
%TO.N,GO*%
X132830000Y-67590000D03*
%TO.N,RDY*%
X94760000Y-52200000D03*
X134050000Y-67570000D03*
X90430000Y-52250000D03*
%TO.N,DIR_A*%
X78530000Y-100650000D03*
X137960000Y-68480000D03*
%TO.N,DIS_A*%
X89180000Y-101830000D03*
X131710000Y-74520000D03*
X134950000Y-74070000D03*
X138770000Y-69460000D03*
%TO.N,PWM_A*%
X89150000Y-100330000D03*
X141290000Y-67470000D03*
%TO.N,PWM_B*%
X206110000Y-94880000D03*
X189480000Y-78400000D03*
X142200000Y-68550000D03*
X149290000Y-70950000D03*
X143750000Y-68520000D03*
%TO.N,DIS_B*%
X141040000Y-70780000D03*
X177080000Y-79590000D03*
X189510000Y-79520000D03*
X203760000Y-99350000D03*
%TO.N,DIR_B*%
X141090000Y-71910000D03*
X193260000Y-98620000D03*
X177080000Y-80910000D03*
X189510000Y-80900000D03*
%TO.N,SWDIO*%
X180360000Y-64660000D03*
X183910000Y-81970000D03*
X182950000Y-86800000D03*
X175530000Y-88120000D03*
X163290000Y-83610000D03*
X138670000Y-76770000D03*
%TO.N,SWCLK*%
X180780000Y-61890000D03*
X138390000Y-87020000D03*
X163300000Y-85360000D03*
X175580000Y-90000000D03*
X185080000Y-86750000D03*
X186520000Y-82100000D03*
%TO.N,OP*%
X138740000Y-54590000D03*
X147070000Y-66500000D03*
%TD*%
D17*
%TO.N,VT-12V*%
X99060000Y-79502000D02*
X99060000Y-84328000D01*
%TO.N,GND*%
X181340000Y-109040000D02*
X182050000Y-109750000D01*
X186220000Y-109750000D02*
X187160000Y-108810000D01*
X182050000Y-109750000D02*
X186220000Y-109750000D01*
D18*
X168740000Y-70690000D02*
X170030000Y-69400000D01*
X170030000Y-68860000D02*
X170120000Y-68770000D01*
X170030000Y-69400000D02*
X170030000Y-68860000D01*
X142700000Y-63070000D02*
X142830000Y-63070000D01*
X138820000Y-59190000D02*
X142700000Y-63070000D01*
X136780000Y-59250000D02*
X136840000Y-59190000D01*
X136840000Y-59190000D02*
X138820000Y-59190000D01*
D17*
X164630000Y-63730000D02*
X166250000Y-65350000D01*
X164630000Y-62510000D02*
X164630000Y-63730000D01*
X195620000Y-94390000D02*
X195620000Y-90900000D01*
X194700000Y-95310000D02*
X195620000Y-94390000D01*
X194120000Y-95310000D02*
X194700000Y-95310000D01*
X192210000Y-103880000D02*
X192210000Y-101180000D01*
X191290000Y-100260000D02*
X191290000Y-98140000D01*
X190070000Y-106020000D02*
X192210000Y-103880000D01*
X192210000Y-101180000D02*
X191290000Y-100260000D01*
X191290000Y-98140000D02*
X194120000Y-95310000D01*
X181300000Y-81950000D02*
X181160000Y-82090000D01*
X181300000Y-77260000D02*
X181300000Y-81950000D01*
X157660000Y-88530000D02*
X159200000Y-88530000D01*
X161010000Y-86720000D02*
X163830000Y-86720000D01*
X159200000Y-88530000D02*
X161010000Y-86720000D01*
D18*
X126130000Y-84960000D02*
X127030000Y-84960000D01*
X127030000Y-84960000D02*
X127750000Y-84240000D01*
X127750000Y-83030000D02*
X126400000Y-81680000D01*
X127750000Y-84240000D02*
X127750000Y-83030000D01*
D17*
X125984000Y-137922000D02*
X117094000Y-137922000D01*
X127000000Y-136906000D02*
X125984000Y-137922000D01*
X129032000Y-136906000D02*
X127000000Y-136906000D01*
X131572000Y-134366000D02*
X129032000Y-136906000D01*
X140208000Y-134366000D02*
X131572000Y-134366000D01*
X141986000Y-136144000D02*
X140208000Y-134366000D01*
X149606000Y-141732000D02*
X148082000Y-141732000D01*
X147320000Y-140970000D02*
X147320000Y-139192000D01*
X147320000Y-139192000D02*
X144272000Y-136144000D01*
X144272000Y-136144000D02*
X141986000Y-136144000D01*
D18*
X147320000Y-142494000D02*
X148082000Y-141732000D01*
X133350000Y-142494000D02*
X147320000Y-142494000D01*
D17*
X110998000Y-111506000D02*
X113030000Y-111506000D01*
X113030000Y-111506000D02*
X119380000Y-117856000D01*
X119380000Y-117856000D02*
X119380000Y-124206000D01*
X119380000Y-124206000D02*
X123698000Y-128524000D01*
X123698000Y-128524000D02*
X126746000Y-128524000D01*
X126746000Y-128524000D02*
X129032000Y-130810000D01*
X129032000Y-131826000D02*
X131572000Y-134366000D01*
X129032000Y-130810000D02*
X129032000Y-131826000D01*
X92710000Y-109474000D02*
X92710000Y-110998000D01*
X92710000Y-110998000D02*
X89408000Y-114300000D01*
X89408000Y-114300000D02*
X89408000Y-130048000D01*
X89408000Y-130048000D02*
X91694000Y-132334000D01*
X91694000Y-132334000D02*
X91694000Y-134366000D01*
X91694000Y-134366000D02*
X97028000Y-139700000D01*
X97028000Y-139700000D02*
X106172000Y-139700000D01*
X106172000Y-139700000D02*
X112776000Y-146304000D01*
X112776000Y-146304000D02*
X129286000Y-146304000D01*
X129286000Y-146304000D02*
X132842000Y-142748000D01*
X132842000Y-142748000D02*
X133223000Y-142367000D01*
D18*
X133223000Y-142367000D02*
X133350000Y-142494000D01*
D17*
X132842000Y-141986000D02*
X133223000Y-142367000D01*
X132842000Y-140716000D02*
X132842000Y-141986000D01*
X146939000Y-142367000D02*
X147828000Y-141478000D01*
X133223000Y-142367000D02*
X146939000Y-142367000D01*
X148082000Y-141732000D02*
X147828000Y-141478000D01*
X147828000Y-141478000D02*
X147320000Y-140970000D01*
X98044000Y-59182000D02*
X103886000Y-59182000D01*
X103886000Y-59182000D02*
X105664000Y-60960000D01*
X105664000Y-69088000D02*
X102108000Y-72644000D01*
X105664000Y-60960000D02*
X105664000Y-69088000D01*
X86360000Y-130048000D02*
X89408000Y-130048000D01*
X78486000Y-111252000D02*
X81026000Y-111252000D01*
X77978000Y-110744000D02*
X78486000Y-111252000D01*
X81026000Y-111252000D02*
X81788000Y-112014000D01*
X81788000Y-112014000D02*
X81788000Y-125476000D01*
X81788000Y-125476000D02*
X86360000Y-130048000D01*
X167386000Y-116078000D02*
X165354000Y-114046000D01*
X167386000Y-132080000D02*
X167386000Y-116078000D01*
D18*
%TO.N,AM*%
X74760000Y-104050000D02*
X74760000Y-104030000D01*
X74760000Y-104030000D02*
X72960000Y-102230000D01*
X72960000Y-102230000D02*
X70820000Y-102230000D01*
X69684999Y-101094999D02*
X69684999Y-93944999D01*
X70820000Y-102230000D02*
X69684999Y-101094999D01*
X69684999Y-93944999D02*
X68570000Y-92830000D01*
X68570000Y-92830000D02*
X68570000Y-62700000D01*
X68570000Y-62700000D02*
X71500000Y-59770000D01*
X76010000Y-59780000D02*
X76000000Y-59770000D01*
X71500000Y-59770000D02*
X76000000Y-59770000D01*
X78830000Y-59780000D02*
X76010000Y-59780000D01*
X76000000Y-59770000D02*
X76680000Y-59770000D01*
X97540000Y-55640000D02*
X113552000Y-55640000D01*
X113552000Y-55640000D02*
X115316000Y-57404000D01*
X115316000Y-57404000D02*
X115316000Y-58674000D01*
X116840000Y-60198000D02*
X117348000Y-60198000D01*
X115316000Y-58674000D02*
X116840000Y-60198000D01*
X123444000Y-60960000D02*
X124460000Y-61976000D01*
X132588000Y-61976000D02*
X133604000Y-62992000D01*
X124460000Y-61976000D02*
X132588000Y-61976000D01*
X76922000Y-107736000D02*
X76922000Y-106212000D01*
X75692000Y-108966000D02*
X76922000Y-107736000D01*
X75692000Y-109982000D02*
X75692000Y-108966000D01*
X76922000Y-106212000D02*
X74760000Y-104050000D01*
%TO.N,VBAT(6)*%
X143550000Y-76200000D02*
X142750000Y-75400000D01*
X142750000Y-74500000D02*
X143390000Y-73860000D01*
X142750000Y-75400000D02*
X142750000Y-74500000D01*
X141810000Y-79820000D02*
X143690000Y-79820000D01*
X148920000Y-55710000D02*
X147790000Y-54580000D01*
X149910000Y-55710000D02*
X148920000Y-55710000D01*
X178660000Y-75470000D02*
X176680000Y-73490000D01*
X178660000Y-82280000D02*
X178660000Y-75470000D01*
D17*
X193080000Y-87870000D02*
X193080000Y-86080000D01*
X193080000Y-86080000D02*
X190940000Y-83940000D01*
X180320000Y-83940000D02*
X178660000Y-82280000D01*
X190940000Y-83940000D02*
X180320000Y-83940000D01*
D18*
X168795000Y-86105000D02*
X174835000Y-86105000D01*
X145850000Y-81500000D02*
X164190000Y-81500000D01*
X164190000Y-81500000D02*
X168795000Y-86105000D01*
X174835000Y-86105000D02*
X178660000Y-82280000D01*
D17*
X125730000Y-143510000D02*
X127254000Y-143510000D01*
X127254000Y-143510000D02*
X129032000Y-141732000D01*
X129032000Y-141732000D02*
X129032000Y-138684000D01*
X129032000Y-138684000D02*
X130302000Y-137414000D01*
X130302000Y-137414000D02*
X137668000Y-137414000D01*
X137668000Y-137414000D02*
X139954000Y-139700000D01*
X139954000Y-139700000D02*
X141732000Y-139700000D01*
X99822000Y-112268000D02*
X99822000Y-120650000D01*
X102591999Y-123419999D02*
X102591999Y-127483999D01*
X99822000Y-120650000D02*
X102591999Y-123419999D01*
X106934000Y-131826000D02*
X106934000Y-135890000D01*
X102591999Y-127483999D02*
X106934000Y-131826000D01*
D18*
%TO.N,NRST*%
X155990000Y-80240000D02*
X156120000Y-80370000D01*
X155990000Y-77110000D02*
X155990000Y-80240000D01*
X161680000Y-88100000D02*
X161680000Y-93200000D01*
X161680000Y-93200000D02*
X162720000Y-94240000D01*
X162720000Y-94240000D02*
X162720000Y-111020000D01*
X162720000Y-111020000D02*
X158260000Y-115480000D01*
X158260000Y-115480000D02*
X158260000Y-123170000D01*
X153200000Y-128230000D02*
X153200000Y-130400000D01*
X158260000Y-123170000D02*
X153200000Y-128230000D01*
%TO.N,PH1*%
X148910000Y-79880000D02*
X148890000Y-79900000D01*
X148860000Y-79870000D02*
X148890000Y-79900000D01*
X147020000Y-77464315D02*
X147020000Y-76940000D01*
X148890000Y-79334315D02*
X147020000Y-77464315D01*
X148890000Y-79900000D02*
X148890000Y-79334315D01*
%TO.N,PH0*%
X149470000Y-75220000D02*
X147530000Y-75220000D01*
X150610000Y-79490000D02*
X150610000Y-76360000D01*
X150610000Y-76360000D02*
X149470000Y-75220000D01*
%TO.N,VCAP_1*%
X141730000Y-72550000D02*
X144110000Y-72550000D01*
X141130000Y-73150000D02*
X141730000Y-72550000D01*
X144110000Y-72550000D02*
X146470000Y-74910000D01*
X162400000Y-77080000D02*
X164620000Y-79300000D01*
X164620000Y-79300000D02*
X166350000Y-79300000D01*
X167330000Y-80280000D02*
X167330000Y-80870000D01*
X166350000Y-79300000D02*
X167330000Y-80280000D01*
X149780000Y-77080000D02*
X148660000Y-75960000D01*
X146470000Y-75233002D02*
X146470000Y-75140000D01*
X148660000Y-75960000D02*
X147196998Y-75960000D01*
X146470000Y-74910000D02*
X146470000Y-75140000D01*
X147196998Y-75960000D02*
X146470000Y-75233002D01*
X151440000Y-77080000D02*
X152330000Y-76190000D01*
X152330000Y-76190000D02*
X161830000Y-76190000D01*
X162400000Y-76760000D02*
X162400000Y-77080000D01*
X161830000Y-76190000D02*
X162400000Y-76760000D01*
%TO.N,VCAP_2*%
X146830000Y-78390000D02*
X146920000Y-78480000D01*
X146920000Y-78480000D02*
X145400000Y-78480000D01*
X144800000Y-77880000D02*
X141600000Y-77880000D01*
X145400000Y-78480000D02*
X144800000Y-77880000D01*
D17*
%TO.N,VIN-7.4V*%
X98552000Y-105410000D02*
X101092000Y-105410000D01*
X101092000Y-105410000D02*
X104394000Y-102108000D01*
X104394000Y-102108000D02*
X107950000Y-102108000D01*
X107950000Y-102108000D02*
X110998000Y-105156000D01*
X110998000Y-105156000D02*
X110998000Y-107696000D01*
X108712000Y-109982000D02*
X106934000Y-109982000D01*
X110998000Y-107696000D02*
X108712000Y-109982000D01*
X91948000Y-61214000D02*
X91948000Y-66040000D01*
X95758000Y-57404000D02*
X91948000Y-61214000D01*
X105410000Y-57404000D02*
X95758000Y-57404000D01*
X108712000Y-60706000D02*
X105410000Y-57404000D01*
X99568000Y-94234000D02*
X104140000Y-89662000D01*
X104140000Y-77216000D02*
X108712000Y-72644000D01*
X95504000Y-94234000D02*
X99568000Y-94234000D01*
X104140000Y-89662000D02*
X104140000Y-77216000D01*
X108712000Y-72644000D02*
X108712000Y-60706000D01*
%TO.N,VIN-12V*%
X123370000Y-51600000D02*
X180430000Y-51600000D01*
X180430000Y-51600000D02*
X184460000Y-55630000D01*
X184460000Y-55630000D02*
X184460000Y-65370000D01*
X184460000Y-65370000D02*
X192560000Y-73470000D01*
X192560000Y-77150000D02*
X192530000Y-77180000D01*
X192560000Y-73470000D02*
X192560000Y-77150000D01*
X191560000Y-86900000D02*
X188490000Y-86900000D01*
X188490000Y-86900000D02*
X186720000Y-88670000D01*
X186720000Y-88670000D02*
X186720000Y-94840000D01*
X183450000Y-98110000D02*
X183450000Y-98240000D01*
X186720000Y-94840000D02*
X183450000Y-98110000D01*
X79756000Y-102616000D02*
X78740000Y-103632000D01*
X81026000Y-102616000D02*
X79756000Y-102616000D01*
X89662000Y-104902000D02*
X83312000Y-104902000D01*
X83312000Y-104902000D02*
X81026000Y-102616000D01*
X90932000Y-92456000D02*
X90932000Y-75184000D01*
X90932000Y-72898000D02*
X90932000Y-75184000D01*
D18*
%TO.N,GO*%
X132830000Y-67590000D02*
X132040000Y-68380000D01*
X132040000Y-68380000D02*
X128110000Y-68380000D01*
X128110000Y-68380000D02*
X118620000Y-58890000D01*
X118620000Y-58890000D02*
X118620000Y-54890000D01*
X118620000Y-54890000D02*
X114820000Y-51090000D01*
X114820000Y-51090000D02*
X93930000Y-51090000D01*
X93930000Y-51090000D02*
X78850000Y-66170000D01*
X78850000Y-66170000D02*
X78850000Y-83880000D01*
X80090000Y-85120000D02*
X80090000Y-92550000D01*
X78850000Y-83880000D02*
X80090000Y-85120000D01*
%TO.N,RDY*%
X134050000Y-67570000D02*
X132490000Y-69130000D01*
X132490000Y-69130000D02*
X127700000Y-69130000D01*
X123500000Y-64930000D02*
X123500000Y-64720000D01*
X127700000Y-69130000D02*
X123500000Y-64930000D01*
X123500000Y-64720000D02*
X117940000Y-59160000D01*
X117940000Y-59160000D02*
X117940000Y-55060000D01*
X117940000Y-55060000D02*
X115080000Y-52200000D01*
X98830000Y-52200000D02*
X94760000Y-52200000D01*
X98830000Y-52200000D02*
X98640000Y-52200000D01*
X115080000Y-52200000D02*
X98830000Y-52200000D01*
X90430000Y-52250000D02*
X76770000Y-65910000D01*
X76770000Y-65910000D02*
X76770000Y-84130000D01*
X77550000Y-84910000D02*
X77550000Y-92550000D01*
X76770000Y-84130000D02*
X77550000Y-84910000D01*
%TO.N,DIR_A*%
X136140000Y-68480000D02*
X137960000Y-68480000D01*
X132830000Y-71790000D02*
X134490000Y-70130000D01*
X132830000Y-74720000D02*
X132830000Y-71790000D01*
X78530000Y-100650000D02*
X79140000Y-100040000D01*
X79140000Y-100040000D02*
X80680000Y-100040000D01*
X134390000Y-70230000D02*
X134490000Y-70130000D01*
X80680000Y-100040000D02*
X82340000Y-101700000D01*
X116930000Y-84770000D02*
X120680000Y-84770000D01*
X134490000Y-70130000D02*
X136140000Y-68480000D01*
X82340000Y-101700000D02*
X82340000Y-102850000D01*
X82340000Y-102850000D02*
X83390000Y-103900000D01*
X130750000Y-76800000D02*
X132830000Y-74720000D01*
X83390000Y-103900000D02*
X90060000Y-103900000D01*
X128650000Y-76800000D02*
X130750000Y-76800000D01*
X90060000Y-103900000D02*
X92930000Y-101030000D01*
X120680000Y-84770000D02*
X128650000Y-76800000D01*
X92930000Y-101030000D02*
X100670000Y-101030000D01*
X100670000Y-101030000D02*
X116930000Y-84770000D01*
%TO.N,DIS_A*%
X89180000Y-101830000D02*
X91030000Y-99980000D01*
X91030000Y-99980000D02*
X100360000Y-99980000D01*
X100360000Y-99980000D02*
X116200000Y-84140000D01*
X116200000Y-84140000D02*
X120080000Y-84140000D01*
X120080000Y-84140000D02*
X128020000Y-76200000D01*
X128020000Y-76200000D02*
X130190000Y-76200000D01*
X131710000Y-74680000D02*
X131710000Y-74520000D01*
X130190000Y-76200000D02*
X131710000Y-74680000D01*
X134950000Y-74070000D02*
X136080000Y-72940000D01*
X136080000Y-72940000D02*
X136080000Y-72900000D01*
X136080000Y-72900000D02*
X137190000Y-71790000D01*
X137190000Y-71040000D02*
X138770000Y-69460000D01*
X137190000Y-71790000D02*
X137190000Y-71040000D01*
%TO.N,PWM_A*%
X89150000Y-100330000D02*
X90900000Y-98580000D01*
X90900000Y-98580000D02*
X100370000Y-98580000D01*
X100370000Y-98580000D02*
X115740000Y-83210000D01*
X115740000Y-83210000D02*
X119690000Y-83210000D01*
X119690000Y-83210000D02*
X130200000Y-72700000D01*
X130200000Y-72700000D02*
X131010000Y-72700000D01*
X131010000Y-72700000D02*
X133260000Y-70450000D01*
X133260000Y-70450000D02*
X133260000Y-69700000D01*
X133260000Y-69700000D02*
X135330000Y-67630000D01*
X135330000Y-67630000D02*
X138430000Y-67630000D01*
X138430000Y-67630000D02*
X139630000Y-68830000D01*
X139630000Y-68830000D02*
X140620000Y-68830000D01*
X141290000Y-68160000D02*
X141290000Y-67470000D01*
X140620000Y-68830000D02*
X141290000Y-68160000D01*
%TO.N,PWM_B*%
X146890000Y-68550000D02*
X149290000Y-70950000D01*
X142200000Y-68550000D02*
X146890000Y-68550000D01*
X206110000Y-86280000D02*
X206110000Y-85460000D01*
X206110000Y-86280000D02*
X206110000Y-95780000D01*
X206110000Y-86150000D02*
X206110000Y-86280000D01*
X189230000Y-78380000D02*
X198510000Y-78380000D01*
X199030000Y-78380000D02*
X198510000Y-78380000D01*
X206110000Y-85460000D02*
X199030000Y-78380000D01*
X198510000Y-78380000D02*
X199010000Y-78380000D01*
%TO.N,DIS_B*%
X171640000Y-74900000D02*
X151000000Y-74900000D01*
X151000000Y-74900000D02*
X147299999Y-71199999D01*
X176330000Y-79590000D02*
X175885000Y-79145000D01*
X177080000Y-79590000D02*
X176330000Y-79590000D01*
X175990000Y-79250000D02*
X175885000Y-79145000D01*
X175885000Y-79145000D02*
X171640000Y-74900000D01*
X189490000Y-79510000D02*
X198740000Y-79510000D01*
X198740000Y-79510000D02*
X199010000Y-79510000D01*
X203770000Y-99340000D02*
X203760000Y-99350000D01*
X198740000Y-79510000D02*
X199240000Y-79510000D01*
X199240000Y-79510000D02*
X205350000Y-85620000D01*
X205350000Y-85620000D02*
X205350000Y-95750000D01*
X205350000Y-95750000D02*
X203770000Y-97330000D01*
X203770000Y-97330000D02*
X203770000Y-99340000D01*
X141439999Y-71179999D02*
X144009999Y-71179999D01*
X141040000Y-70780000D02*
X141439999Y-71179999D01*
X144029999Y-71199999D02*
X147299999Y-71199999D01*
X144009999Y-71179999D02*
X144029999Y-71199999D01*
%TO.N,DIR_B*%
X141090000Y-71910000D02*
X147080000Y-71910000D01*
X147080000Y-71910000D02*
X147080000Y-71950000D01*
X147080000Y-71950000D02*
X150670000Y-75540000D01*
X150670000Y-75540000D02*
X171360000Y-75540000D01*
X201430000Y-98620000D02*
X202920000Y-97130000D01*
X193260000Y-98620000D02*
X201430000Y-98620000D01*
X202920000Y-97130000D02*
X202740000Y-97310000D01*
X176730000Y-80910000D02*
X173510000Y-77690000D01*
X177080000Y-80910000D02*
X176730000Y-80910000D01*
X171360000Y-75540000D02*
X173510000Y-77690000D01*
X173510000Y-77690000D02*
X173620000Y-77800000D01*
X202920000Y-97130000D02*
X204720000Y-95330000D01*
X204720000Y-86000000D02*
X199610000Y-80890000D01*
X204720000Y-95330000D02*
X204720000Y-86000000D01*
X189510000Y-80900000D02*
X199400000Y-80900000D01*
X199610000Y-80890000D02*
X199410000Y-80890000D01*
X199400000Y-80900000D02*
X199410000Y-80890000D01*
X199410000Y-80890000D02*
X199010000Y-80890000D01*
%TO.N,SWDIO*%
X150870000Y-83610000D02*
X163290000Y-83610000D01*
X149580000Y-84900000D02*
X150870000Y-83610000D01*
X175530000Y-88120000D02*
X181260000Y-88120000D01*
X182580000Y-86800000D02*
X182950000Y-86800000D01*
X181260000Y-88120000D02*
X182580000Y-86800000D01*
X182440000Y-66440000D02*
X182440000Y-65100000D01*
X182000000Y-64660000D02*
X180360000Y-64660000D01*
X183910000Y-81970000D02*
X183910000Y-67910000D01*
X182440000Y-65100000D02*
X182000000Y-64660000D01*
X183910000Y-67910000D02*
X182440000Y-66440000D01*
X138670000Y-76770000D02*
X140250000Y-78350000D01*
X140250000Y-78350000D02*
X140250000Y-82790000D01*
X140250000Y-82790000D02*
X142360000Y-84900000D01*
X142350000Y-84900000D02*
X142360000Y-84900000D01*
X142360000Y-84900000D02*
X149580000Y-84900000D01*
%TO.N,SWCLK*%
X138390000Y-87020000D02*
X149690000Y-87020000D01*
X149690000Y-87020000D02*
X151350000Y-85360000D01*
X185070000Y-68200000D02*
X183070000Y-66200000D01*
X183070000Y-64180000D02*
X180780000Y-61890000D01*
X183070000Y-66200000D02*
X183070000Y-64180000D01*
X163300000Y-85360000D02*
X151350000Y-85360000D01*
X181830000Y-90000000D02*
X185080000Y-86750000D01*
X175580000Y-90000000D02*
X181830000Y-90000000D01*
X186520000Y-82100000D02*
X186520000Y-71660000D01*
X185070000Y-70210000D02*
X185070000Y-68200000D01*
X186520000Y-71660000D02*
X185070000Y-70210000D01*
%TO.N,OP*%
X148050000Y-56990000D02*
X148050000Y-65520000D01*
X148050000Y-65520000D02*
X147860000Y-65710000D01*
X138740000Y-54590000D02*
X145650000Y-54590000D01*
X147860000Y-65710000D02*
X147070000Y-66500000D01*
X145650000Y-54590000D02*
X148050000Y-56990000D01*
%TD*%
M02*
