%TF.GenerationSoftware,KiCad,Pcbnew,(5.1.6)-1*%
%TF.CreationDate,2020-09-14T15:10:24-05:00*%
%TF.ProjectId,Follower_Line_PCB_IM,466f6c6c-6f77-4657-925f-4c696e655f50,Iron Makers*%
%TF.SameCoordinates,Original*%
%TF.FileFunction,Paste,Top*%
%TF.FilePolarity,Positive*%
%FSLAX46Y46*%
G04 Gerber Fmt 4.6, Leading zero omitted, Abs format (unit mm)*
G04 Created by KiCad (PCBNEW (5.1.6)-1) date 2020-09-14 15:10:24*
%MOMM*%
%LPD*%
G01*
G04 APERTURE LIST*
%ADD10C,0.010000*%
%ADD11R,2.108200X1.397000*%
%ADD12R,1.350000X0.650000*%
%ADD13R,1.200000X0.299999*%
%ADD14R,0.299999X1.200000*%
%ADD15R,0.655600X0.800000*%
%ADD16R,1.752600X1.219200*%
%ADD17R,0.800000X0.655600*%
%ADD18R,0.711200X0.889000*%
%ADD19R,0.889000X0.711200*%
%ADD20R,10.464800X10.871200*%
%ADD21R,1.016000X2.692400*%
%ADD22R,5.500000X2.000000*%
%ADD23R,0.558800X1.320800*%
G04 APERTURE END LIST*
D10*
%TO.C,DMB1*%
G36*
X190909300Y-101236700D02*
G01*
X195416000Y-101235850D01*
X195434400Y-105784150D01*
X190927700Y-105785000D01*
X190909300Y-101236700D01*
G37*
X190909300Y-101236700D02*
X195416000Y-101235850D01*
X195434400Y-105784150D01*
X190927700Y-105785000D01*
X190909300Y-101236700D01*
G36*
X192745500Y-99547600D02*
G01*
X193695500Y-99547600D01*
X193700600Y-107457200D01*
X192750600Y-107457200D01*
X192745500Y-99547600D01*
G37*
X192745500Y-99547600D02*
X193695500Y-99547600D01*
X193700600Y-107457200D01*
X192750600Y-107457200D01*
X192745500Y-99547600D01*
%TO.C,DMA1*%
G36*
X79389300Y-101146700D02*
G01*
X83896000Y-101145850D01*
X83914400Y-105694150D01*
X79407700Y-105695000D01*
X79389300Y-101146700D01*
G37*
X79389300Y-101146700D02*
X83896000Y-101145850D01*
X83914400Y-105694150D01*
X79407700Y-105695000D01*
X79389300Y-101146700D01*
G36*
X81225500Y-99457600D02*
G01*
X82175500Y-99457600D01*
X82180600Y-107367200D01*
X81230600Y-107367200D01*
X81225500Y-99457600D01*
G37*
X81225500Y-99457600D02*
X82175500Y-99457600D01*
X82180600Y-107367200D01*
X81230600Y-107367200D01*
X81225500Y-99457600D01*
%TD*%
D11*
%TO.C,RESET1*%
X162123200Y-135230000D03*
X162123200Y-139725800D03*
X153030000Y-139725800D03*
X153030000Y-135230000D03*
%TD*%
%TO.C,BOOT0*%
X126713200Y-135230000D03*
X126713200Y-139725800D03*
X117620000Y-139725800D03*
X117620000Y-135230000D03*
%TD*%
%TO.C,AM1*%
X144453200Y-135230000D03*
X144453200Y-139725800D03*
X135360000Y-139725800D03*
X135360000Y-135230000D03*
%TD*%
D12*
%TO.C,DMB1*%
X198165000Y-101010000D03*
X198165000Y-102010000D03*
X198165000Y-103010000D03*
X198165000Y-104010000D03*
X198165000Y-105010000D03*
X198165000Y-106010000D03*
X188215000Y-106010000D03*
X188215000Y-105010000D03*
X188215000Y-104010000D03*
X188215000Y-103010000D03*
X188215000Y-102010000D03*
X188215000Y-101010000D03*
%TD*%
%TO.C,DMA1*%
X86645000Y-100920000D03*
X86645000Y-101920000D03*
X86645000Y-102920000D03*
X86645000Y-103920000D03*
X86645000Y-104920000D03*
X86645000Y-105920000D03*
X76695000Y-105920000D03*
X76695000Y-104920000D03*
X76695000Y-103920000D03*
X76695000Y-102920000D03*
X76695000Y-101920000D03*
X76695000Y-100920000D03*
%TD*%
D13*
%TO.C,STM32*%
X145280000Y-79590001D03*
X145280000Y-79089999D03*
X145280000Y-78590000D03*
X145280000Y-78089999D03*
X145280000Y-77590000D03*
X145280000Y-77090001D03*
X145280000Y-76589999D03*
X145280000Y-76090000D03*
X145280000Y-75589999D03*
X145280000Y-75090000D03*
X145280000Y-74590001D03*
X145280000Y-74089999D03*
X145280000Y-73590001D03*
X145280000Y-73090001D03*
X145280000Y-72589999D03*
X145280000Y-72090000D03*
X145280000Y-71589999D03*
X145280000Y-71090000D03*
X145280000Y-70590001D03*
X145280000Y-70089999D03*
X145280000Y-69590000D03*
X145280000Y-69089999D03*
X145280000Y-68590000D03*
X145280000Y-68090001D03*
X145280000Y-67589999D03*
D14*
X143530001Y-65840000D03*
X143029999Y-65840000D03*
X142530000Y-65840000D03*
X142029999Y-65840000D03*
X141530000Y-65840000D03*
X141030001Y-65840000D03*
X140529999Y-65840000D03*
X140030000Y-65840000D03*
X139529999Y-65840000D03*
X139030000Y-65840000D03*
X138530001Y-65840000D03*
X138029999Y-65840000D03*
X137529999Y-65840000D03*
X137030001Y-65840000D03*
X136529999Y-65840000D03*
X136030000Y-65840000D03*
X135529999Y-65840000D03*
X135030000Y-65840000D03*
X134530001Y-65840000D03*
X134029999Y-65840000D03*
X133530000Y-65840000D03*
X133029999Y-65840000D03*
X132530000Y-65840000D03*
X132030001Y-65840000D03*
X131529999Y-65840000D03*
D13*
X129780000Y-67589999D03*
X129780000Y-68090001D03*
X129780000Y-68590000D03*
X129780000Y-69089999D03*
X129780000Y-69590000D03*
X129780000Y-70089999D03*
X129780000Y-70590001D03*
X129780000Y-71090000D03*
X129780000Y-71589999D03*
X129780000Y-72090000D03*
X129780000Y-72589999D03*
X129780000Y-73090001D03*
X129780000Y-73590001D03*
X129780000Y-74089999D03*
X129780000Y-74590001D03*
X129780000Y-75090000D03*
X129780000Y-75589999D03*
X129780000Y-76090000D03*
X129780000Y-76589999D03*
X129780000Y-77090001D03*
X129780000Y-77590000D03*
X129780000Y-78089999D03*
X129780000Y-78590000D03*
X129780000Y-79089999D03*
X129780000Y-79590001D03*
D14*
X131529999Y-81340000D03*
X132030001Y-81340000D03*
X132530000Y-81340000D03*
X133029999Y-81340000D03*
X133530000Y-81340000D03*
X134029999Y-81340000D03*
X134530001Y-81340000D03*
X135030000Y-81340000D03*
X135529999Y-81340000D03*
X136030000Y-81340000D03*
X136529999Y-81340000D03*
X137030001Y-81340000D03*
X137529999Y-81340000D03*
X138029999Y-81340000D03*
X138530001Y-81340000D03*
X139030000Y-81340000D03*
X139529999Y-81340000D03*
X140030000Y-81340000D03*
X140529999Y-81340000D03*
X141030001Y-81340000D03*
X141530000Y-81340000D03*
X142029999Y-81340000D03*
X142530000Y-81340000D03*
X143029999Y-81340000D03*
X143530001Y-81340000D03*
%TD*%
D15*
%TO.C,C1*%
X148392200Y-139090000D03*
X150047800Y-139090000D03*
%TD*%
%TO.C,C2*%
X113957800Y-139080000D03*
X112302200Y-139080000D03*
%TD*%
%TO.C,C3*%
X159300000Y-100920000D03*
X157644400Y-100920000D03*
%TD*%
%TO.C,C4*%
X167147800Y-100930000D03*
X165492200Y-100930000D03*
%TD*%
%TO.C,C5*%
X168985200Y-82343800D03*
X167329600Y-82343800D03*
%TD*%
%TO.C,C6*%
X167342800Y-78110800D03*
X168998400Y-78110800D03*
%TD*%
D16*
%TO.C,C7*%
X95470000Y-107112400D03*
X95470000Y-104267600D03*
%TD*%
%TO.C,C8*%
X110740000Y-104550000D03*
X110740000Y-107394800D03*
%TD*%
D15*
%TO.C,C9*%
X112612200Y-100560000D03*
X114267800Y-100560000D03*
%TD*%
%TO.C,C10*%
X114267800Y-98270000D03*
X112612200Y-98270000D03*
%TD*%
%TO.C,C11*%
X112612200Y-96080000D03*
X114267800Y-96080000D03*
%TD*%
%TO.C,C12*%
X114267800Y-93860000D03*
X112612200Y-93860000D03*
%TD*%
%TO.C,C13*%
X112610000Y-91840000D03*
X114265600Y-91840000D03*
%TD*%
D16*
%TO.C,C14*%
X176250000Y-103900000D03*
X176250000Y-101055200D03*
%TD*%
D17*
%TO.C,C15*%
X178950000Y-102347800D03*
X178950000Y-100692200D03*
%TD*%
D15*
%TO.C,C16*%
X132040000Y-139110000D03*
X130384400Y-139110000D03*
%TD*%
D18*
%TO.C,R1*%
X148533000Y-135230000D03*
X149930000Y-135230000D03*
%TD*%
%TO.C,R2*%
X112461500Y-135220000D03*
X113858500Y-135220000D03*
%TD*%
D19*
%TO.C,R3*%
X168550000Y-67958500D03*
X168550000Y-66561500D03*
%TD*%
%TO.C,R4*%
X168572400Y-63916600D03*
X168572400Y-62519600D03*
%TD*%
D18*
%TO.C,R5*%
X131950000Y-135230000D03*
X130553000Y-135230000D03*
%TD*%
D20*
%TO.C,RV-3.3V1*%
X103180000Y-98020000D03*
D21*
X105720000Y-106300400D03*
X103180000Y-106300400D03*
X100640000Y-106300400D03*
%TD*%
D22*
%TO.C,Y1*%
X167140000Y-96330000D03*
X157640000Y-96330000D03*
%TD*%
D23*
%TO.C,Z1*%
X172310000Y-101582750D03*
X173262500Y-103375200D03*
X171357500Y-103375200D03*
%TD*%
M02*
