M48
INCH,TZ
T1C0.0157
T2C0.0394
T3C0.0417
T4C0.0866
T5C0.1177
%
G90
G05
T1
X29800Y-43300
X30700Y-43600
X30917Y-39626
X31000Y-40800
X31035Y-23535
X35098Y-39500
X35110Y-40091
X35300Y-41300
X35602Y-20571
X35800Y-28700
X35800Y-36400
X36200Y-26000
X36500Y-43100
X37307Y-20551
X37600Y-37100
X38402Y-21906
X38600Y-23300
X38800Y-41500
X39000Y-31300
X39000Y-33200
X39300Y-44200
X40200Y-28600
X42100Y-43300
X42100Y-53500
X43700Y-43900
X46100Y-54300
X46200Y-23700
X48571Y-20315
X48600Y-24000
X49500Y-56500
X49657Y-33449
X49764Y-32157
X51854Y-29339
X52295Y-26610
X52300Y-55400
X52600Y-24800
X52776Y-26602
X53130Y-29161
X53850Y-23327
X54315Y-26961
X54484Y-34260
X54594Y-30224
X54622Y-21492
X54634Y-27346
X55528Y-27866
X55547Y-28311
X55563Y-28799
X55626Y-26563
X55748Y-30661
X55800Y-55000
X55831Y-31425
X55984Y-26988
X56232Y-24831
X56453Y-29079
X56516Y-30000
X56571Y-31425
X56594Y-26976
X57421Y-32087
X57843Y-30898
X57882Y-30291
X57902Y-26181
X58083Y-29614
X58185Y-21488
X58618Y-31457
X58776Y-27933
X58900Y-55800
X58969Y-30346
X59020Y-21933
X59295Y-31295
X59622Y-30346
X60315Y-51339
X61413Y-30358
X61465Y-31642
X62071Y-34854
X63654Y-34685
X64287Y-32917
X64291Y-33606
X64500Y-34142
X64815Y-24610
X65100Y-44900
X65453Y-25728
X65878Y-31839
X65900Y-52000
X66433Y-27831
X66976Y-27075
X69106Y-34693
X69126Y-35433
X69559Y-28933
X69717Y-31335
X69717Y-31854
X71008Y-25457
X71173Y-24366
X71323Y-32319
X71378Y-30417
X71394Y-42929
X72028Y-34173
X72224Y-38677
X72406Y-32272
X72866Y-34154
X73433Y-32323
X73685Y-42839
X74598Y-30866
X74610Y-31307
X74610Y-31850
X74831Y-41740
X75417Y-34213
X75799Y-30386
X76016Y-34594
X76087Y-38827
X80220Y-39114
X81146Y-37354
T2
X37398Y-32646
X37398Y-33646
X37398Y-34646
X63866Y-47843
X63866Y-48843
X69528Y-24402
X69528Y-25402
X69528Y-26402
X69528Y-27402
X75016Y-35787
X76016Y-35787
X77016Y-35787
X30531Y-36437
X31531Y-36437
X32531Y-36437
X33531Y-36437
X37413Y-29732
X37413Y-30732
X44461Y-47776
X44461Y-48776
X51154Y-22413
X52154Y-22413
X53154Y-22413
X54154Y-22413
X55154Y-22413
X56154Y-22413
X57154Y-22413
T3
X37646Y-24598
X37646Y-25583
X37646Y-26567
X37646Y-27551
T4
X31139Y-44630
X31139Y-51740
X77030Y-44661
X77030Y-51771
T5
X28146Y-21720
X28150Y-26020
X28150Y-30445
X28154Y-35110
X31571Y-56646
X32768Y-21543
X34110Y-44106
X34185Y-52283
X37539Y-52287
X37587Y-44122
X40787Y-52307
X40795Y-44106
X41220Y-56610
X48028Y-21531
X60504Y-21638
X66996Y-56626
X67598Y-44150
X67673Y-52327
X71031Y-52378
X71075Y-44165
X74260Y-52406
X74283Y-44150
X75764Y-21626
X76646Y-56591
X79803Y-21709
X79807Y-26008
X79807Y-30433
X79811Y-35098
T0
M30
