%TF.GenerationSoftware,KiCad,Pcbnew,(5.1.6)-1*%
%TF.CreationDate,2020-09-14T15:10:25-05:00*%
%TF.ProjectId,Follower_Line_PCB_IM,466f6c6c-6f77-4657-925f-4c696e655f50,Iron Makers*%
%TF.SameCoordinates,Original*%
%TF.FileFunction,Legend,Bot*%
%TF.FilePolarity,Positive*%
%FSLAX46Y46*%
G04 Gerber Fmt 4.6, Leading zero omitted, Abs format (unit mm)*
G04 Created by KiCad (PCBNEW (5.1.6)-1) date 2020-09-14 15:10:25*
%MOMM*%
%LPD*%
G01*
G04 APERTURE LIST*
%ADD10C,0.010000*%
G04 APERTURE END LIST*
D10*
%TO.C,G\u002A\u002A\u002A*%
G36*
X153018997Y-126511420D02*
G01*
X152621955Y-127108955D01*
X152615818Y-127131569D01*
X152295571Y-127593452D01*
X151853700Y-127893409D01*
X151214666Y-128184572D01*
X151214666Y-133970070D01*
X151215321Y-136016262D01*
X151234712Y-137594119D01*
X151298983Y-138764423D01*
X151434277Y-139587954D01*
X151666735Y-140125492D01*
X152022502Y-140437819D01*
X152527718Y-140585714D01*
X153208527Y-140629959D01*
X154079770Y-140631333D01*
X155977166Y-140631333D01*
X155977166Y-143091958D01*
X155940740Y-144443273D01*
X155835806Y-145385042D01*
X155668883Y-145860231D01*
X155659666Y-145870083D01*
X155245311Y-146021075D01*
X154444454Y-146125586D01*
X153397717Y-146183618D01*
X152245718Y-146195171D01*
X151129079Y-146160244D01*
X150188419Y-146078837D01*
X149564358Y-145950950D01*
X149415500Y-145870083D01*
X149307985Y-145589720D01*
X149224683Y-144963335D01*
X149163839Y-143952368D01*
X149123700Y-142518260D01*
X149102511Y-140622450D01*
X149098000Y-138891022D01*
X149097484Y-136721804D01*
X149084152Y-135024195D01*
X149040324Y-133740659D01*
X148948322Y-132813659D01*
X148790467Y-132185660D01*
X148549080Y-131799126D01*
X148206482Y-131596520D01*
X147744994Y-131520307D01*
X147146939Y-131512952D01*
X146832136Y-131516742D01*
X146060813Y-131538051D01*
X145492601Y-131632036D01*
X145094832Y-131869602D01*
X144834841Y-132321657D01*
X144679959Y-133059106D01*
X144597520Y-134152856D01*
X144554857Y-135673812D01*
X144540361Y-136491211D01*
X144467791Y-140763625D01*
X130246437Y-140832069D01*
X127079785Y-140845519D01*
X124403762Y-140852372D01*
X122179862Y-140851829D01*
X120369580Y-140843093D01*
X118934410Y-140825366D01*
X117835846Y-140797851D01*
X117035381Y-140759749D01*
X116494512Y-140710263D01*
X116174731Y-140648595D01*
X116037533Y-140573947D01*
X116025083Y-140537420D01*
X115850457Y-140123136D01*
X115420876Y-139573379D01*
X115327545Y-139476788D01*
X114448786Y-138915364D01*
X113488227Y-138790047D01*
X112569429Y-139049247D01*
X111815953Y-139641379D01*
X111351361Y-140514856D01*
X111262583Y-141173922D01*
X111485821Y-142202463D01*
X112073945Y-142974357D01*
X112904568Y-143439316D01*
X113855306Y-143547051D01*
X114803772Y-143247275D01*
X115327545Y-142844212D01*
X115784020Y-142331659D01*
X116017272Y-141960091D01*
X116025083Y-141918170D01*
X116281560Y-141874714D01*
X117018574Y-141833962D01*
X118187500Y-141796708D01*
X119739710Y-141763741D01*
X121626578Y-141735853D01*
X123799480Y-141713836D01*
X126209787Y-141698482D01*
X128808875Y-141690580D01*
X130065394Y-141689666D01*
X133596851Y-141684362D01*
X136655846Y-141668562D01*
X139233404Y-141642435D01*
X141320551Y-141606149D01*
X142908314Y-141559875D01*
X143058501Y-141552070D01*
X115695645Y-141552070D01*
X115316831Y-142392967D01*
X115111068Y-142627735D01*
X114334670Y-143164960D01*
X113486274Y-143225500D01*
X112748123Y-142978262D01*
X112033594Y-142404467D01*
X111683362Y-141602462D01*
X111693088Y-140723674D01*
X112058435Y-139919531D01*
X112775067Y-139341464D01*
X112853276Y-139307094D01*
X113811054Y-139138577D01*
X114646846Y-139385690D01*
X115287986Y-139941558D01*
X115661807Y-140699309D01*
X115695645Y-141552070D01*
X143058501Y-141552070D01*
X143987717Y-141503780D01*
X144549786Y-141438033D01*
X144617477Y-141415774D01*
X144811065Y-141275435D01*
X144948761Y-141040385D01*
X145039979Y-140628850D01*
X145094134Y-139959057D01*
X145120641Y-138949232D01*
X145128915Y-137517602D01*
X145129249Y-136970774D01*
X145146588Y-135138604D01*
X145200020Y-133804471D01*
X145291669Y-132938334D01*
X145423662Y-132510155D01*
X145446750Y-132482166D01*
X145950468Y-132261647D01*
X146727492Y-132175148D01*
X147539216Y-132222668D01*
X148147032Y-132404208D01*
X148251333Y-132482166D01*
X148360434Y-132767004D01*
X148444890Y-133402995D01*
X148506508Y-134428439D01*
X148547096Y-135881635D01*
X148568461Y-137800881D01*
X148572884Y-139295187D01*
X148581860Y-141107743D01*
X148604933Y-142751132D01*
X148639823Y-144149180D01*
X148684251Y-145225717D01*
X148735935Y-145904569D01*
X148776707Y-146104885D01*
X149154993Y-146421907D01*
X149715921Y-146700197D01*
X150433773Y-146856302D01*
X151478714Y-146945991D01*
X152685989Y-146970934D01*
X153890847Y-146932799D01*
X154928533Y-146833254D01*
X155634296Y-146673966D01*
X155712583Y-146639476D01*
X156005959Y-146464821D01*
X156200291Y-146225548D01*
X156319914Y-145816885D01*
X156389164Y-145134059D01*
X156432376Y-144072297D01*
X156449138Y-143468377D01*
X156524235Y-140631333D01*
X158367367Y-140631333D01*
X159251926Y-140625783D01*
X159935571Y-140568887D01*
X160444174Y-140400276D01*
X160803611Y-140059580D01*
X161039753Y-139486432D01*
X161178475Y-138620461D01*
X161245650Y-137401299D01*
X161267150Y-135768576D01*
X161268833Y-133861475D01*
X161268833Y-128149951D01*
X160560197Y-127882471D01*
X159368656Y-127882471D01*
X159317140Y-128657131D01*
X159054957Y-129230639D01*
X158659155Y-129461987D01*
X158517144Y-129440817D01*
X158330523Y-129143308D01*
X158186134Y-128496110D01*
X158144648Y-128088677D01*
X158115522Y-127334688D01*
X158195847Y-126979547D01*
X158443424Y-126895462D01*
X158673815Y-126918735D01*
X159126699Y-127111263D01*
X159334643Y-127618243D01*
X159368656Y-127882471D01*
X160560197Y-127882471D01*
X160486445Y-127854633D01*
X159872610Y-127461457D01*
X159626550Y-127017720D01*
X159337996Y-126565902D01*
X158775693Y-126372506D01*
X158152421Y-126487855D01*
X157946978Y-126620503D01*
X157708202Y-127085200D01*
X157584592Y-127844115D01*
X157588053Y-128672472D01*
X157730488Y-129345496D01*
X157795864Y-129473874D01*
X158208442Y-129708316D01*
X158784000Y-129738457D01*
X159392370Y-129538765D01*
X159632983Y-129058185D01*
X159635616Y-129040346D01*
X159857521Y-128565858D01*
X160164782Y-128514607D01*
X160319764Y-128594403D01*
X160436619Y-128811992D01*
X160522193Y-129236312D01*
X160583332Y-129936303D01*
X160626879Y-130980904D01*
X160659680Y-132439052D01*
X160679257Y-133696123D01*
X160691585Y-135682495D01*
X160668499Y-137282941D01*
X160611524Y-138456224D01*
X160522183Y-139161106D01*
X160471510Y-139315092D01*
X160327002Y-139517785D01*
X160089911Y-139660182D01*
X159675410Y-139752816D01*
X158998672Y-139806226D01*
X157974871Y-139830946D01*
X156519178Y-139837513D01*
X156264837Y-139837583D01*
X154634033Y-139825546D01*
X153462538Y-139785447D01*
X152680955Y-139711302D01*
X152219887Y-139597126D01*
X152035112Y-139472875D01*
X151919292Y-139106613D01*
X151840626Y-138314157D01*
X151797972Y-137067816D01*
X151790188Y-135339899D01*
X151804278Y-133872326D01*
X151844527Y-131863690D01*
X151906697Y-130353464D01*
X151996287Y-129311147D01*
X152118797Y-128706236D01*
X152279725Y-128508230D01*
X152484572Y-128686628D01*
X152672853Y-129054820D01*
X153127733Y-129567863D01*
X153765387Y-129747257D01*
X154375242Y-129559064D01*
X154573280Y-129361099D01*
X154878286Y-128611803D01*
X154884663Y-128450047D01*
X154405148Y-128450047D01*
X154272277Y-128995206D01*
X154204131Y-129087007D01*
X153772188Y-129264990D01*
X153391586Y-128993653D01*
X153148538Y-128351693D01*
X153114845Y-128092704D01*
X153142615Y-127184365D01*
X153416040Y-126740886D01*
X153938671Y-126756593D01*
X153948548Y-126760342D01*
X154218263Y-127104842D01*
X154378803Y-127744001D01*
X154405148Y-128450047D01*
X154884663Y-128450047D01*
X154913079Y-127729358D01*
X154694863Y-126932730D01*
X154348760Y-126503711D01*
X153656965Y-126287077D01*
X153018997Y-126511420D01*
G37*
X153018997Y-126511420D02*
X152621955Y-127108955D01*
X152615818Y-127131569D01*
X152295571Y-127593452D01*
X151853700Y-127893409D01*
X151214666Y-128184572D01*
X151214666Y-133970070D01*
X151215321Y-136016262D01*
X151234712Y-137594119D01*
X151298983Y-138764423D01*
X151434277Y-139587954D01*
X151666735Y-140125492D01*
X152022502Y-140437819D01*
X152527718Y-140585714D01*
X153208527Y-140629959D01*
X154079770Y-140631333D01*
X155977166Y-140631333D01*
X155977166Y-143091958D01*
X155940740Y-144443273D01*
X155835806Y-145385042D01*
X155668883Y-145860231D01*
X155659666Y-145870083D01*
X155245311Y-146021075D01*
X154444454Y-146125586D01*
X153397717Y-146183618D01*
X152245718Y-146195171D01*
X151129079Y-146160244D01*
X150188419Y-146078837D01*
X149564358Y-145950950D01*
X149415500Y-145870083D01*
X149307985Y-145589720D01*
X149224683Y-144963335D01*
X149163839Y-143952368D01*
X149123700Y-142518260D01*
X149102511Y-140622450D01*
X149098000Y-138891022D01*
X149097484Y-136721804D01*
X149084152Y-135024195D01*
X149040324Y-133740659D01*
X148948322Y-132813659D01*
X148790467Y-132185660D01*
X148549080Y-131799126D01*
X148206482Y-131596520D01*
X147744994Y-131520307D01*
X147146939Y-131512952D01*
X146832136Y-131516742D01*
X146060813Y-131538051D01*
X145492601Y-131632036D01*
X145094832Y-131869602D01*
X144834841Y-132321657D01*
X144679959Y-133059106D01*
X144597520Y-134152856D01*
X144554857Y-135673812D01*
X144540361Y-136491211D01*
X144467791Y-140763625D01*
X130246437Y-140832069D01*
X127079785Y-140845519D01*
X124403762Y-140852372D01*
X122179862Y-140851829D01*
X120369580Y-140843093D01*
X118934410Y-140825366D01*
X117835846Y-140797851D01*
X117035381Y-140759749D01*
X116494512Y-140710263D01*
X116174731Y-140648595D01*
X116037533Y-140573947D01*
X116025083Y-140537420D01*
X115850457Y-140123136D01*
X115420876Y-139573379D01*
X115327545Y-139476788D01*
X114448786Y-138915364D01*
X113488227Y-138790047D01*
X112569429Y-139049247D01*
X111815953Y-139641379D01*
X111351361Y-140514856D01*
X111262583Y-141173922D01*
X111485821Y-142202463D01*
X112073945Y-142974357D01*
X112904568Y-143439316D01*
X113855306Y-143547051D01*
X114803772Y-143247275D01*
X115327545Y-142844212D01*
X115784020Y-142331659D01*
X116017272Y-141960091D01*
X116025083Y-141918170D01*
X116281560Y-141874714D01*
X117018574Y-141833962D01*
X118187500Y-141796708D01*
X119739710Y-141763741D01*
X121626578Y-141735853D01*
X123799480Y-141713836D01*
X126209787Y-141698482D01*
X128808875Y-141690580D01*
X130065394Y-141689666D01*
X133596851Y-141684362D01*
X136655846Y-141668562D01*
X139233404Y-141642435D01*
X141320551Y-141606149D01*
X142908314Y-141559875D01*
X143058501Y-141552070D01*
X115695645Y-141552070D01*
X115316831Y-142392967D01*
X115111068Y-142627735D01*
X114334670Y-143164960D01*
X113486274Y-143225500D01*
X112748123Y-142978262D01*
X112033594Y-142404467D01*
X111683362Y-141602462D01*
X111693088Y-140723674D01*
X112058435Y-139919531D01*
X112775067Y-139341464D01*
X112853276Y-139307094D01*
X113811054Y-139138577D01*
X114646846Y-139385690D01*
X115287986Y-139941558D01*
X115661807Y-140699309D01*
X115695645Y-141552070D01*
X143058501Y-141552070D01*
X143987717Y-141503780D01*
X144549786Y-141438033D01*
X144617477Y-141415774D01*
X144811065Y-141275435D01*
X144948761Y-141040385D01*
X145039979Y-140628850D01*
X145094134Y-139959057D01*
X145120641Y-138949232D01*
X145128915Y-137517602D01*
X145129249Y-136970774D01*
X145146588Y-135138604D01*
X145200020Y-133804471D01*
X145291669Y-132938334D01*
X145423662Y-132510155D01*
X145446750Y-132482166D01*
X145950468Y-132261647D01*
X146727492Y-132175148D01*
X147539216Y-132222668D01*
X148147032Y-132404208D01*
X148251333Y-132482166D01*
X148360434Y-132767004D01*
X148444890Y-133402995D01*
X148506508Y-134428439D01*
X148547096Y-135881635D01*
X148568461Y-137800881D01*
X148572884Y-139295187D01*
X148581860Y-141107743D01*
X148604933Y-142751132D01*
X148639823Y-144149180D01*
X148684251Y-145225717D01*
X148735935Y-145904569D01*
X148776707Y-146104885D01*
X149154993Y-146421907D01*
X149715921Y-146700197D01*
X150433773Y-146856302D01*
X151478714Y-146945991D01*
X152685989Y-146970934D01*
X153890847Y-146932799D01*
X154928533Y-146833254D01*
X155634296Y-146673966D01*
X155712583Y-146639476D01*
X156005959Y-146464821D01*
X156200291Y-146225548D01*
X156319914Y-145816885D01*
X156389164Y-145134059D01*
X156432376Y-144072297D01*
X156449138Y-143468377D01*
X156524235Y-140631333D01*
X158367367Y-140631333D01*
X159251926Y-140625783D01*
X159935571Y-140568887D01*
X160444174Y-140400276D01*
X160803611Y-140059580D01*
X161039753Y-139486432D01*
X161178475Y-138620461D01*
X161245650Y-137401299D01*
X161267150Y-135768576D01*
X161268833Y-133861475D01*
X161268833Y-128149951D01*
X160560197Y-127882471D01*
X159368656Y-127882471D01*
X159317140Y-128657131D01*
X159054957Y-129230639D01*
X158659155Y-129461987D01*
X158517144Y-129440817D01*
X158330523Y-129143308D01*
X158186134Y-128496110D01*
X158144648Y-128088677D01*
X158115522Y-127334688D01*
X158195847Y-126979547D01*
X158443424Y-126895462D01*
X158673815Y-126918735D01*
X159126699Y-127111263D01*
X159334643Y-127618243D01*
X159368656Y-127882471D01*
X160560197Y-127882471D01*
X160486445Y-127854633D01*
X159872610Y-127461457D01*
X159626550Y-127017720D01*
X159337996Y-126565902D01*
X158775693Y-126372506D01*
X158152421Y-126487855D01*
X157946978Y-126620503D01*
X157708202Y-127085200D01*
X157584592Y-127844115D01*
X157588053Y-128672472D01*
X157730488Y-129345496D01*
X157795864Y-129473874D01*
X158208442Y-129708316D01*
X158784000Y-129738457D01*
X159392370Y-129538765D01*
X159632983Y-129058185D01*
X159635616Y-129040346D01*
X159857521Y-128565858D01*
X160164782Y-128514607D01*
X160319764Y-128594403D01*
X160436619Y-128811992D01*
X160522193Y-129236312D01*
X160583332Y-129936303D01*
X160626879Y-130980904D01*
X160659680Y-132439052D01*
X160679257Y-133696123D01*
X160691585Y-135682495D01*
X160668499Y-137282941D01*
X160611524Y-138456224D01*
X160522183Y-139161106D01*
X160471510Y-139315092D01*
X160327002Y-139517785D01*
X160089911Y-139660182D01*
X159675410Y-139752816D01*
X158998672Y-139806226D01*
X157974871Y-139830946D01*
X156519178Y-139837513D01*
X156264837Y-139837583D01*
X154634033Y-139825546D01*
X153462538Y-139785447D01*
X152680955Y-139711302D01*
X152219887Y-139597126D01*
X152035112Y-139472875D01*
X151919292Y-139106613D01*
X151840626Y-138314157D01*
X151797972Y-137067816D01*
X151790188Y-135339899D01*
X151804278Y-133872326D01*
X151844527Y-131863690D01*
X151906697Y-130353464D01*
X151996287Y-129311147D01*
X152118797Y-128706236D01*
X152279725Y-128508230D01*
X152484572Y-128686628D01*
X152672853Y-129054820D01*
X153127733Y-129567863D01*
X153765387Y-129747257D01*
X154375242Y-129559064D01*
X154573280Y-129361099D01*
X154878286Y-128611803D01*
X154884663Y-128450047D01*
X154405148Y-128450047D01*
X154272277Y-128995206D01*
X154204131Y-129087007D01*
X153772188Y-129264990D01*
X153391586Y-128993653D01*
X153148538Y-128351693D01*
X153114845Y-128092704D01*
X153142615Y-127184365D01*
X153416040Y-126740886D01*
X153938671Y-126756593D01*
X153948548Y-126760342D01*
X154218263Y-127104842D01*
X154378803Y-127744001D01*
X154405148Y-128450047D01*
X154884663Y-128450047D01*
X154913079Y-127729358D01*
X154694863Y-126932730D01*
X154348760Y-126503711D01*
X153656965Y-126287077D01*
X153018997Y-126511420D01*
G36*
X138935715Y-132175624D02*
G01*
X138833508Y-132267176D01*
X138892574Y-132527346D01*
X139139791Y-133044153D01*
X139602040Y-133905620D01*
X139833861Y-134331005D01*
X140475782Y-135636825D01*
X140812804Y-136670393D01*
X140892195Y-137390187D01*
X140953369Y-138151763D01*
X141151135Y-138482751D01*
X141292791Y-138514666D01*
X141553727Y-138359654D01*
X141673065Y-137832025D01*
X141689666Y-137317436D01*
X141830488Y-136248150D01*
X142279410Y-134989994D01*
X142615708Y-134281333D01*
X143117009Y-133277615D01*
X143402198Y-132655218D01*
X143493529Y-132323022D01*
X143413255Y-132189909D01*
X143183630Y-132164760D01*
X143132653Y-132164666D01*
X142797830Y-132401995D01*
X142362078Y-133055645D01*
X141982252Y-133818312D01*
X141240948Y-135471958D01*
X140403165Y-133818312D01*
X139933652Y-132995038D01*
X139495927Y-132403026D01*
X139181396Y-132165083D01*
X139172316Y-132164666D01*
X138935715Y-132175624D01*
G37*
X138935715Y-132175624D02*
X138833508Y-132267176D01*
X138892574Y-132527346D01*
X139139791Y-133044153D01*
X139602040Y-133905620D01*
X139833861Y-134331005D01*
X140475782Y-135636825D01*
X140812804Y-136670393D01*
X140892195Y-137390187D01*
X140953369Y-138151763D01*
X141151135Y-138482751D01*
X141292791Y-138514666D01*
X141553727Y-138359654D01*
X141673065Y-137832025D01*
X141689666Y-137317436D01*
X141830488Y-136248150D01*
X142279410Y-134989994D01*
X142615708Y-134281333D01*
X143117009Y-133277615D01*
X143402198Y-132655218D01*
X143493529Y-132323022D01*
X143413255Y-132189909D01*
X143183630Y-132164760D01*
X143132653Y-132164666D01*
X142797830Y-132401995D01*
X142362078Y-133055645D01*
X141982252Y-133818312D01*
X141240948Y-135471958D01*
X140403165Y-133818312D01*
X139933652Y-132995038D01*
X139495927Y-132403026D01*
X139181396Y-132165083D01*
X139172316Y-132164666D01*
X138935715Y-132175624D01*
G36*
X136680864Y-133825219D02*
G01*
X135772223Y-134300537D01*
X135243779Y-135020591D01*
X135029134Y-135974793D01*
X135132836Y-136967890D01*
X135559434Y-137804633D01*
X135687448Y-137939379D01*
X136546366Y-138413659D01*
X137541090Y-138469425D01*
X138445232Y-138110187D01*
X138963261Y-137458265D01*
X139220118Y-136526581D01*
X139203289Y-136133417D01*
X138370348Y-136133417D01*
X138211625Y-137073038D01*
X137797112Y-137706516D01*
X137219298Y-137970161D01*
X136570669Y-137800282D01*
X136284607Y-137569726D01*
X135940997Y-136941483D01*
X135862287Y-136140167D01*
X136012175Y-135326411D01*
X136354357Y-134660849D01*
X136852529Y-134304117D01*
X137027787Y-134281333D01*
X137731922Y-134516958D01*
X138200748Y-135165050D01*
X138370348Y-136133417D01*
X139203289Y-136133417D01*
X139176844Y-135515620D01*
X139037818Y-135060562D01*
X138447672Y-134209061D01*
X137626148Y-133788931D01*
X136680864Y-133825219D01*
G37*
X136680864Y-133825219D02*
X135772223Y-134300537D01*
X135243779Y-135020591D01*
X135029134Y-135974793D01*
X135132836Y-136967890D01*
X135559434Y-137804633D01*
X135687448Y-137939379D01*
X136546366Y-138413659D01*
X137541090Y-138469425D01*
X138445232Y-138110187D01*
X138963261Y-137458265D01*
X139220118Y-136526581D01*
X139203289Y-136133417D01*
X138370348Y-136133417D01*
X138211625Y-137073038D01*
X137797112Y-137706516D01*
X137219298Y-137970161D01*
X136570669Y-137800282D01*
X136284607Y-137569726D01*
X135940997Y-136941483D01*
X135862287Y-136140167D01*
X136012175Y-135326411D01*
X136354357Y-134660849D01*
X136852529Y-134304117D01*
X137027787Y-134281333D01*
X137731922Y-134516958D01*
X138200748Y-135165050D01*
X138370348Y-136133417D01*
X139203289Y-136133417D01*
X139176844Y-135515620D01*
X139037818Y-135060562D01*
X138447672Y-134209061D01*
X137626148Y-133788931D01*
X136680864Y-133825219D01*
G36*
X131275424Y-132341404D02*
G01*
X130117644Y-132863881D01*
X129358278Y-133720495D01*
X129011312Y-134899644D01*
X128989666Y-135339667D01*
X129202751Y-136618806D01*
X129832679Y-137579095D01*
X130865461Y-138208931D01*
X132287110Y-138496713D01*
X132817626Y-138514666D01*
X134016750Y-138514666D01*
X134016750Y-132958416D01*
X133223000Y-132958416D01*
X133223000Y-137720917D01*
X132152640Y-137720917D01*
X131193064Y-137580420D01*
X130460473Y-137098785D01*
X130432848Y-137071485D01*
X129940344Y-136354672D01*
X129784100Y-135425034D01*
X129783416Y-135339667D01*
X129996734Y-134214106D01*
X130607502Y-133422722D01*
X131571943Y-133009513D01*
X132152640Y-132958416D01*
X133223000Y-132958416D01*
X134016750Y-132958416D01*
X134016750Y-132164666D01*
X132817626Y-132164666D01*
X131275424Y-132341404D01*
G37*
X131275424Y-132341404D02*
X130117644Y-132863881D01*
X129358278Y-133720495D01*
X129011312Y-134899644D01*
X128989666Y-135339667D01*
X129202751Y-136618806D01*
X129832679Y-137579095D01*
X130865461Y-138208931D01*
X132287110Y-138496713D01*
X132817626Y-138514666D01*
X134016750Y-138514666D01*
X134016750Y-132958416D01*
X133223000Y-132958416D01*
X133223000Y-137720917D01*
X132152640Y-137720917D01*
X131193064Y-137580420D01*
X130460473Y-137098785D01*
X130432848Y-137071485D01*
X129940344Y-136354672D01*
X129784100Y-135425034D01*
X129783416Y-135339667D01*
X129996734Y-134214106D01*
X130607502Y-133422722D01*
X131571943Y-133009513D01*
X132152640Y-132958416D01*
X133223000Y-132958416D01*
X134016750Y-132958416D01*
X134016750Y-132164666D01*
X132817626Y-132164666D01*
X131275424Y-132341404D01*
G36*
X124113373Y-132371811D02*
G01*
X123166617Y-132979076D01*
X122580463Y-133965204D01*
X122375165Y-135308941D01*
X122375083Y-135339667D01*
X122572467Y-136690418D01*
X123151117Y-137683991D01*
X124090780Y-138299131D01*
X125371200Y-138514580D01*
X125400478Y-138514666D01*
X126353524Y-138317526D01*
X127199554Y-137742620D01*
X127682446Y-137264994D01*
X127941633Y-136808551D01*
X128045757Y-136182407D01*
X128063624Y-135339667D01*
X128054686Y-134998561D01*
X127304024Y-134998561D01*
X127232666Y-136177590D01*
X126747556Y-137118067D01*
X126074035Y-137643765D01*
X125196719Y-137851849D01*
X124358746Y-137551527D01*
X123764145Y-137023322D01*
X123284564Y-136161468D01*
X123165509Y-135156032D01*
X123378598Y-134168536D01*
X123895446Y-133360499D01*
X124477421Y-132964351D01*
X125447290Y-132802520D01*
X126294390Y-133108764D01*
X126935935Y-133823505D01*
X127289138Y-134887163D01*
X127304024Y-134998561D01*
X128054686Y-134998561D01*
X128039167Y-134406371D01*
X127920035Y-133810717D01*
X127637589Y-133361820D01*
X127199554Y-132936713D01*
X126283961Y-132331955D01*
X125400478Y-132164666D01*
X124113373Y-132371811D01*
G37*
X124113373Y-132371811D02*
X123166617Y-132979076D01*
X122580463Y-133965204D01*
X122375165Y-135308941D01*
X122375083Y-135339667D01*
X122572467Y-136690418D01*
X123151117Y-137683991D01*
X124090780Y-138299131D01*
X125371200Y-138514580D01*
X125400478Y-138514666D01*
X126353524Y-138317526D01*
X127199554Y-137742620D01*
X127682446Y-137264994D01*
X127941633Y-136808551D01*
X128045757Y-136182407D01*
X128063624Y-135339667D01*
X128054686Y-134998561D01*
X127304024Y-134998561D01*
X127232666Y-136177590D01*
X126747556Y-137118067D01*
X126074035Y-137643765D01*
X125196719Y-137851849D01*
X124358746Y-137551527D01*
X123764145Y-137023322D01*
X123284564Y-136161468D01*
X123165509Y-135156032D01*
X123378598Y-134168536D01*
X123895446Y-133360499D01*
X124477421Y-132964351D01*
X125447290Y-132802520D01*
X126294390Y-133108764D01*
X126935935Y-133823505D01*
X127289138Y-134887163D01*
X127304024Y-134998561D01*
X128054686Y-134998561D01*
X128039167Y-134406371D01*
X127920035Y-133810717D01*
X127637589Y-133361820D01*
X127199554Y-132936713D01*
X126283961Y-132331955D01*
X125400478Y-132164666D01*
X124113373Y-132371811D01*
G36*
X117553830Y-132353206D02*
G01*
X116764744Y-132954980D01*
X116417902Y-133495427D01*
X116167824Y-134027695D01*
X116198331Y-134241566D01*
X116533205Y-134281322D01*
X116547455Y-134281333D01*
X116980292Y-134131159D01*
X117083416Y-133916855D01*
X117336249Y-133366233D01*
X118063215Y-132943237D01*
X118467300Y-132820384D01*
X119028331Y-132780486D01*
X119547181Y-133040849D01*
X119987174Y-133440219D01*
X120635107Y-134423056D01*
X120782998Y-135535956D01*
X120447739Y-136657369D01*
X119845070Y-137387870D01*
X119056035Y-137751418D01*
X118225874Y-137739833D01*
X117499830Y-137344935D01*
X117135125Y-136843919D01*
X116807151Y-136407852D01*
X116408194Y-136136593D01*
X116100101Y-136112530D01*
X116025083Y-136278847D01*
X116186446Y-136771047D01*
X116571518Y-137416458D01*
X117031777Y-137992184D01*
X117333344Y-138242240D01*
X118191561Y-138473939D01*
X119225682Y-138451911D01*
X120152537Y-138185621D01*
X120229293Y-138145439D01*
X121044351Y-137402754D01*
X121486795Y-136289955D01*
X121571957Y-135392673D01*
X121387448Y-134031277D01*
X120825980Y-133020518D01*
X119913405Y-132388869D01*
X118675572Y-132164800D01*
X118641073Y-132164667D01*
X117553830Y-132353206D01*
G37*
X117553830Y-132353206D02*
X116764744Y-132954980D01*
X116417902Y-133495427D01*
X116167824Y-134027695D01*
X116198331Y-134241566D01*
X116533205Y-134281322D01*
X116547455Y-134281333D01*
X116980292Y-134131159D01*
X117083416Y-133916855D01*
X117336249Y-133366233D01*
X118063215Y-132943237D01*
X118467300Y-132820384D01*
X119028331Y-132780486D01*
X119547181Y-133040849D01*
X119987174Y-133440219D01*
X120635107Y-134423056D01*
X120782998Y-135535956D01*
X120447739Y-136657369D01*
X119845070Y-137387870D01*
X119056035Y-137751418D01*
X118225874Y-137739833D01*
X117499830Y-137344935D01*
X117135125Y-136843919D01*
X116807151Y-136407852D01*
X116408194Y-136136593D01*
X116100101Y-136112530D01*
X116025083Y-136278847D01*
X116186446Y-136771047D01*
X116571518Y-137416458D01*
X117031777Y-137992184D01*
X117333344Y-138242240D01*
X118191561Y-138473939D01*
X119225682Y-138451911D01*
X120152537Y-138185621D01*
X120229293Y-138145439D01*
X121044351Y-137402754D01*
X121486795Y-136289955D01*
X121571957Y-135392673D01*
X121387448Y-134031277D01*
X120825980Y-133020518D01*
X119913405Y-132388869D01*
X118675572Y-132164800D01*
X118641073Y-132164667D01*
X117553830Y-132353206D01*
G36*
X113067852Y-139752573D02*
G01*
X112585499Y-140102166D01*
X112189092Y-140678147D01*
X112056333Y-141160500D01*
X112235906Y-141736481D01*
X112585499Y-142218833D01*
X113161480Y-142615241D01*
X113643833Y-142748000D01*
X114219814Y-142568427D01*
X114702166Y-142218833D01*
X115098574Y-141642852D01*
X115231333Y-141160500D01*
X115125502Y-140849013D01*
X114656944Y-140849013D01*
X114656336Y-141668044D01*
X114331918Y-142091951D01*
X113639550Y-142174834D01*
X113579506Y-142169587D01*
X112998986Y-142061200D01*
X112762104Y-141772841D01*
X112717791Y-141160500D01*
X112758749Y-140539837D01*
X112989831Y-140285299D01*
X113573347Y-140234573D01*
X113643833Y-140234458D01*
X114291180Y-140297288D01*
X114582733Y-140552611D01*
X114656944Y-140849013D01*
X115125502Y-140849013D01*
X115007357Y-140501289D01*
X114466770Y-139911769D01*
X113806582Y-139588949D01*
X113643833Y-139573000D01*
X113067852Y-139752573D01*
G37*
X113067852Y-139752573D02*
X112585499Y-140102166D01*
X112189092Y-140678147D01*
X112056333Y-141160500D01*
X112235906Y-141736481D01*
X112585499Y-142218833D01*
X113161480Y-142615241D01*
X113643833Y-142748000D01*
X114219814Y-142568427D01*
X114702166Y-142218833D01*
X115098574Y-141642852D01*
X115231333Y-141160500D01*
X115125502Y-140849013D01*
X114656944Y-140849013D01*
X114656336Y-141668044D01*
X114331918Y-142091951D01*
X113639550Y-142174834D01*
X113579506Y-142169587D01*
X112998986Y-142061200D01*
X112762104Y-141772841D01*
X112717791Y-141160500D01*
X112758749Y-140539837D01*
X112989831Y-140285299D01*
X113573347Y-140234573D01*
X113643833Y-140234458D01*
X114291180Y-140297288D01*
X114582733Y-140552611D01*
X114656944Y-140849013D01*
X115125502Y-140849013D01*
X115007357Y-140501289D01*
X114466770Y-139911769D01*
X113806582Y-139588949D01*
X113643833Y-139573000D01*
X113067852Y-139752573D01*
G36*
X154545225Y-83834633D02*
G01*
X153624402Y-83844392D01*
X153007862Y-83859130D01*
X152910646Y-83864222D01*
X152658146Y-84075063D01*
X152585185Y-84480044D01*
X152709867Y-84807402D01*
X152844500Y-84857167D01*
X153081708Y-85070382D01*
X153109084Y-85239039D01*
X153307931Y-85664664D01*
X153693620Y-86030336D01*
X154077275Y-86389340D01*
X154021120Y-86690632D01*
X153958203Y-86759714D01*
X153670488Y-87185365D01*
X153709790Y-87467168D01*
X153840093Y-87503000D01*
X154087820Y-87290188D01*
X154303114Y-86907687D01*
X154646829Y-86472984D01*
X155267336Y-86317987D01*
X155490333Y-86312375D01*
X156209690Y-86410732D01*
X156606623Y-86765914D01*
X156677553Y-86907687D01*
X157009355Y-87425525D01*
X157327222Y-87419770D01*
X157475863Y-87236548D01*
X157418807Y-86934054D01*
X157226895Y-86811365D01*
X156846166Y-86535951D01*
X156973962Y-86255115D01*
X157342417Y-86103420D01*
X157776635Y-85766331D01*
X157871583Y-85263197D01*
X157952919Y-84797786D01*
X158028634Y-84767660D01*
X156958373Y-84767660D01*
X156759286Y-85063885D01*
X156548667Y-85121750D01*
X156203666Y-84931259D01*
X156163091Y-84875449D01*
X156171341Y-84724875D01*
X154961167Y-84724875D01*
X154749377Y-85075651D01*
X154564292Y-85121750D01*
X154213515Y-84909960D01*
X154167417Y-84724875D01*
X154379207Y-84374098D01*
X154564292Y-84328000D01*
X154915068Y-84539790D01*
X154961167Y-84724875D01*
X156171341Y-84724875D01*
X156180277Y-84561799D01*
X156498358Y-84394233D01*
X156817566Y-84462959D01*
X156958373Y-84767660D01*
X158028634Y-84767660D01*
X158136167Y-84724875D01*
X158350084Y-84650160D01*
X158400750Y-84387712D01*
X158195537Y-83950647D01*
X157937729Y-83852894D01*
X157466584Y-83838983D01*
X156632997Y-83831553D01*
X155603651Y-83830228D01*
X154545225Y-83834633D01*
G37*
X154545225Y-83834633D02*
X153624402Y-83844392D01*
X153007862Y-83859130D01*
X152910646Y-83864222D01*
X152658146Y-84075063D01*
X152585185Y-84480044D01*
X152709867Y-84807402D01*
X152844500Y-84857167D01*
X153081708Y-85070382D01*
X153109084Y-85239039D01*
X153307931Y-85664664D01*
X153693620Y-86030336D01*
X154077275Y-86389340D01*
X154021120Y-86690632D01*
X153958203Y-86759714D01*
X153670488Y-87185365D01*
X153709790Y-87467168D01*
X153840093Y-87503000D01*
X154087820Y-87290188D01*
X154303114Y-86907687D01*
X154646829Y-86472984D01*
X155267336Y-86317987D01*
X155490333Y-86312375D01*
X156209690Y-86410732D01*
X156606623Y-86765914D01*
X156677553Y-86907687D01*
X157009355Y-87425525D01*
X157327222Y-87419770D01*
X157475863Y-87236548D01*
X157418807Y-86934054D01*
X157226895Y-86811365D01*
X156846166Y-86535951D01*
X156973962Y-86255115D01*
X157342417Y-86103420D01*
X157776635Y-85766331D01*
X157871583Y-85263197D01*
X157952919Y-84797786D01*
X158028634Y-84767660D01*
X156958373Y-84767660D01*
X156759286Y-85063885D01*
X156548667Y-85121750D01*
X156203666Y-84931259D01*
X156163091Y-84875449D01*
X156171341Y-84724875D01*
X154961167Y-84724875D01*
X154749377Y-85075651D01*
X154564292Y-85121750D01*
X154213515Y-84909960D01*
X154167417Y-84724875D01*
X154379207Y-84374098D01*
X154564292Y-84328000D01*
X154915068Y-84539790D01*
X154961167Y-84724875D01*
X156171341Y-84724875D01*
X156180277Y-84561799D01*
X156498358Y-84394233D01*
X156817566Y-84462959D01*
X156958373Y-84767660D01*
X158028634Y-84767660D01*
X158136167Y-84724875D01*
X158350084Y-84650160D01*
X158400750Y-84387712D01*
X158195537Y-83950647D01*
X157937729Y-83852894D01*
X157466584Y-83838983D01*
X156632997Y-83831553D01*
X155603651Y-83830228D01*
X154545225Y-83834633D01*
G36*
X143127729Y-78028174D02*
G01*
X142142208Y-78110292D01*
X141817140Y-80060290D01*
X141647133Y-81013257D01*
X141496533Y-81740036D01*
X141394286Y-82102916D01*
X141384687Y-82117674D01*
X141299773Y-81939652D01*
X141189095Y-81368374D01*
X141098990Y-80707896D01*
X140943967Y-79476688D01*
X140794111Y-78681752D01*
X140600625Y-78232952D01*
X140314709Y-78040149D01*
X139887565Y-78013210D01*
X139649270Y-78030094D01*
X138689292Y-78110292D01*
X138557000Y-82079041D01*
X138424709Y-86047792D01*
X138086541Y-83644902D01*
X136600933Y-83644902D01*
X136578837Y-83986844D01*
X136251492Y-84063416D01*
X135955734Y-84008323D01*
X135836223Y-83755949D01*
X135859204Y-83175658D01*
X135910676Y-82744328D01*
X136062669Y-81837575D01*
X136217582Y-81344052D01*
X136348391Y-81294308D01*
X136428072Y-81718890D01*
X136440334Y-82145596D01*
X136478360Y-82941086D01*
X136572587Y-83554060D01*
X136600933Y-83644902D01*
X138086541Y-83644902D01*
X137940643Y-82608208D01*
X137707509Y-80949028D01*
X137527082Y-79741433D01*
X137371923Y-78913945D01*
X137214595Y-78395087D01*
X137027660Y-78113381D01*
X136783680Y-77997349D01*
X136455219Y-77975513D01*
X136163279Y-77978000D01*
X135550896Y-78002763D01*
X135228915Y-78169126D01*
X135065729Y-78615201D01*
X134965685Y-79234771D01*
X134845660Y-80029217D01*
X134668522Y-81171562D01*
X134461481Y-82487297D01*
X134315904Y-83401958D01*
X133850278Y-86312375D01*
X133822389Y-82145187D01*
X133794500Y-77978000D01*
X132207000Y-77978000D01*
X132204577Y-79763937D01*
X132202154Y-81549875D01*
X131369426Y-79763937D01*
X130915866Y-78837480D01*
X130571451Y-78299100D01*
X130245673Y-78046819D01*
X129848020Y-77978656D01*
X129784349Y-77978000D01*
X129244748Y-78021464D01*
X129032000Y-78120557D01*
X129134932Y-78409634D01*
X129409941Y-79060342D01*
X129806345Y-79954314D01*
X129996171Y-80372380D01*
X130960342Y-82481646D01*
X130104361Y-84397011D01*
X129681811Y-85345566D01*
X129336405Y-86126528D01*
X129131203Y-86597185D01*
X129111882Y-86643104D01*
X129217912Y-86897808D01*
X129756041Y-86973833D01*
X130181424Y-86927452D01*
X130512887Y-86720076D01*
X130842891Y-86249354D01*
X131263898Y-85412936D01*
X131369426Y-85187896D01*
X132202154Y-83401958D01*
X132204577Y-85187896D01*
X132207000Y-86973833D01*
X133765817Y-86973833D01*
X134645561Y-86954938D01*
X135136066Y-86862575D01*
X135376882Y-86643227D01*
X135490650Y-86312375D01*
X135786740Y-85785665D01*
X136313083Y-85650917D01*
X136809948Y-85758692D01*
X136965963Y-86184983D01*
X136969500Y-86325000D01*
X136996036Y-86691095D01*
X137156849Y-86885093D01*
X137573744Y-86950842D01*
X138368527Y-86932194D01*
X138623146Y-86920313D01*
X140276792Y-86841542D01*
X140242642Y-84989458D01*
X140254761Y-84102636D01*
X140325424Y-83724422D01*
X140442675Y-83838975D01*
X140594557Y-84430451D01*
X140769115Y-85483011D01*
X140803732Y-85732884D01*
X140951044Y-86517502D01*
X141150240Y-86876204D01*
X141419641Y-86919927D01*
X141715264Y-86689090D01*
X141959297Y-86073843D01*
X142162505Y-85118168D01*
X142461147Y-83401958D01*
X142493448Y-85187896D01*
X142525750Y-86973833D01*
X144113250Y-86973833D01*
X144113250Y-77946057D01*
X143127729Y-78028174D01*
G37*
X143127729Y-78028174D02*
X142142208Y-78110292D01*
X141817140Y-80060290D01*
X141647133Y-81013257D01*
X141496533Y-81740036D01*
X141394286Y-82102916D01*
X141384687Y-82117674D01*
X141299773Y-81939652D01*
X141189095Y-81368374D01*
X141098990Y-80707896D01*
X140943967Y-79476688D01*
X140794111Y-78681752D01*
X140600625Y-78232952D01*
X140314709Y-78040149D01*
X139887565Y-78013210D01*
X139649270Y-78030094D01*
X138689292Y-78110292D01*
X138557000Y-82079041D01*
X138424709Y-86047792D01*
X138086541Y-83644902D01*
X136600933Y-83644902D01*
X136578837Y-83986844D01*
X136251492Y-84063416D01*
X135955734Y-84008323D01*
X135836223Y-83755949D01*
X135859204Y-83175658D01*
X135910676Y-82744328D01*
X136062669Y-81837575D01*
X136217582Y-81344052D01*
X136348391Y-81294308D01*
X136428072Y-81718890D01*
X136440334Y-82145596D01*
X136478360Y-82941086D01*
X136572587Y-83554060D01*
X136600933Y-83644902D01*
X138086541Y-83644902D01*
X137940643Y-82608208D01*
X137707509Y-80949028D01*
X137527082Y-79741433D01*
X137371923Y-78913945D01*
X137214595Y-78395087D01*
X137027660Y-78113381D01*
X136783680Y-77997349D01*
X136455219Y-77975513D01*
X136163279Y-77978000D01*
X135550896Y-78002763D01*
X135228915Y-78169126D01*
X135065729Y-78615201D01*
X134965685Y-79234771D01*
X134845660Y-80029217D01*
X134668522Y-81171562D01*
X134461481Y-82487297D01*
X134315904Y-83401958D01*
X133850278Y-86312375D01*
X133822389Y-82145187D01*
X133794500Y-77978000D01*
X132207000Y-77978000D01*
X132204577Y-79763937D01*
X132202154Y-81549875D01*
X131369426Y-79763937D01*
X130915866Y-78837480D01*
X130571451Y-78299100D01*
X130245673Y-78046819D01*
X129848020Y-77978656D01*
X129784349Y-77978000D01*
X129244748Y-78021464D01*
X129032000Y-78120557D01*
X129134932Y-78409634D01*
X129409941Y-79060342D01*
X129806345Y-79954314D01*
X129996171Y-80372380D01*
X130960342Y-82481646D01*
X130104361Y-84397011D01*
X129681811Y-85345566D01*
X129336405Y-86126528D01*
X129131203Y-86597185D01*
X129111882Y-86643104D01*
X129217912Y-86897808D01*
X129756041Y-86973833D01*
X130181424Y-86927452D01*
X130512887Y-86720076D01*
X130842891Y-86249354D01*
X131263898Y-85412936D01*
X131369426Y-85187896D01*
X132202154Y-83401958D01*
X132204577Y-85187896D01*
X132207000Y-86973833D01*
X133765817Y-86973833D01*
X134645561Y-86954938D01*
X135136066Y-86862575D01*
X135376882Y-86643227D01*
X135490650Y-86312375D01*
X135786740Y-85785665D01*
X136313083Y-85650917D01*
X136809948Y-85758692D01*
X136965963Y-86184983D01*
X136969500Y-86325000D01*
X136996036Y-86691095D01*
X137156849Y-86885093D01*
X137573744Y-86950842D01*
X138368527Y-86932194D01*
X138623146Y-86920313D01*
X140276792Y-86841542D01*
X140242642Y-84989458D01*
X140254761Y-84102636D01*
X140325424Y-83724422D01*
X140442675Y-83838975D01*
X140594557Y-84430451D01*
X140769115Y-85483011D01*
X140803732Y-85732884D01*
X140951044Y-86517502D01*
X141150240Y-86876204D01*
X141419641Y-86919927D01*
X141715264Y-86689090D01*
X141959297Y-86073843D01*
X142162505Y-85118168D01*
X142461147Y-83401958D01*
X142493448Y-85187896D01*
X142525750Y-86973833D01*
X144113250Y-86973833D01*
X144113250Y-77946057D01*
X143127729Y-78028174D01*
G36*
X126985463Y-78030942D02*
G01*
X126128783Y-78093450D01*
X125674254Y-78207121D01*
X125494964Y-78433751D01*
X125464109Y-78771750D01*
X125609736Y-79321805D01*
X126121583Y-79566689D01*
X126580357Y-79757962D01*
X126798953Y-80196128D01*
X126865159Y-80691168D01*
X126887192Y-81339038D01*
X126730553Y-81617244D01*
X126281026Y-81681347D01*
X126137555Y-81682166D01*
X125567885Y-81744496D01*
X125354789Y-82041259D01*
X125327833Y-82475916D01*
X125393394Y-83038129D01*
X125702646Y-83245350D01*
X126121583Y-83269666D01*
X126630542Y-83311459D01*
X126856796Y-83537936D01*
X126914081Y-84100744D01*
X126915333Y-84328000D01*
X126883989Y-85006611D01*
X126714131Y-85308283D01*
X126292025Y-85384663D01*
X126121583Y-85386333D01*
X125559371Y-85451894D01*
X125352150Y-85761145D01*
X125327833Y-86180083D01*
X125327833Y-86973833D01*
X128502833Y-86973833D01*
X128502833Y-77951592D01*
X126985463Y-78030942D01*
G37*
X126985463Y-78030942D02*
X126128783Y-78093450D01*
X125674254Y-78207121D01*
X125494964Y-78433751D01*
X125464109Y-78771750D01*
X125609736Y-79321805D01*
X126121583Y-79566689D01*
X126580357Y-79757962D01*
X126798953Y-80196128D01*
X126865159Y-80691168D01*
X126887192Y-81339038D01*
X126730553Y-81617244D01*
X126281026Y-81681347D01*
X126137555Y-81682166D01*
X125567885Y-81744496D01*
X125354789Y-82041259D01*
X125327833Y-82475916D01*
X125393394Y-83038129D01*
X125702646Y-83245350D01*
X126121583Y-83269666D01*
X126630542Y-83311459D01*
X126856796Y-83537936D01*
X126914081Y-84100744D01*
X126915333Y-84328000D01*
X126883989Y-85006611D01*
X126714131Y-85308283D01*
X126292025Y-85384663D01*
X126121583Y-85386333D01*
X125559371Y-85451894D01*
X125352150Y-85761145D01*
X125327833Y-86180083D01*
X125327833Y-86973833D01*
X128502833Y-86973833D01*
X128502833Y-77951592D01*
X126985463Y-78030942D01*
G36*
X123507685Y-78123432D02*
G01*
X122596482Y-78177137D01*
X122013629Y-78361907D01*
X121562192Y-78744824D01*
X121510533Y-78803744D01*
X120936656Y-79470916D01*
X120023391Y-78872027D01*
X119225115Y-78457695D01*
X118435865Y-78208894D01*
X118316375Y-78191715D01*
X117742745Y-78201641D01*
X117500629Y-78474672D01*
X117444886Y-78775914D01*
X117468497Y-79218422D01*
X117750713Y-79520092D01*
X118414497Y-79804222D01*
X118500330Y-79834247D01*
X119355065Y-80241403D01*
X119682894Y-80690491D01*
X119484734Y-81185802D01*
X118890295Y-81654507D01*
X117989306Y-82467571D01*
X117528354Y-83451947D01*
X117518067Y-84497308D01*
X117969071Y-85493328D01*
X118469376Y-86024616D01*
X119207376Y-86456732D01*
X120169423Y-86785122D01*
X121139986Y-86956660D01*
X121903536Y-86918225D01*
X121986033Y-86891395D01*
X122253395Y-86570885D01*
X122534329Y-85905534D01*
X122677130Y-85406632D01*
X122899792Y-84651434D01*
X123109612Y-84193635D01*
X121469277Y-84193635D01*
X121175420Y-85185287D01*
X121167944Y-85198658D01*
X120845823Y-85299936D01*
X120280953Y-85155430D01*
X119662574Y-84824975D01*
X119440854Y-84652573D01*
X119073574Y-84202587D01*
X118977833Y-83921521D01*
X119153832Y-83624303D01*
X119583446Y-83181821D01*
X120119103Y-82719491D01*
X120613228Y-82362731D01*
X120918249Y-82236958D01*
X120943747Y-82250759D01*
X121386107Y-83137286D01*
X121469277Y-84193635D01*
X123109612Y-84193635D01*
X123123117Y-84164169D01*
X123237557Y-84063416D01*
X123368008Y-84302676D01*
X123454526Y-84919860D01*
X123475750Y-85518625D01*
X123488919Y-86350528D01*
X123576171Y-86783527D01*
X123809129Y-86947876D01*
X124259414Y-86973831D01*
X124275898Y-86973833D01*
X125076045Y-86973833D01*
X125003502Y-82542062D01*
X124978599Y-81020708D01*
X123475750Y-81020708D01*
X123436187Y-81945290D01*
X123297832Y-82390567D01*
X123031182Y-82401844D01*
X122734917Y-82158416D01*
X122460601Y-81608010D01*
X122426494Y-80892407D01*
X122595281Y-80194459D01*
X122929644Y-79697014D01*
X123264083Y-79565500D01*
X123380014Y-79804791D01*
X123456897Y-80422048D01*
X123475750Y-81020708D01*
X124978599Y-81020708D01*
X124930958Y-78110292D01*
X123507685Y-78123432D01*
G37*
X123507685Y-78123432D02*
X122596482Y-78177137D01*
X122013629Y-78361907D01*
X121562192Y-78744824D01*
X121510533Y-78803744D01*
X120936656Y-79470916D01*
X120023391Y-78872027D01*
X119225115Y-78457695D01*
X118435865Y-78208894D01*
X118316375Y-78191715D01*
X117742745Y-78201641D01*
X117500629Y-78474672D01*
X117444886Y-78775914D01*
X117468497Y-79218422D01*
X117750713Y-79520092D01*
X118414497Y-79804222D01*
X118500330Y-79834247D01*
X119355065Y-80241403D01*
X119682894Y-80690491D01*
X119484734Y-81185802D01*
X118890295Y-81654507D01*
X117989306Y-82467571D01*
X117528354Y-83451947D01*
X117518067Y-84497308D01*
X117969071Y-85493328D01*
X118469376Y-86024616D01*
X119207376Y-86456732D01*
X120169423Y-86785122D01*
X121139986Y-86956660D01*
X121903536Y-86918225D01*
X121986033Y-86891395D01*
X122253395Y-86570885D01*
X122534329Y-85905534D01*
X122677130Y-85406632D01*
X122899792Y-84651434D01*
X123109612Y-84193635D01*
X121469277Y-84193635D01*
X121175420Y-85185287D01*
X121167944Y-85198658D01*
X120845823Y-85299936D01*
X120280953Y-85155430D01*
X119662574Y-84824975D01*
X119440854Y-84652573D01*
X119073574Y-84202587D01*
X118977833Y-83921521D01*
X119153832Y-83624303D01*
X119583446Y-83181821D01*
X120119103Y-82719491D01*
X120613228Y-82362731D01*
X120918249Y-82236958D01*
X120943747Y-82250759D01*
X121386107Y-83137286D01*
X121469277Y-84193635D01*
X123109612Y-84193635D01*
X123123117Y-84164169D01*
X123237557Y-84063416D01*
X123368008Y-84302676D01*
X123454526Y-84919860D01*
X123475750Y-85518625D01*
X123488919Y-86350528D01*
X123576171Y-86783527D01*
X123809129Y-86947876D01*
X124259414Y-86973831D01*
X124275898Y-86973833D01*
X125076045Y-86973833D01*
X125003502Y-82542062D01*
X124978599Y-81020708D01*
X123475750Y-81020708D01*
X123436187Y-81945290D01*
X123297832Y-82390567D01*
X123031182Y-82401844D01*
X122734917Y-82158416D01*
X122460601Y-81608010D01*
X122426494Y-80892407D01*
X122595281Y-80194459D01*
X122929644Y-79697014D01*
X123264083Y-79565500D01*
X123380014Y-79804791D01*
X123456897Y-80422048D01*
X123475750Y-81020708D01*
X124978599Y-81020708D01*
X124930958Y-78110292D01*
X123507685Y-78123432D01*
G36*
X154396824Y-82353472D02*
G01*
X153728884Y-82399245D01*
X153383045Y-82505289D01*
X153255836Y-82695950D01*
X153241375Y-82872791D01*
X153444581Y-83318222D01*
X153917725Y-83490413D01*
X154456096Y-83350064D01*
X154685987Y-83150143D01*
X155279597Y-82779953D01*
X155935417Y-82859412D01*
X156284083Y-83137375D01*
X156794265Y-83450330D01*
X157260924Y-83534250D01*
X157738414Y-83438484D01*
X157837645Y-83059177D01*
X157823840Y-82938937D01*
X157749797Y-82649923D01*
X157556033Y-82473587D01*
X157134021Y-82382244D01*
X156375232Y-82348205D01*
X155490333Y-82343625D01*
X154396824Y-82353472D01*
G37*
X154396824Y-82353472D02*
X153728884Y-82399245D01*
X153383045Y-82505289D01*
X153255836Y-82695950D01*
X153241375Y-82872791D01*
X153444581Y-83318222D01*
X153917725Y-83490413D01*
X154456096Y-83350064D01*
X154685987Y-83150143D01*
X155279597Y-82779953D01*
X155935417Y-82859412D01*
X156284083Y-83137375D01*
X156794265Y-83450330D01*
X157260924Y-83534250D01*
X157738414Y-83438484D01*
X157837645Y-83059177D01*
X157823840Y-82938937D01*
X157749797Y-82649923D01*
X157556033Y-82473587D01*
X157134021Y-82382244D01*
X156375232Y-82348205D01*
X155490333Y-82343625D01*
X154396824Y-82353472D01*
G36*
X154891383Y-81760501D02*
G01*
X154784917Y-81822471D01*
X155131572Y-81862412D01*
X155622625Y-81871075D01*
X156222946Y-81851275D01*
X156398536Y-81803864D01*
X156214300Y-81756890D01*
X155431824Y-81713364D01*
X154891383Y-81760501D01*
G37*
X154891383Y-81760501D02*
X154784917Y-81822471D01*
X155131572Y-81862412D01*
X155622625Y-81871075D01*
X156222946Y-81851275D01*
X156398536Y-81803864D01*
X156214300Y-81756890D01*
X155431824Y-81713364D01*
X154891383Y-81760501D01*
G36*
X155157087Y-76427717D02*
G01*
X154757233Y-76611388D01*
X154383194Y-77049542D01*
X153902833Y-77845708D01*
X153460369Y-78597132D01*
X153126924Y-79122723D01*
X152983508Y-79300917D01*
X152808875Y-79096437D01*
X152476646Y-78584774D01*
X152345233Y-78366133D01*
X151976312Y-77782742D01*
X151686315Y-77583796D01*
X151285401Y-77697906D01*
X150979307Y-77852487D01*
X150459709Y-78178797D01*
X150245208Y-78431160D01*
X150249454Y-78456542D01*
X150409825Y-78773380D01*
X150738335Y-79406060D01*
X151064536Y-80028521D01*
X151488070Y-80800725D01*
X151827916Y-81215579D01*
X152246620Y-81384122D01*
X152906724Y-81417391D01*
X153097926Y-81417583D01*
X153885628Y-81367997D01*
X154433592Y-81241751D01*
X154564292Y-81153000D01*
X154916759Y-80972797D01*
X155555570Y-80889147D01*
X155622625Y-80888416D01*
X156276125Y-80959705D01*
X156666315Y-81133306D01*
X156680958Y-81153000D01*
X157018342Y-81302305D01*
X157703473Y-81395794D01*
X158217928Y-81412367D01*
X159591375Y-81407150D01*
X160436149Y-79961569D01*
X161280922Y-78515988D01*
X160708006Y-78114702D01*
X160023872Y-77761285D01*
X159524772Y-77866829D01*
X159086377Y-78460985D01*
X159062209Y-78507167D01*
X158733657Y-79043962D01*
X158478401Y-79297050D01*
X158460101Y-79299991D01*
X158244501Y-79084970D01*
X157873684Y-78525719D01*
X157483989Y-77844783D01*
X157027457Y-77043422D01*
X156669871Y-76607293D01*
X156277543Y-76426338D01*
X155717469Y-76390500D01*
X155157087Y-76427717D01*
G37*
X155157087Y-76427717D02*
X154757233Y-76611388D01*
X154383194Y-77049542D01*
X153902833Y-77845708D01*
X153460369Y-78597132D01*
X153126924Y-79122723D01*
X152983508Y-79300917D01*
X152808875Y-79096437D01*
X152476646Y-78584774D01*
X152345233Y-78366133D01*
X151976312Y-77782742D01*
X151686315Y-77583796D01*
X151285401Y-77697906D01*
X150979307Y-77852487D01*
X150459709Y-78178797D01*
X150245208Y-78431160D01*
X150249454Y-78456542D01*
X150409825Y-78773380D01*
X150738335Y-79406060D01*
X151064536Y-80028521D01*
X151488070Y-80800725D01*
X151827916Y-81215579D01*
X152246620Y-81384122D01*
X152906724Y-81417391D01*
X153097926Y-81417583D01*
X153885628Y-81367997D01*
X154433592Y-81241751D01*
X154564292Y-81153000D01*
X154916759Y-80972797D01*
X155555570Y-80889147D01*
X155622625Y-80888416D01*
X156276125Y-80959705D01*
X156666315Y-81133306D01*
X156680958Y-81153000D01*
X157018342Y-81302305D01*
X157703473Y-81395794D01*
X158217928Y-81412367D01*
X159591375Y-81407150D01*
X160436149Y-79961569D01*
X161280922Y-78515988D01*
X160708006Y-78114702D01*
X160023872Y-77761285D01*
X159524772Y-77866829D01*
X159086377Y-78460985D01*
X159062209Y-78507167D01*
X158733657Y-79043962D01*
X158478401Y-79297050D01*
X158460101Y-79299991D01*
X158244501Y-79084970D01*
X157873684Y-78525719D01*
X157483989Y-77844783D01*
X157027457Y-77043422D01*
X156669871Y-76607293D01*
X156277543Y-76426338D01*
X155717469Y-76390500D01*
X155157087Y-76427717D01*
G36*
X156019500Y-69114458D02*
G01*
X156044917Y-69683459D01*
X156217177Y-69952898D01*
X156680292Y-70034788D01*
X157210125Y-70040500D01*
X157920463Y-70066008D01*
X158346330Y-70130542D01*
X158400750Y-70168817D01*
X158273090Y-70445863D01*
X157943100Y-71028765D01*
X157607000Y-71587142D01*
X157086009Y-72500575D01*
X156861862Y-73141261D01*
X156912798Y-73658954D01*
X157217054Y-74203407D01*
X157225128Y-74214962D01*
X157530489Y-74542896D01*
X157964248Y-74721729D01*
X158678185Y-74793628D01*
X159341795Y-74803000D01*
X160213397Y-74826664D01*
X160827935Y-74888535D01*
X161046583Y-74970208D01*
X160919618Y-75283246D01*
X160604890Y-75849400D01*
X160508828Y-76007522D01*
X159971072Y-76877629D01*
X160567699Y-77295523D01*
X161098467Y-77609920D01*
X161504238Y-77632669D01*
X161897801Y-77308719D01*
X162391942Y-76583018D01*
X162545830Y-76330010D01*
X162998647Y-75546819D01*
X163201635Y-75040074D01*
X163188637Y-74639512D01*
X162993496Y-74174871D01*
X162979712Y-74147197D01*
X162527804Y-73455579D01*
X161887339Y-72705575D01*
X161681281Y-72501385D01*
X161012473Y-71689909D01*
X160782000Y-70969490D01*
X160661626Y-70301407D01*
X160361470Y-69475496D01*
X160247456Y-69236209D01*
X159712912Y-68188417D01*
X156019500Y-68188417D01*
X156019500Y-69114458D01*
G37*
X156019500Y-69114458D02*
X156044917Y-69683459D01*
X156217177Y-69952898D01*
X156680292Y-70034788D01*
X157210125Y-70040500D01*
X157920463Y-70066008D01*
X158346330Y-70130542D01*
X158400750Y-70168817D01*
X158273090Y-70445863D01*
X157943100Y-71028765D01*
X157607000Y-71587142D01*
X157086009Y-72500575D01*
X156861862Y-73141261D01*
X156912798Y-73658954D01*
X157217054Y-74203407D01*
X157225128Y-74214962D01*
X157530489Y-74542896D01*
X157964248Y-74721729D01*
X158678185Y-74793628D01*
X159341795Y-74803000D01*
X160213397Y-74826664D01*
X160827935Y-74888535D01*
X161046583Y-74970208D01*
X160919618Y-75283246D01*
X160604890Y-75849400D01*
X160508828Y-76007522D01*
X159971072Y-76877629D01*
X160567699Y-77295523D01*
X161098467Y-77609920D01*
X161504238Y-77632669D01*
X161897801Y-77308719D01*
X162391942Y-76583018D01*
X162545830Y-76330010D01*
X162998647Y-75546819D01*
X163201635Y-75040074D01*
X163188637Y-74639512D01*
X162993496Y-74174871D01*
X162979712Y-74147197D01*
X162527804Y-73455579D01*
X161887339Y-72705575D01*
X161681281Y-72501385D01*
X161012473Y-71689909D01*
X160782000Y-70969490D01*
X160661626Y-70301407D01*
X160361470Y-69475496D01*
X160247456Y-69236209D01*
X159712912Y-68188417D01*
X156019500Y-68188417D01*
X156019500Y-69114458D01*
G36*
X152843031Y-68200988D02*
G01*
X152274790Y-68287812D01*
X151902561Y-68522556D01*
X151559766Y-68978886D01*
X151392611Y-69241492D01*
X150989201Y-69994507D01*
X150753205Y-70655453D01*
X150727834Y-70846386D01*
X150599742Y-71557144D01*
X150286709Y-72145831D01*
X149895596Y-72419196D01*
X149856702Y-72421750D01*
X149547180Y-72631255D01*
X149105828Y-73167891D01*
X148817217Y-73607365D01*
X148101080Y-74792980D01*
X148951436Y-76247982D01*
X149409082Y-76997615D01*
X149765948Y-77520990D01*
X149934083Y-77697607D01*
X150235551Y-77580230D01*
X150783096Y-77303648D01*
X150810134Y-77289034D01*
X151553893Y-76885838D01*
X151008572Y-75961587D01*
X150665868Y-75354548D01*
X150476435Y-74968099D01*
X150463250Y-74920168D01*
X150705088Y-74861249D01*
X151339721Y-74818619D01*
X152230826Y-74801350D01*
X152249188Y-74801327D01*
X153210418Y-74785127D01*
X153791252Y-74704605D01*
X154140300Y-74508503D01*
X154406172Y-74145561D01*
X154469896Y-74035359D01*
X154684663Y-73610572D01*
X154737172Y-73242127D01*
X154598308Y-72779578D01*
X154238957Y-72072480D01*
X154009400Y-71655781D01*
X153114134Y-70040500D01*
X154302234Y-70040500D01*
X155032801Y-70020603D01*
X155378372Y-69886001D01*
X155483110Y-69524328D01*
X155490333Y-69114458D01*
X155490333Y-68188417D01*
X153773861Y-68188417D01*
X152843031Y-68200988D01*
G37*
X152843031Y-68200988D02*
X152274790Y-68287812D01*
X151902561Y-68522556D01*
X151559766Y-68978886D01*
X151392611Y-69241492D01*
X150989201Y-69994507D01*
X150753205Y-70655453D01*
X150727834Y-70846386D01*
X150599742Y-71557144D01*
X150286709Y-72145831D01*
X149895596Y-72419196D01*
X149856702Y-72421750D01*
X149547180Y-72631255D01*
X149105828Y-73167891D01*
X148817217Y-73607365D01*
X148101080Y-74792980D01*
X148951436Y-76247982D01*
X149409082Y-76997615D01*
X149765948Y-77520990D01*
X149934083Y-77697607D01*
X150235551Y-77580230D01*
X150783096Y-77303648D01*
X150810134Y-77289034D01*
X151553893Y-76885838D01*
X151008572Y-75961587D01*
X150665868Y-75354548D01*
X150476435Y-74968099D01*
X150463250Y-74920168D01*
X150705088Y-74861249D01*
X151339721Y-74818619D01*
X152230826Y-74801350D01*
X152249188Y-74801327D01*
X153210418Y-74785127D01*
X153791252Y-74704605D01*
X154140300Y-74508503D01*
X154406172Y-74145561D01*
X154469896Y-74035359D01*
X154684663Y-73610572D01*
X154737172Y-73242127D01*
X154598308Y-72779578D01*
X154238957Y-72072480D01*
X154009400Y-71655781D01*
X153114134Y-70040500D01*
X154302234Y-70040500D01*
X155032801Y-70020603D01*
X155378372Y-69886001D01*
X155483110Y-69524328D01*
X155490333Y-69114458D01*
X155490333Y-68188417D01*
X153773861Y-68188417D01*
X152843031Y-68200988D01*
G36*
X142525750Y-77448833D02*
G01*
X144113250Y-77448833D01*
X144113250Y-68717583D01*
X142525750Y-68717583D01*
X142525750Y-77448833D01*
G37*
X142525750Y-77448833D02*
X144113250Y-77448833D01*
X144113250Y-68717583D01*
X142525750Y-68717583D01*
X142525750Y-77448833D01*
G36*
X139935296Y-68755400D02*
G01*
X139380263Y-68913739D01*
X138968413Y-69259929D01*
X138840787Y-69414723D01*
X138455879Y-70021618D01*
X138282373Y-70526288D01*
X138281824Y-70539202D01*
X138179304Y-70639085D01*
X137927962Y-70303732D01*
X137856589Y-70172792D01*
X137170376Y-69239654D01*
X136367778Y-68761553D01*
X135524132Y-68758001D01*
X134714776Y-69248507D01*
X134628052Y-69336674D01*
X133991953Y-70358391D01*
X133621126Y-71684121D01*
X133514696Y-73160515D01*
X133671786Y-74634223D01*
X134091518Y-75951895D01*
X134671022Y-76853521D01*
X135393145Y-77348148D01*
X136167871Y-77390065D01*
X136919694Y-77039989D01*
X137573110Y-76358634D01*
X138052613Y-75406717D01*
X138282699Y-74244953D01*
X138292417Y-73941456D01*
X138313225Y-73402381D01*
X138422632Y-73329401D01*
X138658691Y-73615271D01*
X138877348Y-74067339D01*
X138834123Y-74618323D01*
X138699014Y-75054903D01*
X138424056Y-75907064D01*
X138203618Y-76687991D01*
X138195407Y-76721229D01*
X138122551Y-77232684D01*
X138344526Y-77423102D01*
X138806345Y-77448833D01*
X139317395Y-77390721D01*
X139615583Y-77121857D01*
X139836640Y-76500453D01*
X139882782Y-76324354D01*
X140157536Y-75337832D01*
X140354714Y-74863579D01*
X140490174Y-74893013D01*
X140579771Y-75417550D01*
X140615997Y-75927479D01*
X140677131Y-76782961D01*
X140787270Y-77236920D01*
X141018667Y-77416489D01*
X141443576Y-77448801D01*
X141480621Y-77448833D01*
X142261167Y-77448833D01*
X142261167Y-73018880D01*
X136704917Y-73018880D01*
X136639549Y-74258806D01*
X136462702Y-75177369D01*
X136203264Y-75729387D01*
X135890119Y-75869678D01*
X135552155Y-75553059D01*
X135352844Y-75133729D01*
X135209094Y-74445948D01*
X135157605Y-73496103D01*
X135189090Y-72453479D01*
X135294259Y-71487362D01*
X135463825Y-70767038D01*
X135606624Y-70508375D01*
X136001716Y-70348397D01*
X136330526Y-70660771D01*
X136568936Y-71390361D01*
X136692825Y-72482035D01*
X136704917Y-73018880D01*
X142261167Y-73018880D01*
X142261167Y-71628000D01*
X140673667Y-71628000D01*
X140606575Y-72499324D01*
X140421606Y-72899353D01*
X140143218Y-72808868D01*
X139831775Y-72289458D01*
X139665449Y-71548523D01*
X139831775Y-70966541D01*
X140173528Y-70416438D01*
X140443954Y-70374205D01*
X140618597Y-70820628D01*
X140673667Y-71628000D01*
X142261167Y-71628000D01*
X142261167Y-68717583D01*
X140825162Y-68717583D01*
X139935296Y-68755400D01*
G37*
X139935296Y-68755400D02*
X139380263Y-68913739D01*
X138968413Y-69259929D01*
X138840787Y-69414723D01*
X138455879Y-70021618D01*
X138282373Y-70526288D01*
X138281824Y-70539202D01*
X138179304Y-70639085D01*
X137927962Y-70303732D01*
X137856589Y-70172792D01*
X137170376Y-69239654D01*
X136367778Y-68761553D01*
X135524132Y-68758001D01*
X134714776Y-69248507D01*
X134628052Y-69336674D01*
X133991953Y-70358391D01*
X133621126Y-71684121D01*
X133514696Y-73160515D01*
X133671786Y-74634223D01*
X134091518Y-75951895D01*
X134671022Y-76853521D01*
X135393145Y-77348148D01*
X136167871Y-77390065D01*
X136919694Y-77039989D01*
X137573110Y-76358634D01*
X138052613Y-75406717D01*
X138282699Y-74244953D01*
X138292417Y-73941456D01*
X138313225Y-73402381D01*
X138422632Y-73329401D01*
X138658691Y-73615271D01*
X138877348Y-74067339D01*
X138834123Y-74618323D01*
X138699014Y-75054903D01*
X138424056Y-75907064D01*
X138203618Y-76687991D01*
X138195407Y-76721229D01*
X138122551Y-77232684D01*
X138344526Y-77423102D01*
X138806345Y-77448833D01*
X139317395Y-77390721D01*
X139615583Y-77121857D01*
X139836640Y-76500453D01*
X139882782Y-76324354D01*
X140157536Y-75337832D01*
X140354714Y-74863579D01*
X140490174Y-74893013D01*
X140579771Y-75417550D01*
X140615997Y-75927479D01*
X140677131Y-76782961D01*
X140787270Y-77236920D01*
X141018667Y-77416489D01*
X141443576Y-77448801D01*
X141480621Y-77448833D01*
X142261167Y-77448833D01*
X142261167Y-73018880D01*
X136704917Y-73018880D01*
X136639549Y-74258806D01*
X136462702Y-75177369D01*
X136203264Y-75729387D01*
X135890119Y-75869678D01*
X135552155Y-75553059D01*
X135352844Y-75133729D01*
X135209094Y-74445948D01*
X135157605Y-73496103D01*
X135189090Y-72453479D01*
X135294259Y-71487362D01*
X135463825Y-70767038D01*
X135606624Y-70508375D01*
X136001716Y-70348397D01*
X136330526Y-70660771D01*
X136568936Y-71390361D01*
X136692825Y-72482035D01*
X136704917Y-73018880D01*
X142261167Y-73018880D01*
X142261167Y-71628000D01*
X140673667Y-71628000D01*
X140606575Y-72499324D01*
X140421606Y-72899353D01*
X140143218Y-72808868D01*
X139831775Y-72289458D01*
X139665449Y-71548523D01*
X139831775Y-70966541D01*
X140173528Y-70416438D01*
X140443954Y-70374205D01*
X140618597Y-70820628D01*
X140673667Y-71628000D01*
X142261167Y-71628000D01*
X142261167Y-68717583D01*
X140825162Y-68717583D01*
X139935296Y-68755400D01*
G36*
X131939313Y-68739320D02*
G01*
X131641704Y-68876495D01*
X131419299Y-69237056D01*
X131193929Y-69928951D01*
X131001232Y-70635812D01*
X130487208Y-72554042D01*
X130409471Y-70635812D01*
X130331734Y-68717583D01*
X129483430Y-68718082D01*
X128635125Y-68718582D01*
X128635125Y-77449235D01*
X129441247Y-77449034D01*
X129848929Y-77419403D01*
X130141133Y-77262918D01*
X130392167Y-76877826D01*
X130676342Y-76162376D01*
X130938890Y-75398312D01*
X131630411Y-73347792D01*
X131654122Y-75398312D01*
X131677833Y-77448833D01*
X133265333Y-77448833D01*
X133265333Y-68717583D01*
X132390294Y-68717583D01*
X131939313Y-68739320D01*
G37*
X131939313Y-68739320D02*
X131641704Y-68876495D01*
X131419299Y-69237056D01*
X131193929Y-69928951D01*
X131001232Y-70635812D01*
X130487208Y-72554042D01*
X130409471Y-70635812D01*
X130331734Y-68717583D01*
X129483430Y-68718082D01*
X128635125Y-68718582D01*
X128635125Y-77449235D01*
X129441247Y-77449034D01*
X129848929Y-77419403D01*
X130141133Y-77262918D01*
X130392167Y-76877826D01*
X130676342Y-76162376D01*
X130938890Y-75398312D01*
X131630411Y-73347792D01*
X131654122Y-75398312D01*
X131677833Y-77448833D01*
X133265333Y-77448833D01*
X133265333Y-68717583D01*
X132390294Y-68717583D01*
X131939313Y-68739320D01*
G36*
X148491602Y-68478842D02*
G01*
X147909599Y-68910219D01*
X147200511Y-69567380D01*
X146749070Y-68968891D01*
X146222300Y-68534893D01*
X145847343Y-68543192D01*
X145529214Y-68875800D01*
X145533887Y-69328967D01*
X145833967Y-69648261D01*
X145969661Y-69679251D01*
X146519576Y-69732065D01*
X146648560Y-69745397D01*
X146811841Y-70016890D01*
X146846312Y-70743243D01*
X146820990Y-71164979D01*
X146795478Y-72097971D01*
X146940422Y-72738839D01*
X147281447Y-73281646D01*
X147711230Y-73766210D01*
X148011425Y-73999751D01*
X148035058Y-74003680D01*
X148229668Y-73785314D01*
X148620752Y-73197288D01*
X149148807Y-72333078D01*
X149583671Y-71583903D01*
X148875750Y-71583903D01*
X148704811Y-72165532D01*
X148314693Y-72399893D01*
X147889443Y-72271464D01*
X147613107Y-71764723D01*
X147600577Y-71691443D01*
X147636656Y-71248665D01*
X148015702Y-71104049D01*
X148195890Y-71098833D01*
X148733611Y-71224806D01*
X148875750Y-71583903D01*
X149583671Y-71583903D01*
X149669500Y-71436040D01*
X150377112Y-70182348D01*
X150577592Y-69809380D01*
X150052904Y-69809380D01*
X149753300Y-70189334D01*
X149305095Y-70252926D01*
X148831912Y-69980200D01*
X148743458Y-69647248D01*
X148944214Y-69201304D01*
X149387746Y-69005376D01*
X149835953Y-69135696D01*
X149944046Y-69262869D01*
X150052904Y-69809380D01*
X150577592Y-69809380D01*
X150845234Y-69311468D01*
X151097496Y-68747105D01*
X151157533Y-68412960D01*
X151048975Y-68232735D01*
X150795456Y-68130133D01*
X150701306Y-68104817D01*
X149596369Y-68070873D01*
X148491602Y-68478842D01*
G37*
X148491602Y-68478842D02*
X147909599Y-68910219D01*
X147200511Y-69567380D01*
X146749070Y-68968891D01*
X146222300Y-68534893D01*
X145847343Y-68543192D01*
X145529214Y-68875800D01*
X145533887Y-69328967D01*
X145833967Y-69648261D01*
X145969661Y-69679251D01*
X146519576Y-69732065D01*
X146648560Y-69745397D01*
X146811841Y-70016890D01*
X146846312Y-70743243D01*
X146820990Y-71164979D01*
X146795478Y-72097971D01*
X146940422Y-72738839D01*
X147281447Y-73281646D01*
X147711230Y-73766210D01*
X148011425Y-73999751D01*
X148035058Y-74003680D01*
X148229668Y-73785314D01*
X148620752Y-73197288D01*
X149148807Y-72333078D01*
X149583671Y-71583903D01*
X148875750Y-71583903D01*
X148704811Y-72165532D01*
X148314693Y-72399893D01*
X147889443Y-72271464D01*
X147613107Y-71764723D01*
X147600577Y-71691443D01*
X147636656Y-71248665D01*
X148015702Y-71104049D01*
X148195890Y-71098833D01*
X148733611Y-71224806D01*
X148875750Y-71583903D01*
X149583671Y-71583903D01*
X149669500Y-71436040D01*
X150377112Y-70182348D01*
X150577592Y-69809380D01*
X150052904Y-69809380D01*
X149753300Y-70189334D01*
X149305095Y-70252926D01*
X148831912Y-69980200D01*
X148743458Y-69647248D01*
X148944214Y-69201304D01*
X149387746Y-69005376D01*
X149835953Y-69135696D01*
X149944046Y-69262869D01*
X150052904Y-69809380D01*
X150577592Y-69809380D01*
X150845234Y-69311468D01*
X151097496Y-68747105D01*
X151157533Y-68412960D01*
X151048975Y-68232735D01*
X150795456Y-68130133D01*
X150701306Y-68104817D01*
X149596369Y-68070873D01*
X148491602Y-68478842D01*
G36*
X161162771Y-69051580D02*
G01*
X161013441Y-69174059D01*
X160941389Y-69489916D01*
X161126518Y-70093574D01*
X161590584Y-71049331D01*
X161745455Y-71337463D01*
X162391883Y-72429107D01*
X162891796Y-73045383D01*
X163271621Y-73211029D01*
X163526635Y-73005105D01*
X163452535Y-72721497D01*
X163181214Y-72115841D01*
X162783469Y-71322360D01*
X162330100Y-70475275D01*
X161891902Y-69708809D01*
X161539673Y-69157187D01*
X161413991Y-68999805D01*
X161162771Y-69051580D01*
G37*
X161162771Y-69051580D02*
X161013441Y-69174059D01*
X160941389Y-69489916D01*
X161126518Y-70093574D01*
X161590584Y-71049331D01*
X161745455Y-71337463D01*
X162391883Y-72429107D01*
X162891796Y-73045383D01*
X163271621Y-73211029D01*
X163526635Y-73005105D01*
X163452535Y-72721497D01*
X163181214Y-72115841D01*
X162783469Y-71322360D01*
X162330100Y-70475275D01*
X161891902Y-69708809D01*
X161539673Y-69157187D01*
X161413991Y-68999805D01*
X161162771Y-69051580D01*
G36*
X165133527Y-71889452D02*
G01*
X165034127Y-71955474D01*
X164686330Y-72299042D01*
X164664239Y-72511627D01*
X165052884Y-72668354D01*
X165498033Y-72343780D01*
X165549807Y-72283064D01*
X165770564Y-71860011D01*
X165600509Y-71708925D01*
X165133527Y-71889452D01*
G37*
X165133527Y-71889452D02*
X165034127Y-71955474D01*
X164686330Y-72299042D01*
X164664239Y-72511627D01*
X165052884Y-72668354D01*
X165498033Y-72343780D01*
X165549807Y-72283064D01*
X165770564Y-71860011D01*
X165600509Y-71708925D01*
X165133527Y-71889452D01*
G36*
X163653096Y-68224200D02*
G01*
X163124089Y-68506801D01*
X162513064Y-68961662D01*
X162190093Y-69420400D01*
X162199088Y-69772653D01*
X162566466Y-69908208D01*
X162958547Y-70091250D01*
X163322173Y-70514075D01*
X163538855Y-70987238D01*
X163490101Y-71321288D01*
X163463024Y-71341668D01*
X163309292Y-71619832D01*
X163493999Y-71962663D01*
X163740523Y-72204492D01*
X164047084Y-72203952D01*
X164573418Y-71938284D01*
X164854979Y-71768764D01*
X165689556Y-71196804D01*
X165931784Y-70919588D01*
X164997418Y-70919588D01*
X164846138Y-71179835D01*
X164522397Y-71241367D01*
X164265551Y-70938632D01*
X164221583Y-70686343D01*
X164433717Y-70349193D01*
X164618458Y-70305083D01*
X164951270Y-70502389D01*
X164997418Y-70919588D01*
X165931784Y-70919588D01*
X166141493Y-70679589D01*
X166317002Y-70069277D01*
X166334199Y-69709771D01*
X166459868Y-69152158D01*
X164187144Y-69152158D01*
X164131994Y-69363170D01*
X163828210Y-69604040D01*
X163412429Y-69556851D01*
X163167741Y-69266324D01*
X163163250Y-69210138D01*
X163375712Y-68919278D01*
X163806705Y-68746428D01*
X164133389Y-68805778D01*
X164187144Y-69152158D01*
X166459868Y-69152158D01*
X166465030Y-69129254D01*
X166735125Y-68982167D01*
X167085902Y-68770376D01*
X167132000Y-68585292D01*
X166920210Y-68234515D01*
X166735125Y-68188417D01*
X166382903Y-68322959D01*
X166338250Y-68437309D01*
X166139451Y-68504127D01*
X165656303Y-68329976D01*
X165610646Y-68306648D01*
X164919476Y-68008610D01*
X164336361Y-67975542D01*
X163653096Y-68224200D01*
G37*
X163653096Y-68224200D02*
X163124089Y-68506801D01*
X162513064Y-68961662D01*
X162190093Y-69420400D01*
X162199088Y-69772653D01*
X162566466Y-69908208D01*
X162958547Y-70091250D01*
X163322173Y-70514075D01*
X163538855Y-70987238D01*
X163490101Y-71321288D01*
X163463024Y-71341668D01*
X163309292Y-71619832D01*
X163493999Y-71962663D01*
X163740523Y-72204492D01*
X164047084Y-72203952D01*
X164573418Y-71938284D01*
X164854979Y-71768764D01*
X165689556Y-71196804D01*
X165931784Y-70919588D01*
X164997418Y-70919588D01*
X164846138Y-71179835D01*
X164522397Y-71241367D01*
X164265551Y-70938632D01*
X164221583Y-70686343D01*
X164433717Y-70349193D01*
X164618458Y-70305083D01*
X164951270Y-70502389D01*
X164997418Y-70919588D01*
X165931784Y-70919588D01*
X166141493Y-70679589D01*
X166317002Y-70069277D01*
X166334199Y-69709771D01*
X166459868Y-69152158D01*
X164187144Y-69152158D01*
X164131994Y-69363170D01*
X163828210Y-69604040D01*
X163412429Y-69556851D01*
X163167741Y-69266324D01*
X163163250Y-69210138D01*
X163375712Y-68919278D01*
X163806705Y-68746428D01*
X164133389Y-68805778D01*
X164187144Y-69152158D01*
X166459868Y-69152158D01*
X166465030Y-69129254D01*
X166735125Y-68982167D01*
X167085902Y-68770376D01*
X167132000Y-68585292D01*
X166920210Y-68234515D01*
X166735125Y-68188417D01*
X166382903Y-68322959D01*
X166338250Y-68437309D01*
X166139451Y-68504127D01*
X165656303Y-68329976D01*
X165610646Y-68306648D01*
X164919476Y-68008610D01*
X164336361Y-67975542D01*
X163653096Y-68224200D01*
G36*
X163183974Y-67717617D02*
G01*
X162649290Y-67895887D01*
X162434322Y-68122271D01*
X162465122Y-68417001D01*
X162810420Y-68369616D01*
X163311118Y-68048347D01*
X163652795Y-67752991D01*
X163537145Y-67683929D01*
X163183974Y-67717617D01*
G37*
X163183974Y-67717617D02*
X162649290Y-67895887D01*
X162434322Y-68122271D01*
X162465122Y-68417001D01*
X162810420Y-68369616D01*
X163311118Y-68048347D01*
X163652795Y-67752991D01*
X163537145Y-67683929D01*
X163183974Y-67717617D01*
%TD*%
M02*
